<svg id="Layer_1" data-name="Layer 1" xmlns="http://www.w3.org/2000/svg" viewBox="0 0 492.36 413.53"><defs><style>.cls-1{fill:#ebebeb;}.cls-2{fill:#dbdbdb;}.cls-3{fill:#c7c7c7;}.cls-4,.cls-8{fill:#ffc727;}.cls-15,.cls-5{fill:#fff;}.cls-14,.cls-6{fill:#263238;}.cls-7{fill:#a6a6a6;}.cls-8{opacity:0.2;isolation:isolate;}.cls-9{fill:#455a64;}.cls-10{opacity:0.1;}.cls-11,.cls-13{fill:none;}.cls-11{stroke:#000;}.cls-11,.cls-12,.cls-13,.cls-14,.cls-15,.cls-16{stroke-linecap:round;stroke-linejoin:round;}.cls-12{fill:#bdbdbd;}.cls-12,.cls-13,.cls-14,.cls-15,.cls-16{stroke:#263238;}.cls-16{fill:#949494;}</style></defs><title>401 Error Unauthorized-beard</title><g id="freepik--background-complete--inject-124"><path class="cls-1" d="M438.16,317.22L425,317.5l-6.66.11c-2.23,0-4.46,0-6.69,0H411.2v-0.45l0-11.21v-0.5h0.51l13.24,0.06c4.41,0,8.82.11,13.24,0.16h0.27V306c0,1.9-.09,3.78-0.13,5.65Zm0,0L438,311.56c0-1.86-.11-3.7-0.13-5.53l0.28,0.27c-4.42,0-8.83.16-13.24,0.16l-13.24.07,0.49-.5,0,11.19-0.44-.45c2.18,0,4.35,0,6.54.06l6.58,0.11Z" transform="translate(-45.17 -53.68)"/><path class="cls-1" d="M423.38,331.33l-13.12.28-6.66.11h-7.14v-0.45l-0.06-11.19v-0.5h0.5l13.24,0.06c4.42,0,8.83.11,13.24,0.16h0.28v0.27c0,1.9-.09,3.78-0.13,5.65Zm0,0-0.14-5.66c0-1.86-.11-3.7-0.13-5.53l0.27,0.27c-4.41,0-8.82.16-13.24,0.16l-13.24.07,0.5-.5v11.19l-0.45-.45c2.19,0,4.36,0,6.55.06l6.58,0.11Z" transform="translate(-45.17 -53.68)"/><path class="cls-1" d="M88.32,317.22l-13.12.28-6.66.11c-2.23,0-4.46,0-6.7,0H61.4v-0.45L61.34,306v-0.5h0.5l13.24,0.06c4.42,0,8.83.11,13.24,0.16H88.6V306c0,1.9-.09,3.78-0.13,5.65Zm0,0-0.14-5.66c0-1.86-.11-3.7-0.13-5.53l0.27,0.27c-4.41,0-8.82.16-13.24,0.16l-13.24.07,0.5-.5,0,11.19-0.45-.45c2.19,0,4.36,0,6.55.06L75,316.94Z" transform="translate(-45.17 -53.68)"/><path class="cls-1" d="M73.55,331.33l-13.12.28-6.66.11H46.63v-0.45l-0.06-11.19v-0.5h0.5l13.24,0.06c4.42,0,8.83.11,13.24,0.16h0.28v0.27c0,1.9-.09,3.78-0.14,5.65Zm0,0-0.14-5.66c0-1.86-.11-3.7-0.13-5.53l0.27,0.27c-4.41,0-8.82.16-13.24,0.16l-13.24.07,0.5-.5v11.19l-0.45-.45c2.18,0,4.36,0,6.55.06L60.25,331Z" transform="translate(-45.17 -53.68)"/><path class="cls-1" d="M452.93,331.33l-13.13.28-6.66.11H426V319.64h0.5l13.24,0.06c4.41,0,8.82.11,13.24,0.16h0.27v0.27c0,1.9-.09,3.78-0.13,5.65Zm0,0-0.14-5.66c0-1.86-.12-3.7-0.14-5.53l0.28,0.27c-4.42,0-8.83.16-13.24,0.16l-13.24.07,0.5-.5-0.06,11.19-0.44-.45c2.18,0,4.36,0,6.54.06l6.58,0.11Z" transform="translate(-45.17 -53.68)"/><path class="cls-1" d="M150.58,138.34l-13.13.28-6.66.11c-2.23.05-4.46,0-6.69,0.06h-0.45v-0.45l-0.05-11.19v-0.5h0.51l13.24,0.07c4.41,0,8.82.11,13.24,0.16h0.27v0.27c0,1.9-.09,3.79-0.13,5.66Zm0,0-0.15-5.65c0-1.86-.11-3.71-0.13-5.54l0.28,0.28c-4.42,0-8.83.15-13.24,0.16l-13.24.06,0.5-.5-0.06,11.19-0.44-.44h6.54l6.58,0.11Z" transform="translate(-45.17 -53.68)"/><path class="cls-1" d="M135.8,152.45l-13.12.28-6.66.11c-2.23,0-4.46,0-6.7.06h-0.44v-0.45l-0.06-11.19v-0.5h0.5l13.24,0.07c4.42,0,8.83.11,13.24,0.16h0.28v0.27c0,1.9-.09,3.79-0.13,5.66Zm0,0-0.14-5.65c0-1.86-.11-3.71-0.13-5.54l0.27,0.28c-4.41.05-8.82,0.15-13.24,0.16l-13.24.06,0.5-.5v11.19l-0.45-.44c2.19,0,4.36,0,6.55.05l6.58,0.11Z" transform="translate(-45.17 -53.68)"/><path class="cls-1" d="M165.35,152.45l-13.13.28-6.66.11c-2.22,0-4.46,0-6.69.06h-0.45V140.76h0.5l13.24,0.07c4.41,0,8.82.11,13.24,0.16h0.27v0.27c0,1.9-.08,3.79-0.13,5.66Zm0,0-0.14-5.65c-0.05-1.86-.12-3.71-0.13-5.54l0.27,0.28c-4.42.05-8.83,0.15-13.24,0.16l-13.24.06,0.5-.5-0.06,11.19-0.44-.44c2.18,0,4.36,0,6.54.05l6.58,0.11Z" transform="translate(-45.17 -53.68)"/><path class="cls-1" d="M307.3,216.72l-13.12.28-6.66.11h-7.14v-0.45l-0.06-11.19V205h0.5l13.24,0.06c4.42,0,8.83.11,13.24,0.16h0.28v0.27c0,1.9-.09,3.78-0.14,5.65Zm0,0-0.14-5.66c0-1.86-.11-3.7-0.13-5.53l0.27,0.27c-4.41,0-8.82.16-13.24,0.16l-13.24.07,0.5-.5,0,11.19-0.45-.45c2.18,0,4.36,0,6.55.06l6.58,0.11Z" transform="translate(-45.17 -53.68)"/><path class="cls-1" d="M436.62,65.37l-13.12.28-6.66.11c-2.23,0-4.46,0-6.7.06H409.7V65.37l-0.06-11.19v-0.5h0.5l13.24,0.07c4.42,0,8.83.11,13.24,0.16h0.28v0.27c0,1.9-.09,3.79-0.13,5.66Zm0,0-0.14-5.65c0-1.86-.11-3.71-0.13-5.54l0.27,0.28c-4.41,0-8.82.15-13.24,0.16l-13.24.06,0.5-.5,0,11.19-0.45-.44h6.55L423.27,65Z" transform="translate(-45.17 -53.68)"/><path class="cls-1" d="M451.4,79.48l-13.13.28-6.66.11c-2.23,0-4.46,0-6.69.06h-0.45V79.48l0-11.19v-0.5h0.51l13.24,0.07c4.41,0,8.82.11,13.24,0.16h0.27v0.27c0,1.9-.09,3.79-0.13,5.66Zm0,0-0.15-5.65c0-1.86-.11-3.71-0.13-5.54l0.28,0.28c-4.42.05-8.83,0.15-13.24,0.16l-13.24.06,0.5-.5-0.06,11.19L424.92,79h6.54L438,79.15Z" transform="translate(-45.17 -53.68)"/><path class="cls-1" d="M73.55,65.38l-13.12.28-6.66.12H46.63V65.33L46.57,54.2V53.69h0.5l13.24,0.06c4.42,0,8.83.11,13.24,0.16h0.28v0.27c0,1.89-.09,3.78-0.14,5.65Zm0,0-0.14-5.65c0-1.86-.11-3.7-0.13-5.53l0.27,0.27c-4.41,0-8.82.16-13.24,0.16l-13.24.06,0.5-.49V65.38l-0.45-.44h6.55l6.58,0.12Z" transform="translate(-45.17 -53.68)"/><rect class="cls-2" x="169.82" y="254.7" width="12.87" height="171.16" transform="translate(-235.15 399.43) rotate(-79.74)"/><polygon class="cls-3" points="58.14 266.87 46.2 275.14 48.03 265.04 58.14 266.87"/><polygon class="cls-3" points="77.3 270.33 62.35 280.7 52.11 278.85 67.06 268.48 77.3 270.33"/><polygon class="cls-3" points="96.46 273.8 81.5 284.17 71.26 282.32 86.23 271.95 96.46 273.8"/><polygon class="cls-3" points="115.62 277.27 100.67 287.64 90.43 285.79 105.38 275.42 115.62 277.27"/><polygon class="cls-3" points="134.78 280.74 119.82 291.11 109.58 289.26 124.54 278.89 134.78 280.74"/><polygon class="cls-3" points="153.94 284.21 138.98 294.58 128.75 292.73 143.7 282.36 153.94 284.21"/><polygon class="cls-3" points="173.1 287.68 158.14 298.05 147.91 296.2 162.86 285.82 173.1 287.68"/><polygon class="cls-3" points="192.25 291.15 177.3 301.52 167.07 299.67 182.02 289.3 192.25 291.15"/><polygon class="cls-3" points="211.42 294.62 196.46 304.99 186.23 303.13 201.18 292.76 211.42 294.62"/><polygon class="cls-3" points="215.75 299.41 214.16 308.19 205.38 306.6 215.75 299.41"/><rect class="cls-2" x="90.7" y="333.86" width="171.16" height="12.87" transform="translate(-82.17 -31.8) rotate(-6.43)"/><path class="cls-3" d="M94.64,349.08a0.69,0.69,0,0,1,0,.32,0.78,0.78,0,0,1-.16.28,0.72,0.72,0,0,1-.25.21,0.77,0.77,0,0,1-.3.11,0.55,0.55,0,0,1-.41-0.13,0.61,0.61,0,0,1-.19-0.39,0.71,0.71,0,0,1,0-.32,0.78,0.78,0,0,1,.16-0.28,0.91,0.91,0,0,1,.24-0.2,0.71,0.71,0,0,1,.3-0.1,0.53,0.53,0,0,1,.41.11A0.62,0.62,0,0,1,94.64,349.08Z" transform="translate(-45.17 -53.68)"/><path class="cls-3" d="M98.66,346.46l1.6-.18a2.19,2.19,0,0,1,.78,0,1.62,1.62,0,0,1,.58.31,1.53,1.53,0,0,1,.37.52,1.85,1.85,0,0,1,.18.67,3,3,0,0,1-.07,1.12,2.72,2.72,0,0,1-.47.93,2.5,2.5,0,0,1-.78.66,2.77,2.77,0,0,1-1,.33l-1.61.18Zm1.24,3.48a1.3,1.3,0,0,0,.56-0.2,1.34,1.34,0,0,0,.4-0.42,1.59,1.59,0,0,0,.23-0.57,2.35,2.35,0,0,0,0-.65,1.15,1.15,0,0,0-.29-0.69,0.77,0.77,0,0,0-.66-0.2l-0.57.07L99.34,350Z" transform="translate(-45.17 -53.68)"/><path class="cls-3" d="M104.46,350.38a1.63,1.63,0,0,1-.74-0.07,1.58,1.58,0,0,1-.58-0.36,1.87,1.87,0,0,1-.39-0.56,2.36,2.36,0,0,1-.19-0.69,2.22,2.22,0,0,1,0-.68,3.89,3.89,0,0,1,.21-0.66,2.78,2.78,0,0,1,.37-0.59,2.9,2.9,0,0,1,.49-0.5,3.37,3.37,0,0,1,.61-0.36,2.55,2.55,0,0,1,.67-0.18,1.63,1.63,0,0,1,.74.08,1.65,1.65,0,0,1,.57.35,1.92,1.92,0,0,1,.39.57,2.36,2.36,0,0,1,.19.69,2.29,2.29,0,0,1-.11,1,2.81,2.81,0,0,1-.49.92,2.76,2.76,0,0,1-.78.7A2.3,2.3,0,0,1,104.46,350.38Zm0.1-.94a1.2,1.2,0,0,0,.57-0.22,1.67,1.67,0,0,0,.39-0.45,2.32,2.32,0,0,0,.22-0.57,2.05,2.05,0,0,0,0-.6,1.51,1.51,0,0,0-.1-0.38,1.05,1.05,0,0,0-.18-0.31,0.7,0.7,0,0,0-.29-0.19,0.68,0.68,0,0,0-.38,0,1,1,0,0,0-.56.22,1.4,1.4,0,0,0-.4.44,1.78,1.78,0,0,0-.22.57,2,2,0,0,0,0,.59,1.59,1.59,0,0,0,.09.39,1.08,1.08,0,0,0,.19.31,0.88,0.88,0,0,0,.29.2A0.91,0.91,0,0,0,104.56,349.44Z" transform="translate(-45.17 -53.68)"/><path class="cls-3" d="M109.11,345.29l0.81-.1,1.64,2.48,0.25-2.69,1-.12-0.45,4.59-0.82.09L110,347.13l-0.25,2.62-1,.12Z" transform="translate(-45.17 -53.68)"/><path class="cls-3" d="M115.12,349.18a1.63,1.63,0,0,1-.74-0.07,1.5,1.5,0,0,1-.58-0.36,1.87,1.87,0,0,1-.39-0.56,2.36,2.36,0,0,1-.19-0.69,2.21,2.21,0,0,1,0-.68,3.63,3.63,0,0,1,.21-0.66,2.78,2.78,0,0,1,.37-0.59,2.58,2.58,0,0,1,.49-0.5,3.37,3.37,0,0,1,.61-0.36,2.55,2.55,0,0,1,.67-0.18,1.63,1.63,0,0,1,.74.08,1.65,1.65,0,0,1,.57.35,1.92,1.92,0,0,1,.39.57,2.28,2.28,0,0,1,.08,1.69,2.91,2.91,0,0,1-.49.92,3.06,3.06,0,0,1-.78.7A2.3,2.3,0,0,1,115.12,349.18Zm0.1-.94a1.11,1.11,0,0,0,.57-0.23,1.41,1.41,0,0,0,.39-0.45,1.64,1.64,0,0,0,.22-1.16,1.51,1.51,0,0,0-.1-0.38,1.05,1.05,0,0,0-.18-0.31,0.84,0.84,0,0,0-.29-0.2,0.93,0.93,0,0,0-.38,0,1.28,1.28,0,0,0-.57.22,1.67,1.67,0,0,0-.39.45,1.78,1.78,0,0,0-.22.57,2,2,0,0,0,0,.59,1.59,1.59,0,0,0,.09.39,1.08,1.08,0,0,0,.19.31,0.73,0.73,0,0,0,.29.19A0.77,0.77,0,0,0,115.22,348.24Z" transform="translate(-45.17 -53.68)"/><path class="cls-3" d="M118.77,345.12l-1.28.14,0.09-.93,3.58-.4-0.08.93-1.28.14-0.36,3.66-1,.11Z" transform="translate(-45.17 -53.68)"/><path class="cls-3" d="M124.43,348.13a1.41,1.41,0,0,1-.72-0.08,1.69,1.69,0,0,1-.58-0.37,1.92,1.92,0,0,1-.39-0.57,2.42,2.42,0,0,1-.19-0.7,2.22,2.22,0,0,1,0-.63,2.94,2.94,0,0,1,.19-0.64,2.7,2.7,0,0,1,.35-0.59,2.9,2.9,0,0,1,.48-0.51,3.42,3.42,0,0,1,.61-0.37,2.39,2.39,0,0,1,.72-0.19,1.68,1.68,0,0,1,1,.16,1.29,1.29,0,0,1,.59.65l-0.85.66a0.67,0.67,0,0,0-.14-0.28,0.69,0.69,0,0,0-.22-0.17,0.73,0.73,0,0,0-.25-0.08h-0.27a1.09,1.09,0,0,0-.57.22,1.49,1.49,0,0,0-.39.44,2,2,0,0,0-.21.57,1.59,1.59,0,0,0,0,.57,1.37,1.37,0,0,0,.09.4,1.1,1.1,0,0,0,.2.31,0.72,0.72,0,0,0,.29.2,0.74,0.74,0,0,0,.37,0,1,1,0,0,0,.27-0.07,1.16,1.16,0,0,0,.27-0.14,1.27,1.27,0,0,0,.25-0.22,1.08,1.08,0,0,0,.19-0.31l0.8,0.41a1.76,1.76,0,0,1-.33.49,2.17,2.17,0,0,1-.48.38,2.73,2.73,0,0,1-.54.27A2.3,2.3,0,0,1,124.43,348.13Z" transform="translate(-45.17 -53.68)"/><path class="cls-3" d="M126.75,347.83l0.45-4.58,1.92-.22a1.12,1.12,0,0,1,.49,0,1.05,1.05,0,0,1,.37.25,1.31,1.31,0,0,1,.27.38,1.43,1.43,0,0,1,.13.46,1.78,1.78,0,0,1,0,.46,2.51,2.51,0,0,1-.16.46,2.19,2.19,0,0,1-.26.41,1.65,1.65,0,0,1-.37.33l0.77,1.6-1.17.13-0.66-1.39-0.58.07-0.14,1.47Zm2.13-2.61a0.38,0.38,0,0,0,.18-0.09,0.45,0.45,0,0,0,.15-0.18,0.67,0.67,0,0,0,.1-0.26,1,1,0,0,0,0-.3,0.58,0.58,0,0,0-.12-0.32A0.26,0.26,0,0,0,129,344l-0.83.09L128,345.31Z" transform="translate(-45.17 -53.68)"/><path class="cls-3" d="M132.7,347.2a1.63,1.63,0,0,1-.74-0.07,1.5,1.5,0,0,1-.58-0.36,2,2,0,0,1-.39-0.56,2.36,2.36,0,0,1-.19-0.69,2.21,2.21,0,0,1,0-.68,3.63,3.63,0,0,1,.21-0.66,2.78,2.78,0,0,1,.37-0.59,2.58,2.58,0,0,1,.49-0.5,2.88,2.88,0,0,1,.61-0.36,2.55,2.55,0,0,1,.67-0.18,1.5,1.5,0,0,1,.74.08,1.65,1.65,0,0,1,.57.35,1.92,1.92,0,0,1,.39.57,2.22,2.22,0,0,1,.19.68,2.32,2.32,0,0,1-.11,1,2.91,2.91,0,0,1-.49.92,3.06,3.06,0,0,1-.78.7A2.3,2.3,0,0,1,132.7,347.2Zm0.1-.94a1.11,1.11,0,0,0,.57-0.23,1.41,1.41,0,0,0,.39-0.45,1.56,1.56,0,0,0,.24-1.17,1.41,1.41,0,0,0-.1-0.38,1.05,1.05,0,0,0-.18-0.31,0.84,0.84,0,0,0-.29-0.2,0.93,0.93,0,0,0-.38,0,1.28,1.28,0,0,0-.57.22,1.53,1.53,0,0,0-.39.45,1.82,1.82,0,0,0-.22.56,2,2,0,0,0,0,.6,1.51,1.51,0,0,0,.09.38,1.13,1.13,0,0,0,.19.32,0.73,0.73,0,0,0,.29.19A0.77,0.77,0,0,0,132.8,346.26Z" transform="translate(-45.17 -53.68)"/><path class="cls-3" d="M137,346.73a3.28,3.28,0,0,1-.94,0,2.36,2.36,0,0,1-.83-0.32l0.54-1a0.49,0.49,0,0,0,.14.11,1.4,1.4,0,0,0,.3.14,2.1,2.1,0,0,0,.42.12,1.55,1.55,0,0,0,.48,0,0.63,0.63,0,0,0,.42-0.16,0.39,0.39,0,0,0,.09-0.3,0.26,0.26,0,0,0-.09-0.17,0.68,0.68,0,0,0-.21-0.11,1.71,1.71,0,0,0-.32,0l-0.36-.08a1.73,1.73,0,0,1-.72-0.31,0.79,0.79,0,0,1-.29-0.57,1.53,1.53,0,0,1,.08-0.74,1.64,1.64,0,0,1,.37-0.59,2,2,0,0,1,.58-0.4,2.35,2.35,0,0,1,.7-0.2,2.16,2.16,0,0,1,.44,0,1.76,1.76,0,0,1,.4.07,1.9,1.9,0,0,1,.36.12l0.3,0.14-0.54.93a0.16,0.16,0,0,1-.11-0.08l-0.25-.12-0.35-.1a1.6,1.6,0,0,0-.38,0,0.67,0.67,0,0,0-.4.16,0.42,0.42,0,0,0-.11.34,0.31,0.31,0,0,0,.23.26,5.09,5.09,0,0,1,.58.14,3,3,0,0,1,.45.12,1.16,1.16,0,0,1,.37.18,0.81,0.81,0,0,1,.25.27,1.05,1.05,0,0,1,.12.39,1.51,1.51,0,0,1-.08.78,1.49,1.49,0,0,1-.39.56,1.79,1.79,0,0,1-.6.35A2.71,2.71,0,0,1,137,346.73Z" transform="translate(-45.17 -53.68)"/><path class="cls-3" d="M140.72,346.31a3.28,3.28,0,0,1-.94,0A2.36,2.36,0,0,1,139,346l0.54-1a0.49,0.49,0,0,0,.14.11,1.4,1.4,0,0,0,.3.14,2.1,2.1,0,0,0,.42.12,1.53,1.53,0,0,0,.48,0,0.58,0.58,0,0,0,.41-0.16,0.36,0.36,0,0,0,.1-0.3,0.26,0.26,0,0,0-.09-0.17,0.68,0.68,0,0,0-.21-0.11l-0.29-.08-0.36-.08a1.87,1.87,0,0,1-.72-0.31,0.76,0.76,0,0,1-.29-0.57,1.52,1.52,0,0,1,.08-0.74,1.64,1.64,0,0,1,.37-0.59,1.87,1.87,0,0,1,.58-0.4,2.35,2.35,0,0,1,.7-0.2,2.16,2.16,0,0,1,.44,0,1.76,1.76,0,0,1,.4.07,1.9,1.9,0,0,1,.36.12l0.3,0.14-0.54.93-0.11-.08-0.26-.12-0.34-.1a1.2,1.2,0,0,0-.38,0,0.67,0.67,0,0,0-.4.16,0.41,0.41,0,0,0-.11.34,0.31,0.31,0,0,0,.23.26,5.09,5.09,0,0,1,.58.14,3,3,0,0,1,.45.12,1.16,1.16,0,0,1,.37.18,0.81,0.81,0,0,1,.25.27,1.05,1.05,0,0,1,.12.39,1.62,1.62,0,0,1-.08.78,1.49,1.49,0,0,1-.39.56,1.89,1.89,0,0,1-.6.35A2.71,2.71,0,0,1,140.72,346.31Z" transform="translate(-45.17 -53.68)"/><path class="cls-3" d="M146,343.29a0.85,0.85,0,0,1,0,.32,1,1,0,0,1-.16.29,1.27,1.27,0,0,1-.25.21,0.88,0.88,0,0,1-.3.1,0.49,0.49,0,0,1-.41-0.12,0.62,0.62,0,0,1-.2-0.39,0.69,0.69,0,0,1,0-.32,0.85,0.85,0,0,1,.16-0.28,0.72,0.72,0,0,1,.25-0.21,0.63,0.63,0,0,1,.3-0.1,0.49,0.49,0,0,1,.41.12A0.58,0.58,0,0,1,146,343.29Z" transform="translate(-45.17 -53.68)"/><path class="cls-3" d="M150,340.68l1.6-.18a1.81,1.81,0,0,1,.78,0,1.41,1.41,0,0,1,.58.31,1.37,1.37,0,0,1,.37.51,2.15,2.15,0,0,1,.19.67,3.18,3.18,0,0,1-.08,1.12,2.55,2.55,0,0,1-.47.93,2.67,2.67,0,0,1-.78.67,2.7,2.7,0,0,1-1,.32l-1.6.18Zm1.24,3.47a1.18,1.18,0,0,0,.56-0.2,1.49,1.49,0,0,0,.41-0.42,1.78,1.78,0,0,0,.22-0.57,1.72,1.72,0,0,0,0-.64,1.1,1.1,0,0,0-.29-0.69,0.74,0.74,0,0,0-.66-0.2l-0.57.06-0.26,2.73Z" transform="translate(-45.17 -53.68)"/><path class="cls-3" d="M155.84,344.59a1.63,1.63,0,0,1-.74-0.07,1.58,1.58,0,0,1-.58-0.36,1.76,1.76,0,0,1-.39-0.56,2.36,2.36,0,0,1-.19-0.69,2.22,2.22,0,0,1,0-.68,3.89,3.89,0,0,1,.21-0.66,2.78,2.78,0,0,1,.37-0.59,2.9,2.9,0,0,1,.49-0.5,3.37,3.37,0,0,1,.61-0.36,2.55,2.55,0,0,1,.67-0.18,1.63,1.63,0,0,1,.74.08,1.65,1.65,0,0,1,.57.35,1.92,1.92,0,0,1,.39.57,2.36,2.36,0,0,1,.19.69,2.29,2.29,0,0,1-.11,1,2.81,2.81,0,0,1-.49.92,2.76,2.76,0,0,1-.78.7A2.3,2.3,0,0,1,155.84,344.59Zm0.1-.94a1.2,1.2,0,0,0,.57-0.22,1.67,1.67,0,0,0,.39-0.45,2.32,2.32,0,0,0,.22-0.57,2,2,0,0,0,0-.6,1.64,1.64,0,0,0-.1-0.38,1.05,1.05,0,0,0-.18-0.31,0.7,0.7,0,0,0-.29-0.19,0.68,0.68,0,0,0-.38,0,1,1,0,0,0-.56.22,1.4,1.4,0,0,0-.4.44,1.78,1.78,0,0,0-.22.57,2,2,0,0,0,0,.59,1.59,1.59,0,0,0,.09.39,1.08,1.08,0,0,0,.19.31,0.88,0.88,0,0,0,.29.2A0.78,0.78,0,0,0,155.94,343.65Z" transform="translate(-45.17 -53.68)"/><path class="cls-3" d="M160.48,339.5l0.81-.09,1.63,2.47,0.26-2.69,1-.11-0.45,4.58-0.82.09-1.63-2.41L161,344l-1,.12Z" transform="translate(-45.17 -53.68)"/><path class="cls-3" d="M166.5,343.39a1.66,1.66,0,0,1-.75-0.07,1.54,1.54,0,0,1-.57-0.36,1.63,1.63,0,0,1-.4-0.56,2.72,2.72,0,0,1-.19-0.69,2.59,2.59,0,0,1,0-.68,2.67,2.67,0,0,1,.21-0.66,3.21,3.21,0,0,1,.36-0.59,3,3,0,0,1,.5-0.5,3.67,3.67,0,0,1,.6-0.36,2.62,2.62,0,0,1,.68-0.18,1.59,1.59,0,0,1,.73.08,1.61,1.61,0,0,1,.58.35,1.92,1.92,0,0,1,.39.57,2.36,2.36,0,0,1,.19.69,2.45,2.45,0,0,1-.11,1,2.81,2.81,0,0,1-.49.92,3.06,3.06,0,0,1-.78.7A2.3,2.3,0,0,1,166.5,343.39Zm0.09-.94a1.2,1.2,0,0,0,.57-0.22,1.9,1.9,0,0,0,.4-0.45,2,2,0,0,0,.21-0.57,1.76,1.76,0,0,0,0-.6,1.24,1.24,0,0,0-.09-0.38,1.08,1.08,0,0,0-.19-0.31,0.67,0.67,0,0,0-.28-0.19,0.68,0.68,0,0,0-.38,0,1,1,0,0,0-.57.22,1.68,1.68,0,0,0-.4.44,1.77,1.77,0,0,0-.21.57,1.7,1.7,0,0,0,0,.59,1.59,1.59,0,0,0,.1.39,1.08,1.08,0,0,0,.19.31,1,1,0,0,0,.28.2A0.78,0.78,0,0,0,166.59,342.45Z" transform="translate(-45.17 -53.68)"/><path class="cls-3" d="M170.16,339.33l-1.28.14,0.09-.93,3.59-.4-0.09.93-1.27.14-0.36,3.65-1,.12Z" transform="translate(-45.17 -53.68)"/><path class="cls-3" d="M175.81,342.34a1.46,1.46,0,0,1-.73-0.08,1.75,1.75,0,0,1-.57-0.37,1.92,1.92,0,0,1-.39-0.57,2.42,2.42,0,0,1-.19-0.7,2.22,2.22,0,0,1,0-.63,2.94,2.94,0,0,1,.19-0.64,2.36,2.36,0,0,1,.35-0.59,2.9,2.9,0,0,1,.48-0.51,3.1,3.1,0,0,1,.61-0.37,2.39,2.39,0,0,1,.72-0.19,1.68,1.68,0,0,1,1,.16,1.29,1.29,0,0,1,.59.65l-0.85.66a0.81,0.81,0,0,0-.14-0.28,0.69,0.69,0,0,0-.22-0.17,0.79,0.79,0,0,0-.26-0.08h-0.26a1,1,0,0,0-.57.22,1.49,1.49,0,0,0-.39.44,2,2,0,0,0-.21.57,1.6,1.6,0,0,0,0,.57,1.8,1.8,0,0,0,.1.4,1.1,1.1,0,0,0,.2.31,0.72,0.72,0,0,0,.29.2,0.74,0.74,0,0,0,.37,0,1.08,1.08,0,0,0,.27-0.07,1.16,1.16,0,0,0,.27-0.14,1.27,1.27,0,0,0,.25-0.22,1,1,0,0,0,.19-0.31l0.8,0.42a2.18,2.18,0,0,1-.81.86,2.73,2.73,0,0,1-.54.27A2.3,2.3,0,0,1,175.81,342.34Z" transform="translate(-45.17 -53.68)"/><path class="cls-3" d="M178.11,342l0.45-4.58,1.92-.22a0.94,0.94,0,0,1,.48.06,1,1,0,0,1,.38.24,1.46,1.46,0,0,1,.27.38,1.49,1.49,0,0,1,.12.46,1.25,1.25,0,0,1,0,.47,1.83,1.83,0,0,1-.15.45,1.62,1.62,0,0,1-.27.41,1.42,1.42,0,0,1-.36.33l0.76,1.6-1.16.13-0.66-1.39-0.58.07-0.14,1.48Zm2.13-2.61a0.48,0.48,0,0,0,.18-0.08,0.58,0.58,0,0,0,.15-0.19,0.93,0.93,0,0,0,.1-0.25,1,1,0,0,0,0-.3,0.62,0.62,0,0,0-.12-0.33,0.26,0.26,0,0,0-.23-0.1l-0.83.09-0.12,1.26Z" transform="translate(-45.17 -53.68)"/><path class="cls-3" d="M184.1,341.41a1.78,1.78,0,0,1-.74-0.07,1.66,1.66,0,0,1-.58-0.36,2,2,0,0,1-.39-0.56,2.36,2.36,0,0,1-.19-0.69,2.21,2.21,0,0,1,0-.68,2.54,2.54,0,0,1,.21-0.66,3.08,3.08,0,0,1,.36-0.6,2.9,2.9,0,0,1,.5-0.49,2.28,2.28,0,0,1,.6-0.36,2,2,0,0,1,.67-0.18,1.63,1.63,0,0,1,.74.07,1.68,1.68,0,0,1,.57.36,1.87,1.87,0,0,1,.39.56,2.09,2.09,0,0,1,.19.69,2.49,2.49,0,0,1-.1,1,3.13,3.13,0,0,1-.49.92,3.06,3.06,0,0,1-.78.7A2.48,2.48,0,0,1,184.1,341.41Zm0.1-1a1,1,0,0,0,.57-0.22,1.41,1.41,0,0,0,.39-0.45,1.78,1.78,0,0,0,.22-0.57,2,2,0,0,0,0-.59,1.59,1.59,0,0,0-.09-0.39,1,1,0,0,0-.19-0.3,0.69,0.69,0,0,0-.28-0.2,1,1,0,0,0-.39,0,1.2,1.2,0,0,0-.56.22,1.44,1.44,0,0,0-.4.45,2.11,2.11,0,0,0-.22.56,2,2,0,0,0,0,.59,1.59,1.59,0,0,0,.1.39,0.94,0.94,0,0,0,.18.31,0.72,0.72,0,0,0,.29.2,0.68,0.68,0,0,0,.38,0v0Z" transform="translate(-45.17 -53.68)"/><path class="cls-3" d="M188.36,340.94a3,3,0,0,1-.94,0,2.36,2.36,0,0,1-.83-0.32l0.54-1a0.49,0.49,0,0,0,.14.11,1.4,1.4,0,0,0,.3.14,2.1,2.1,0,0,0,.42.12,1.55,1.55,0,0,0,.48,0,0.63,0.63,0,0,0,.42-0.16,0.39,0.39,0,0,0,.09-0.3,0.26,0.26,0,0,0-.09-0.17,0.68,0.68,0,0,0-.21-0.11l-0.29-.08-0.36-.08a1.86,1.86,0,0,1-.72-0.31,0.79,0.79,0,0,1-.29-0.56,1.69,1.69,0,0,1,.08-0.75,1.9,1.9,0,0,1,.37-0.59,2.21,2.21,0,0,1,.58-0.4,2.35,2.35,0,0,1,.7-0.2h0.44a2.38,2.38,0,0,1,.4.07,1.9,1.9,0,0,1,.36.12l0.3,0.14-0.54.93-0.11-.08-0.25-.12a1.79,1.79,0,0,0-.35-0.09,1.15,1.15,0,0,0-.37,0,0.64,0.64,0,0,0-.4.16,0.42,0.42,0,0,0-.12.34,0.31,0.31,0,0,0,.23.26,5.09,5.09,0,0,1,.58.14,3.09,3.09,0,0,1,.46.12,1.11,1.11,0,0,1,.36.18,0.81,0.81,0,0,1,.25.27,1.12,1.12,0,0,1,.12.39,1.51,1.51,0,0,1-.08.78,1.49,1.49,0,0,1-.39.56,1.79,1.79,0,0,1-.6.35A2.34,2.34,0,0,1,188.36,340.94Z" transform="translate(-45.17 -53.68)"/><path class="cls-3" d="M192.11,340.52a3.31,3.31,0,0,1-.94,0,2.45,2.45,0,0,1-.83-0.33l0.55-1a0.39,0.39,0,0,0,.13.11,1.29,1.29,0,0,0,.31.14,2.22,2.22,0,0,0,.41.11,1.55,1.55,0,0,0,.48,0,0.66,0.66,0,0,0,.42-0.16,0.32,0.32,0,0,0,.09-0.3,0.2,0.2,0,0,0-.09-0.17,0.75,0.75,0,0,0-.2-0.11l-0.3-.08-0.36-.08a2,2,0,0,1-.72-0.31,0.83,0.83,0,0,1-.29-0.57,1.64,1.64,0,0,1,.08-0.74,1.66,1.66,0,0,1,.38-0.59,2,2,0,0,1,.57-0.4,2.23,2.23,0,0,1,.7-0.2,1.62,1.62,0,0,1,.44,0,1.85,1.85,0,0,1,.41.07,2.06,2.06,0,0,1,.35.12l0.3,0.14-0.53.93a0.26,0.26,0,0,0-.12-0.08l-0.25-.12-0.34-.1a1.21,1.21,0,0,0-.38,0,0.64,0.64,0,0,0-.4.16,0.38,0.38,0,0,0-.11.34,0.29,0.29,0,0,0,.22.25,4.27,4.27,0,0,0,.58.15l0.46,0.11a1.51,1.51,0,0,1,.36.18,0.91,0.91,0,0,1,.25.27,0.94,0.94,0,0,1,.13.4,1.62,1.62,0,0,1-.09.78,1.49,1.49,0,0,1-.39.56,1.85,1.85,0,0,1-.59.35A2.79,2.79,0,0,1,192.11,340.52Z" transform="translate(-45.17 -53.68)"/><path class="cls-3" d="M197.38,337.5a0.58,0.58,0,0,1,0,.32,0.83,0.83,0,0,1-.16.29,1,1,0,0,1-.25.21,0.88,0.88,0,0,1-.3.1,0.47,0.47,0,0,1-.41-0.13,0.61,0.61,0,0,1-.19-0.39,0.89,0.89,0,0,1,0-.32,1.56,1.56,0,0,1,.16-0.28,1,1,0,0,1,.25-0.2,0.63,0.63,0,0,1,.3-0.1,0.49,0.49,0,0,1,.41.12A0.52,0.52,0,0,1,197.38,337.5Z" transform="translate(-45.17 -53.68)"/><path class="cls-3" d="M201.41,334.89l1.6-.18a1.81,1.81,0,0,1,.78,0,1.42,1.42,0,0,1,.57.3,1.52,1.52,0,0,1,.38.52,2.45,2.45,0,0,1,.18.67,2.77,2.77,0,0,1-.08,1.12,2.54,2.54,0,0,1-.46.93,2.67,2.67,0,0,1-.78.67,2.75,2.75,0,0,1-1,.32l-1.6.18Zm1.24,3.47a1.18,1.18,0,0,0,.56-0.2,1.46,1.46,0,0,0,.4-0.42,1.8,1.8,0,0,0,.23-0.57,2.33,2.33,0,0,0,0-.65,1.1,1.1,0,0,0-.3-0.68,0.7,0.7,0,0,0-.65-0.2l-0.57.06L202,338.42Z" transform="translate(-45.17 -53.68)"/><path class="cls-3" d="M207.19,338.81a1.63,1.63,0,0,1-.74-0.08,1.52,1.52,0,0,1-.57-0.35,1.78,1.78,0,0,1-.4-0.57,2.2,2.2,0,0,1-.19-0.69,2.55,2.55,0,0,1,.24-1.33,3.67,3.67,0,0,1,.36-0.6,2.9,2.9,0,0,1,.5-0.49,2.65,2.65,0,0,1,.6-0.36,2,2,0,0,1,.68-0.18,1.59,1.59,0,0,1,.73.07,1.5,1.5,0,0,1,.58.36,1.87,1.87,0,0,1,.39.56,2.72,2.72,0,0,1,.19.69,2.5,2.5,0,0,1-.11,1,3,3,0,0,1-.49.92,3.06,3.06,0,0,1-.78.7A2.43,2.43,0,0,1,207.19,338.81Zm0.1-1a1.1,1.1,0,0,0,.57-0.22,1.41,1.41,0,0,0,.39-0.45,1.73,1.73,0,0,0,.22-0.57,2,2,0,0,0,0-.59,1.24,1.24,0,0,0-.09-0.39,1.08,1.08,0,0,0-.19-0.31,0.77,0.77,0,0,0-.28-0.19,0.78,0.78,0,0,0-.38,0,1.2,1.2,0,0,0-.57.22,1.53,1.53,0,0,0-.4.44,2,2,0,0,0-.21.57,1.71,1.71,0,0,0,0,.59,1.59,1.59,0,0,0,.1.39,1,1,0,0,0,.19.31,0.63,0.63,0,0,0,.28.2,0.68,0.68,0,0,0,.37,0h0Z" transform="translate(-45.17 -53.68)"/><path class="cls-3" d="M211.85,333.71l0.81-.09,1.64,2.47,0.26-2.69,1-.11-0.44,4.58-0.82.09-1.64-2.41-0.25,2.63-1,.11Z" transform="translate(-45.17 -53.68)"/><path class="cls-3" d="M217.88,337.6a1.63,1.63,0,0,1-.74-0.07,1.58,1.58,0,0,1-.58-0.36,1.87,1.87,0,0,1-.39-0.56,2.36,2.36,0,0,1-.19-0.69,2,2,0,0,1,0-.68,2.54,2.54,0,0,1,.21-0.66,2.39,2.39,0,0,1,.36-0.59,2.63,2.63,0,0,1,.5-0.5,3,3,0,0,1,.6-0.36,2.55,2.55,0,0,1,.67-0.18,1.63,1.63,0,0,1,.74.08,1.65,1.65,0,0,1,.57.35,1.92,1.92,0,0,1,.39.57,2.38,2.38,0,0,1,.19.68,2.32,2.32,0,0,1-.11,1,2.63,2.63,0,0,1-.49.92,2.76,2.76,0,0,1-.78.7A2.3,2.3,0,0,1,217.88,337.6Zm0.1-.94a1.11,1.11,0,0,0,.57-0.23,1.41,1.41,0,0,0,.39-0.45,1.64,1.64,0,0,0,.22-1.16,2.11,2.11,0,0,0-.09-0.38,1.35,1.35,0,0,0-.19-0.31,0.7,0.7,0,0,0-.29-0.19,0.68,0.68,0,0,0-.38,0,1,1,0,0,0-.56.22,1.4,1.4,0,0,0-.4.44,1.64,1.64,0,0,0-.22,1.16,2.23,2.23,0,0,0,.09.39,1.08,1.08,0,0,0,.19.31,0.81,0.81,0,0,0,.29.19,0.78,0.78,0,0,0,.4,0h0Z" transform="translate(-45.17 -53.68)"/><path class="cls-3" d="M221.53,333.54l-1.28.14,0.09-.93,3.59-.4-0.09.93-1.27.14-0.36,3.66-1,.11Z" transform="translate(-45.17 -53.68)"/><path class="cls-3" d="M227.2,336.55a1.59,1.59,0,0,1-.73-0.08,1.56,1.56,0,0,1-.57-0.37,1.92,1.92,0,0,1-.39-0.57,2.14,2.14,0,0,1-.19-0.7,2,2,0,0,1,0-.64,2.52,2.52,0,0,1,.19-0.63,2.66,2.66,0,0,1,.34-0.59,3,3,0,0,1,.49-0.51,3.1,3.1,0,0,1,.61-0.37,2.39,2.39,0,0,1,.72-0.19,1.68,1.68,0,0,1,1,.16,1.33,1.33,0,0,1,.59.65l-0.85.66a1,1,0,0,0-.15-0.29,0.65,0.65,0,0,0-.21-0.16,0.79,0.79,0,0,0-.26-0.08h-0.26a1.2,1.2,0,0,0-.57.22,1.67,1.67,0,0,0-.39.45,1.84,1.84,0,0,0-.25,1.14,1.59,1.59,0,0,0,.1.39,1,1,0,0,0,.2.32,0.69,0.69,0,0,0,.28.2,0.78,0.78,0,0,0,.37,0,1.34,1.34,0,0,0,.27-0.07,0.87,0.87,0,0,0,.27-0.14,1,1,0,0,0,.25-0.22,1.1,1.1,0,0,0,.2-0.31l0.8,0.41a2,2,0,0,1-.34.49,2.12,2.12,0,0,1-.47.38,2.73,2.73,0,0,1-.54.27A2.42,2.42,0,0,1,227.2,336.55Z" transform="translate(-45.17 -53.68)"/><path class="cls-3" d="M229.51,336.25l0.45-4.58,1.92-.22a1.07,1.07,0,0,1,.86.3,1.12,1.12,0,0,1,.26.38,1.22,1.22,0,0,1,.13.46,1.5,1.5,0,0,1,0,.47,2,2,0,0,1-.15.45,1.82,1.82,0,0,1-.27.41,1.61,1.61,0,0,1-.36.33l0.76,1.6-1.16.13-0.66-1.39-0.59.07-0.14,1.48Zm2.13-2.61a0.48,0.48,0,0,0,.18-0.08,0.58,0.58,0,0,0,.15-0.19,1.45,1.45,0,0,0,.1-0.25,1.06,1.06,0,0,0,0-.31,0.62,0.62,0,0,0-.13-0.32,0.23,0.23,0,0,0-.22-0.1l-0.83.09-0.12,1.25Z" transform="translate(-45.17 -53.68)"/><path class="cls-3" d="M235.46,335.62a1.63,1.63,0,0,1-.74-0.07,1.66,1.66,0,0,1-.58-0.36,1.87,1.87,0,0,1-.39-0.56,2.36,2.36,0,0,1-.19-0.69,2.21,2.21,0,0,1,0-.68,2.54,2.54,0,0,1,.21-0.66,2.74,2.74,0,0,1,.36-0.59,2.63,2.63,0,0,1,.5-0.5,2.58,2.58,0,0,1,.6-0.36,2.55,2.55,0,0,1,.67-0.18,1.63,1.63,0,0,1,.74.08,1.65,1.65,0,0,1,.57.35,1.92,1.92,0,0,1,.39.57,2,2,0,0,1,.19.68,2.47,2.47,0,0,1-.1,1,3.13,3.13,0,0,1-.49.92,3.06,3.06,0,0,1-.78.7A2.34,2.34,0,0,1,235.46,335.62Zm0.1-.94a1.11,1.11,0,0,0,.57-0.23,1.41,1.41,0,0,0,.39-0.45,1.78,1.78,0,0,0,.22-0.57,2,2,0,0,0,0-.59,1.51,1.51,0,0,0-.09-0.38,1.08,1.08,0,0,0-.19-0.31,0.75,0.75,0,0,0-.29-0.2,0.91,0.91,0,0,0-.38,0,1.2,1.2,0,0,0-.56.22,1.43,1.43,0,0,0-.4.45,1.64,1.64,0,0,0-.22,1.16,1.72,1.72,0,0,0,.1.39,1.05,1.05,0,0,0,.18.31,0.81,0.81,0,0,0,.29.19,0.78,0.78,0,0,0,.38,0h0Z" transform="translate(-45.17 -53.68)"/><path class="cls-3" d="M239.74,335.15a3,3,0,0,1-1,0,2.31,2.31,0,0,1-.82-0.32l0.54-1a0.39,0.39,0,0,0,.13.11,1.29,1.29,0,0,0,.31.14,2.1,2.1,0,0,0,.42.12,1.53,1.53,0,0,0,.48,0,0.58,0.58,0,0,0,.41-0.16,0.36,0.36,0,0,0,.1-0.3,0.26,0.26,0,0,0-.09-0.17,0.82,0.82,0,0,0-.21-0.11l-0.3-.08-0.35-.08a1.84,1.84,0,0,1-.73-0.31,0.83,0.83,0,0,1-.29-0.56,1.56,1.56,0,0,1,.09-0.75,1.73,1.73,0,0,1,.37-0.59,2.16,2.16,0,0,1,.57-0.4,2.53,2.53,0,0,1,.7-0.2h0.44a2.5,2.5,0,0,1,.41.07,1.8,1.8,0,0,1,.35.12l0.3,0.14-0.53.93-0.12-.08-0.25-.12a1.53,1.53,0,0,0-.34-0.09,1.22,1.22,0,0,0-.38,0,0.64,0.64,0,0,0-.4.16,0.39,0.39,0,0,0-.11.34,0.29,0.29,0,0,0,.23.26l0.57,0.14a2.8,2.8,0,0,1,.46.12,1.16,1.16,0,0,1,.37.18,0.93,0.93,0,0,1,.25.27,1.12,1.12,0,0,1,.12.39,1.62,1.62,0,0,1-.09.78,1.49,1.49,0,0,1-.39.56,1.85,1.85,0,0,1-.59.35A2.34,2.34,0,0,1,239.74,335.15Z" transform="translate(-45.17 -53.68)"/><path class="cls-3" d="M243.47,334.73a3,3,0,0,1-.94,0,2.44,2.44,0,0,1-.83-0.32l0.54-1a0.49,0.49,0,0,0,.14.11,1.4,1.4,0,0,0,.3.14,2.32,2.32,0,0,0,.42.12,1.55,1.55,0,0,0,.48,0,0.63,0.63,0,0,0,.42-0.16,0.35,0.35,0,0,0,.09-0.3,0.26,0.26,0,0,0-.09-0.17,0.75,0.75,0,0,0-.2-0.11l-0.3-.08-0.36-.08a1.86,1.86,0,0,1-.72-0.31,0.83,0.83,0,0,1-.29-0.56,1.69,1.69,0,0,1,.08-0.75,1.9,1.9,0,0,1,.37-0.59,2.39,2.39,0,0,1,.58-0.4,2.44,2.44,0,0,1,.7-0.2h0.44a2.38,2.38,0,0,1,.4.07,1.9,1.9,0,0,1,.36.12l0.3,0.14-0.53.93-0.12-.08-0.25-.12a1.69,1.69,0,0,0-.34-0.09,1.23,1.23,0,0,0-.38,0,0.64,0.64,0,0,0-.4.16,0.39,0.39,0,0,0-.11.34,0.28,0.28,0,0,0,.22.26,5.09,5.09,0,0,1,.58.14,2.8,2.8,0,0,1,.46.12,1,1,0,0,1,.36.18,0.72,0.72,0,0,1,.25.27,0.81,0.81,0,0,1,.12.39,1.51,1.51,0,0,1-.08.78,1.49,1.49,0,0,1-.39.56,1.85,1.85,0,0,1-.59.35A2.9,2.9,0,0,1,243.47,334.73Z" transform="translate(-45.17 -53.68)"/><path class="cls-3" d="M248.75,331.72a0.7,0.7,0,0,1,0,.32,1.12,1.12,0,0,1-.16.28,1.27,1.27,0,0,1-.25.21,0.88,0.88,0,0,1-.3.1,0.49,0.49,0,0,1-.41-0.12,0.56,0.56,0,0,1-.19-0.39,0.69,0.69,0,0,1,0-.32,0.85,0.85,0,0,1,.16-0.28,1,1,0,0,1,.25-0.21,0.76,0.76,0,0,1,.3-0.1,0.49,0.49,0,0,1,.41.12A0.56,0.56,0,0,1,248.75,331.72Z" transform="translate(-45.17 -53.68)"/><path class="cls-3" d="M252.78,329.1l1.6-.18a1.75,1.75,0,0,1,.77,0,1.41,1.41,0,0,1,.58.31,1.48,1.48,0,0,1,.38.51,2.45,2.45,0,0,1,.18.67,3,3,0,0,1-.08,1.12,2.62,2.62,0,0,1-2.28,1.92l-1.6.18Zm1.24,3.47a1.22,1.22,0,0,0,.56-0.2,1.46,1.46,0,0,0,.4-0.42,1.8,1.8,0,0,0,.23-0.57,2,2,0,0,0,0-.64,1.1,1.1,0,0,0-.29-0.69,0.73,0.73,0,0,0-.65-0.2l-0.57.06-0.27,2.73Z" transform="translate(-45.17 -53.68)"/><path class="cls-3" d="M258.58,333a1.63,1.63,0,0,1-.74-0.08,1.8,1.8,0,0,1-.58-0.35,1.92,1.92,0,0,1-.39-0.57,2.2,2.2,0,0,1-.19-0.69,2.55,2.55,0,0,1,.24-1.33,3.67,3.67,0,0,1,.36-0.6,3,3,0,0,1,.5-0.5,2.55,2.55,0,0,1,.6-0.35,2.3,2.3,0,0,1,.68-0.19,1.6,1.6,0,0,1,.73.08,1.58,1.58,0,0,1,.58.36,1.68,1.68,0,0,1,.38.56,2.09,2.09,0,0,1,.19.69,2.34,2.34,0,0,1-.1,1,3.26,3.26,0,0,1-.49.92,3.06,3.06,0,0,1-.78.7A2.48,2.48,0,0,1,258.58,333Zm0.1-1a1.1,1.1,0,0,0,.57-0.22,1.67,1.67,0,0,0,.39-0.45,1.73,1.73,0,0,0,.22-0.57,2,2,0,0,0,0-.59,1.24,1.24,0,0,0-.09-0.39,1.08,1.08,0,0,0-.19-0.31,0.77,0.77,0,0,0-.28-0.19,0.83,0.83,0,0,0-.39,0,1.1,1.1,0,0,0-.56.22,1.53,1.53,0,0,0-.4.44,2,2,0,0,0-.21.57,1.71,1.71,0,0,0,0,.59,1.59,1.59,0,0,0,.1.39,1.08,1.08,0,0,0,.19.31,0.72,0.72,0,0,0,.28.2,0.78,0.78,0,0,0,.37,0v0Z" transform="translate(-45.17 -53.68)"/><rect class="cls-1" x="42.67" y="219.23" width="6.23" height="146.46"/><polygon class="cls-1" points="71.09 370.41 20.47 370.41 42.66 365.69 48.9 365.69 71.09 370.41"/><rect class="cls-1" x="212.15" y="219.23" width="6.23" height="146.46"/><polygon class="cls-1" points="240.57 370.41 189.96 370.41 212.14 365.69 218.39 365.69 240.57 370.41"/></g><g id="freepik--Shadow--inject-124"><ellipse class="cls-1" cx="308.36" cy="403.77" rx="110.6" ry="9.76"/></g><g id="freepik--Plants--inject-124"><path class="cls-4" d="M230.33,400.94c-3.33.12-7.05,0.31-9.81-1.85-2.55-2-4.83-5-4.49-8.39,0.09-1,.32-1.58,1.36-1.16,1.59,0.63,2.82,2.39,3.92,3.62a33.74,33.74,0,0,0,4.63,4.39c1.19,0.91,2.46,1.69,3.67,2.58,0.16,0.1.31,0.22,0.46,0.33l0.17,0.13h0.1a0.17,0.17,0,0,1,.13.08v0a0.18,0.18,0,0,1-.13.22h0Z" transform="translate(-45.17 -53.68)"/><path class="cls-5" d="M230.5,400.72c-2.93,0-6.1.09-8.44-1.9a13.78,13.78,0,0,1-2.73-3.31c-0.34-.55-1.35-2.2-0.93-2.85,0.76-1.19,4.26,3.64,4.74,4.1a14.35,14.35,0,0,0,6.47,3.37c0.16,0.1.31,0.22,0.46,0.33a15.61,15.61,0,0,1-4.86-1.87c-2.09-1.24-3.24-3.07-4.87-4.79-0.35-.37-1.41-1.61-1.81-0.84-0.27.51,0.71,2.12,0.92,2.47a13.47,13.47,0,0,0,2.58,3.14c2.34,2,5.49,2,8.44,2.1Z" transform="translate(-45.17 -53.68)"/><path class="cls-4" d="M232.17,403a0.66,0.66,0,0,1-.08.38h0a0.11,0.11,0,0,1-.06.07,0.16,0.16,0,0,1-.18-0.07,0.11,0.11,0,0,1,0-.08v-0.17h0c-0.59-2.2-.82-4.5-1.45-6.71s-1.33-4.17-1.76-6.32c-0.27-1.36-1.21-8.17,1.79-7.32,1.33,0.38,2.24,2.3,2.74,3.45a14,14,0,0,1,1.11,4.89C234.54,395.22,233,399,232.17,403Z" transform="translate(-45.17 -53.68)"/><path class="cls-5" d="M233.13,394.5a15.9,15.9,0,0,0-.48-4.61c-0.13-.53-0.78-3-1.63-3-0.55,0-.64,1.12-0.69,1.48a14.27,14.27,0,0,0,.6,4.53A63.36,63.36,0,0,1,232,402a5.77,5.77,0,0,1-.08.58,1.8,1.8,0,0,1-.06.48,1,1,0,0,0,0,.17v0.13a0.14,0.14,0,0,0,.18.06,1,1,0,0,1,.05-0.37v0.31h0a0.52,0.52,0,0,1,.07-0.32c0.07-.1,0,0,0-0.07v-0.51A66.94,66.94,0,0,0,233.13,394.5Zm-1,6.88c-0.08-1.79-.26-3.57-0.51-5.34-0.2-1.42-.47-2.83-0.77-4.24a14.06,14.06,0,0,1-.38-2.41c0-.62.06-2.92,1.24-1.49,0.86,1,1.06,3.23,1.17,4.49a23.92,23.92,0,0,1-.09,4.23c-0.17,1.59-.43,3.17-0.67,4.76h0Z" transform="translate(-45.17 -53.68)"/><path class="cls-4" d="M234,412.13h-0.12c-3-.16-7.12.13-9.66-1.89-1.87-1.49-3.71-4.43-3.12-6.93,0.68-2.82,4.48.56,5.49,1.37A93.17,93.17,0,0,1,234,412h0v0.13Z" transform="translate(-45.17 -53.68)"/><path class="cls-5" d="M234.08,412c-0.18-.11-0.36-0.21-0.53-0.33q-3-1.89-5.84-4c-0.48-.36-3.91-3.42-4.43-2.33-0.31.66,0.83,2,1.19,2.46a9.48,9.48,0,0,0,2.31,2.07c2,1.27,4.5,1.54,6.8,2.15l0.33,0.08H234A0.08,0.08,0,0,0,234.08,412Zm-6-1.73a9.61,9.61,0,0,1-2.63-1.78c-0.51-.49-2.32-2.31-1.84-3.06,0.26-.4.47-0.19,1,0a6.84,6.84,0,0,1,.65.37,18.07,18.07,0,0,1,1.46,1.11c0.84,0.67,1.68,1.32,2.55,2,1.42,1,2.88,2,4.37,2.93a48.32,48.32,0,0,1-5.64-1.48Z" transform="translate(-45.17 -53.68)"/><path class="cls-4" d="M239.54,405.85a18,18,0,0,1-5.23,9.13h-0.05a0.15,0.15,0,0,1-.16-0.06,0.13,0.13,0,0,1,0-.17l0.15-.16c0.51-4.14,1.06-8.27,1.49-12.43,0.1-1,.87-7.21,2.78-6.2,1.19,0.63,1.27,3.19,1.37,4.34A18.3,18.3,0,0,1,239.54,405.85Z" transform="translate(-45.17 -53.68)"/><path class="cls-5" d="M238.43,400.29c-0.1-.35-0.28-0.7-0.67-0.46-0.74.47-1,3.4-1.16,4.21-0.51,3.34-1.3,6.56-2.11,9.83-0.07.28-.14,0.56-0.2,0.84l-0.19.24a0.13,0.13,0,0,0,.16.06v-0.08s0.17-.22.25-0.34h0a21.48,21.48,0,0,0,3-5.89,20.39,20.39,0,0,0,.89-4.1A11.78,11.78,0,0,0,238.43,400.29Zm-3.91,14.07-0.11.17a1.62,1.62,0,0,1,.1-0.34,59.93,59.93,0,0,0,1.87-7.61c0.22-1.31.36-2.62,0.63-3.92,0.11-.55.38-2.12,0.83-2.37s0.45,0.36.5,0.71a6,6,0,0,1,0,1,21,21,0,0,1-3.82,12.41h0Z" transform="translate(-45.17 -53.68)"/><path class="cls-4" d="M234.82,423.92h-0.61v-1.61c-0.07-2.16-.16-4.33-0.29-6.5-0.07-1.23-.16-2.46-0.29-3.67v-0.75a26,26,0,0,0-2.1-8c-0.39-.84-0.81-1.67-1.25-2.48a0.71,0.71,0,0,0-.13-0.24v-0.06l-0.13-.24-0.11-.18c-1.41-2.48-3-4.86-4.55-7.25l-1.31-2-0.08-.13-0.1-.15c-1.92-3-3.81-6.09-5.81-9.07-0.08-.11.1-0.21,0.18-0.1,1.35,2,2.74,3.92,4.13,5.87l0.55,0.78,1.09,1.55c0.73,1,1.44,2.07,2.14,3.12a87.24,87.24,0,0,1,5.61,9.08c0.12,0.24.24,0.48,0.35,0.72l0.21,0.45c0.08,0.17.16,0.35,0.23,0.52a28.11,28.11,0,0,1,2.06,9.61v1a0.91,0.91,0,0,0,0,.17v0.23h0v0.76q0.13,3.25.19,6.5C234.77,422.53,234.79,423.23,234.82,423.92Z" transform="translate(-45.17 -53.68)"/><path class="cls-4" d="M216.61,384.67c-1.67-2.24-3.81-6.88-1.35-9.29a2.62,2.62,0,0,1,3.49-.25c1.3,0.94,1.89,2.71,2.31,4.19,1.13,3.92,1.87,7.93,3.28,11.78a3.06,3.06,0,0,1,.15.41c0,0.08-.09.11-0.12,0s-0.1-.25-0.14-0.38C221.57,389.24,218.59,387.34,216.61,384.67Z" transform="translate(-45.17 -53.68)"/><path class="cls-5" d="M224.36,391.11a0.25,0.25,0,0,0,0-.07,29,29,0,0,1-1.56-2.91,56.9,56.9,0,0,1-2.4-6.43c-0.27-.84-1.47-5-2.94-3.32a3.67,3.67,0,0,0-.43,2.76,10.4,10.4,0,0,0,1.28,3.87,18.89,18.89,0,0,0,5.54,5.79l0.3,0.22,0.06,0.11a0.21,0.21,0,0,0,0,.06h0a0.09,0.09,0,0,0,.12-0.05h0Zm-0.65-.46a22.1,22.1,0,0,1-4.7-4.71,11.81,11.81,0,0,1-1.53-3.13,9.68,9.68,0,0,1-.33-1.51,7.53,7.53,0,0,1-.07-1.16c0-.85.38-1.77,0.88-1.86s0.83,0.25,1.24,1a7.29,7.29,0,0,1,.37.74,19.57,19.57,0,0,1,.69,2c0.35,1.09.7,2.18,1.09,3.25,0.26,0.73.55,1.45,0.86,2.16A27.8,27.8,0,0,0,224,391Z" transform="translate(-45.17 -53.68)"/><path class="cls-4" d="M81.93,391c-0.28,2.22-.71,4.43-1.16,6.62-0.25,1.25-.52,2.49-0.77,3.74a8.93,8.93,0,0,0-.31,4.16h0a0.71,0.71,0,0,1,0,.2h0a0.16,0.16,0,0,1-.28,0v-0.09h0a5,5,0,0,1-.48-1.16,27.65,27.65,0,0,1-1.11-3.21,28.12,28.12,0,0,1-1.08-6.87,23.33,23.33,0,0,1,.65-6.18c0.39-1.62,1-4,2.16-5.27s2,0.67,2.32,1.58C82.53,386.47,82.19,388.84,81.93,391Z" transform="translate(-45.17 -53.68)"/><path class="cls-5" d="M79.93,386.23c-0.81,0-1.4,2.62-1.69,3.75a22.82,22.82,0,0,0-.69,5.46,29.15,29.15,0,0,0,1.68,9.7,1.23,1.23,0,0,0,.13.38h0s0,0.06,0,.09a0.17,0.17,0,0,0,.22.1l0.07-.05a7.76,7.76,0,0,1-.13-0.82c0-.25-0.06-0.49-0.07-0.73a38.58,38.58,0,0,1,.5-8C80.39,393,81,386.23,79.93,386.23Zm-0.58,18.43a6.43,6.43,0,0,0,.16,1.07L79.27,405a32.35,32.35,0,0,1-1.53-8.55,23,23,0,0,1,.36-4.9,20.2,20.2,0,0,1,.63-2.55c0.11-.36.7-2.55,1.2-2.44,0.35,0.08.44,2,.44,2.09v1.19c0,0.82-.07,1.64-0.14,2.45-0.15,1.76-.4,3.52-0.62,5.28A30.48,30.48,0,0,0,79.35,404.66Z" transform="translate(-45.17 -53.68)"/><path class="cls-4" d="M94.71,397.1a21.23,21.23,0,0,1-6.59,7c-1.39,1-2.83,2-4.24,3a22.21,22.21,0,0,0-3.66,2.82,1,1,0,0,0-.14.15,6,6,0,0,0-.76,1H79.25v0.13a0.77,0.77,0,0,0,0-.15h0a0.11,0.11,0,0,1,0-.11V410.8c0.42-3.4,2.8-6.83,4.81-9.45a18.06,18.06,0,0,1,7.59-6.12c0.78-.3,2.55-1.13,3.35-0.49S95,396.48,94.71,397.1Z" transform="translate(-45.17 -53.68)"/><path class="cls-5" d="M92.41,397.11c-0.71-.71-2.8,1-3.32,1.45a34.14,34.14,0,0,0-4.31,4.19,31.21,31.21,0,0,0-5.51,8h0a0.36,0.36,0,0,1-.07.1,0.78,0.78,0,0,0,0,.14v0a0.11,0.11,0,0,0,0,.11l0.11-.12c0.25-.32.53-0.63,0.81-0.93a1,1,0,0,1,.14-0.15,66.17,66.17,0,0,1,6.45-5.7A31.9,31.9,0,0,0,91,400C91.28,399.66,93,397.7,92.41,397.11Zm-0.66,1.56c-1.75,2.91-4.8,5-7.39,7.17a34.86,34.86,0,0,0-4.9,4.66,33.19,33.19,0,0,1,5.09-7.17,44.08,44.08,0,0,1,3.5-3.6A18.54,18.54,0,0,1,90.18,398a7.28,7.28,0,0,1,1.43-.77c1-.23.44,0.93,0.14,1.44h0Z" transform="translate(-45.17 -53.68)"/><path class="cls-4" d="M78.85,418a0.18,0.18,0,0,1-.15.08v0.13a0.06,0.06,0,0,1-.08,0,29.43,29.43,0,0,1-6.78-9.92,15.2,15.2,0,0,1-1-4.89c0-1.14-.09-3.45.88-4.28,2-1.67,3.77,5.43,4,6.5,0.49,2,.81,3.94,1.26,5.91,0.5,2.14,1.15,4.25,1.79,6.35A0.16,0.16,0,0,1,78.85,418Z" transform="translate(-45.17 -53.68)"/><path class="cls-5" d="M78.85,418c-0.11-.18-0.21-0.37-0.31-0.55A33,33,0,0,1,75,407.94a30.57,30.57,0,0,0-1.31-5c-0.16-.39-0.65-1.9-1.3-1.14-0.34.4-.06,3.27,0.08,4a21.44,21.44,0,0,0,1.59,4.88A34.38,34.38,0,0,0,78.58,418l0.15,0.2v-0.06A0.18,0.18,0,0,0,78.85,418Zm-4-6.11a23.68,23.68,0,0,1-1.85-4.7,16.75,16.75,0,0,1-.42-2,10.65,10.65,0,0,1-.13-1.59c0-1.29.11-1.63,0.33-1.68s0.32,0.12.7,0.89A8,8,0,0,1,74,404.4c0.2,0.77.37,1.54,0.54,2.31,0.34,1.55.65,3.1,1.1,4.62a25.7,25.7,0,0,0,2.74,6.21,39.2,39.2,0,0,1-3.53-5.61v0Z" transform="translate(-45.17 -53.68)"/><path class="cls-4" d="M87.68,411.23A9.68,9.68,0,0,1,85.87,415c-1.63,2.26-3.72,4.14-5.51,6.27-0.26.32-.52,0.64-0.77,1,0,0-.24.51-0.23,0.47a2.32,2.32,0,0,1,.09-0.5h0a39.78,39.78,0,0,1,2.4-8.32,19.64,19.64,0,0,1,2.61-4.08c0.5-.57,1.69-1.81,2.59-1.54S87.82,410.51,87.68,411.23Z" transform="translate(-45.17 -53.68)"/><path class="cls-5" d="M86.23,410.31c-1-.59-3.43,3.81-3.76,4.38a28.12,28.12,0,0,0-2.81,6.72c-0.08.26-.15,0.52-0.21,0.79s-0.1.48-.1,0.49l0.24-.47,0.13-.17,0.64-.8c1.07-1.6,2.17-3.19,3.21-4.82a25.39,25.39,0,0,0,2-3.66C85.69,412.48,86.65,410.57,86.23,410.31ZM86,411.55c-1.36,3.83-4.13,6.85-6.25,10.26l-0.11.16,0.09-.3A32.18,32.18,0,0,1,82,416.08a30.67,30.67,0,0,1,1.89-3.16A15.83,15.83,0,0,1,85,411.28a1.81,1.81,0,0,1,1-.69C86.24,410.69,86,411.3,86,411.55Z" transform="translate(-45.17 -53.68)"/><path class="cls-4" d="M97.29,379.6c-2.85,6.53-10.31,9.57-13.54,15.87h0l-0.29.58a0.13,0.13,0,0,1-.18,0l0,0a0.09,0.09,0,0,1,0-.11l0.06-.14a34.22,34.22,0,0,1,4-11.43,17.27,17.27,0,0,1,7-7.41c0.76-.4,2.25-1.22,3.11-0.58S97.64,378.8,97.29,379.6Z" transform="translate(-45.17 -53.68)"/><path class="cls-5" d="M94.73,379.88a1.27,1.27,0,0,0-1.22.22,11,11,0,0,0-2.16,1.47,18.23,18.23,0,0,0-3.44,4.09,37.4,37.4,0,0,0-4,8.22c-0.22.65-.41,1.32-0.57,2a0.47,0.47,0,0,1-.05.25,0.13,0.13,0,0,0,.18,0l0,0,0.27-.57h0a21.09,21.09,0,0,1,2-3.73,51,51,0,0,1,4.25-5C90.61,386,96,380.8,94.73,379.88Zm-0.46,1.51a24,24,0,0,1-3.37,4.09c-1.18,1.32-2.37,2.62-3.53,4a24.42,24.42,0,0,0-2.49,3.39A18.78,18.78,0,0,0,83.33,396a25.17,25.17,0,0,1,1.11-3.27h0a50.23,50.23,0,0,1,2.75-5.49,0.43,0.43,0,0,0,0-.07,22.66,22.66,0,0,1,3.14-4.39,13.57,13.57,0,0,1,2.24-1.9c0.94-.6,1.76-1,2-0.7A1.21,1.21,0,0,1,94.27,381.39Z" transform="translate(-45.17 -53.68)"/><path class="cls-4" d="M87.36,387.25c-0.85,1.84-1.67,3.71-2.48,5.58-0.38.88-.76,1.76-1.13,2.64h0c-0.13.31-.27,0.63-0.4,1A57.4,57.4,0,0,0,80,405.3a26.64,26.64,0,0,0-.68,4.91v0.51h0V411a0.92,0.92,0,0,0,0,.16c-0.05,1.43,0,2.87,0,4.26,0,2,.2,3.89.38,5.82a1.11,1.11,0,0,0,0,.17,2.28,2.28,0,0,0,0,.26v0.14a1.94,1.94,0,0,0,0,.24c0.06,0.62.12,1.24,0.17,1.87h-0.6a39.29,39.29,0,0,1-.72-5.75v-0.12a5.25,5.25,0,0,1,0-.56V416.8c0-.56,0-1.12-0.05-1.66a40.86,40.86,0,0,1,.68-9.63l0.06-.26V405l0.08-.29,0.15-.52V404a62.41,62.41,0,0,1,3.28-7.93c0.22-.47.43-0.93,0.66-1.4,0.12-.25.24-0.51,0.37-0.77l0.58-1.17h0c0.91-1.83,1.85-3.65,2.75-5.49C87.26,387.1,87.4,387.17,87.36,387.25Z" transform="translate(-45.17 -53.68)"/></g><g id="freepik--Sign--inject-124"><rect class="cls-1" x="201.01" y="17.56" width="8.15" height="352.89"/><circle class="cls-5" cx="250.28" cy="130.82" r="52.4" transform="translate(19.14 289.67) rotate(-76.41)"/><path class="cls-6" d="M302.68,130.83A52.69,52.69,0,1,1,287.4,93.72a52.65,52.65,0,0,1,15.28,37.11h0Zm0,0a52,52,0,1,0-15.05,36.54A52.39,52.39,0,0,0,302.68,130.83Z" transform="translate(-45.17 -53.68)"/><path class="cls-4" d="M250.28,174.61a43.79,43.79,0,1,1,43.78-43.8v0A43.83,43.83,0,0,1,250.28,174.61Zm0-78.68a34.9,34.9,0,1,0,34.89,34.91h0A34.94,34.94,0,0,0,250.28,95.93Z" transform="translate(-45.17 -53.68)"/><rect class="cls-4" x="245.83" y="91.61" width="8.89" height="78.43" transform="translate(-64.37 161.61) rotate(-45)"/></g><g id="freepik--401-error--inject-124"><path class="cls-4" d="M168.47,200.9V169.74H110.18V159.23l62.14-80.52h8.05v80.17h15.41v10.86H180.37V200.9h-11.9Zm-45.69-42H169.7V97.44Z" transform="translate(-45.17 -53.68)"/><path class="cls-4" d="M377.82,167.81v10.85H318.48V167.81h24.86V92.89a19.29,19.29,0,0,1-4.82,4.55A58.56,58.56,0,0,1,331,102a56.82,56.82,0,0,1-8.49,3.5,25.57,25.57,0,0,1-7.71,1.4V95.34a20.85,20.85,0,0,0,8.84-2.28,63,63,0,0,0,9.11-5.25,81.36,81.36,0,0,0,7.26-5.6q3-2.62,3.33-3.5h12.25v89.1h22.23Z" transform="translate(-45.17 -53.68)"/><path d="M227.06,68.54V70.6H216.92V55.82h10v2.06H219.3v4.2h6.6V64h-6.6v4.52Z" transform="translate(-45.17 -53.68)"/><path d="M229.47,70.6V55.82h6.44a4.07,4.07,0,0,1,1.84.41,4.9,4.9,0,0,1,1.45,1.09,5.32,5.32,0,0,1,.94,1.55,4.67,4.67,0,0,1,.35,1.75,4.92,4.92,0,0,1-.21,1.44,5.08,5.08,0,0,1-.59,1.27,3.82,3.82,0,0,1-.91,1,3.71,3.71,0,0,1-1.19.64l3.48,5.62h-2.65l-3.2-5.14H231.8V70.6h-2.33Zm2.33-7.21h4.08a1.94,1.94,0,0,0,.91-0.21,2.25,2.25,0,0,0,.7-0.61,3.06,3.06,0,0,0,.46-0.88,3.42,3.42,0,0,0,.16-1.07,2.74,2.74,0,0,0-.2-1.06,2.92,2.92,0,0,0-.52-0.87,2.33,2.33,0,0,0-.74-0.59,1.92,1.92,0,0,0-.89-0.22h-4Z" transform="translate(-45.17 -53.68)"/><path d="M243.23,70.6V55.82h6.44a4.07,4.07,0,0,1,1.84.41A4.9,4.9,0,0,1,253,57.32a5.11,5.11,0,0,1,.94,1.55,4.67,4.67,0,0,1,.35,1.75,4.92,4.92,0,0,1-.21,1.44,5.06,5.06,0,0,1-.58,1.27,4,4,0,0,1-.92,1,3.61,3.61,0,0,1-1.19.64l3.48,5.62h-2.64L249,65.46h-3.41V70.6h-2.36Zm2.34-7.21h4.08a1.93,1.93,0,0,0,.9-0.21,2.15,2.15,0,0,0,.7-0.61,3.06,3.06,0,0,0,.46-0.88,3.43,3.43,0,0,0,.17-1.07,2.93,2.93,0,0,0-.2-1.06,3.4,3.4,0,0,0-.52-0.87,2.48,2.48,0,0,0-.75-0.59,1.89,1.89,0,0,0-.89-0.22h-4Z" transform="translate(-45.17 -53.68)"/><path d="M263.14,70.7a6.55,6.55,0,0,1-2.89-.63A7.31,7.31,0,0,1,258,68.38a7.52,7.52,0,0,1-1.45-2.4,7.84,7.84,0,0,1-.51-2.77,7.54,7.54,0,0,1,.54-2.83,7.88,7.88,0,0,1,1.49-2.4,7.13,7.13,0,0,1,2.25-1.65,6.56,6.56,0,0,1,2.84-.62,6.23,6.23,0,0,1,2.88.66,7.25,7.25,0,0,1,2.23,1.71,7.84,7.84,0,0,1,1.44,2.41,7.68,7.68,0,0,1,.51,2.74,7.77,7.77,0,0,1-.53,2.83,7.49,7.49,0,0,1-1.49,2.38,7.28,7.28,0,0,1-2.2,1.65A6.53,6.53,0,0,1,263.14,70.7Zm-4.71-7.49a6.08,6.08,0,0,0,.34,2,5.41,5.41,0,0,0,.94,1.72,4.7,4.7,0,0,0,1.49,1.2,4.25,4.25,0,0,0,2,.45,4.15,4.15,0,0,0,2-.47,4.72,4.72,0,0,0,1.47-1.24,5.61,5.61,0,0,0,.91-1.73,6.35,6.35,0,0,0,0-4,5.28,5.28,0,0,0-1-1.71,4.77,4.77,0,0,0-1.48-1.19,4,4,0,0,0-1.92-.44,4.19,4.19,0,0,0-2,.46,4.89,4.89,0,0,0-1.48,1.22,5.37,5.37,0,0,0-.92,1.72,6,6,0,0,0-.4,2h0Z" transform="translate(-45.17 -53.68)"/><path d="M272.65,70.6V55.82h6.44a4.07,4.07,0,0,1,1.84.41,4.9,4.9,0,0,1,1.45,1.09,5.32,5.32,0,0,1,.94,1.55,4.67,4.67,0,0,1,.35,1.75,4.92,4.92,0,0,1-.21,1.44,5.06,5.06,0,0,1-.58,1.27,4,4,0,0,1-.92,1,3.71,3.71,0,0,1-1.19.64l3.48,5.62h-2.64l-3.21-5.14H275V70.6h-2.35ZM275,63.39h4.09a1.93,1.93,0,0,0,.9-0.21,2.25,2.25,0,0,0,.7-0.61,3.06,3.06,0,0,0,.46-0.88,3.42,3.42,0,0,0,.16-1.07,2.93,2.93,0,0,0-.19-1.06,3.4,3.4,0,0,0-.52-0.87,2.48,2.48,0,0,0-.75-0.59,1.89,1.89,0,0,0-.89-0.22h-4Z" transform="translate(-45.17 -53.68)"/><path d="M193.9,198.83a2.62,2.62,0,0,0,2.39-1.24,4,4,0,0,0,.5-1.27,7.19,7.19,0,0,0,.15-1.47v-5.64h1.77v5.64a8.41,8.41,0,0,1-.27,2.16,5,5,0,0,1-.84,1.77,4.14,4.14,0,0,1-1.5,1.2,5.08,5.08,0,0,1-2.2.44,4.93,4.93,0,0,1-2.25-.47,4.06,4.06,0,0,1-1.48-1.23,5.1,5.1,0,0,1-.82-1.78,9,9,0,0,1-.25-2.09v-5.64h1.76v5.64a7.14,7.14,0,0,0,.15,1.48,3.67,3.67,0,0,0,.5,1.27,2.71,2.71,0,0,0,.94.9A2.91,2.91,0,0,0,193.9,198.83Z" transform="translate(-45.17 -53.68)"/><path d="M202.8,192.5v7.84h-1.75V189.21h1.38l6.36,8v-8h1.77v11.11H209.1Z" transform="translate(-45.17 -53.68)"/><path d="M216.34,189.21h1.54l4.39,11.13h-1.85l-1.18-3H215l-1.16,3H212Zm2.56,6.8-1.79-4.78L215.26,196h3.64Z" transform="translate(-45.17 -53.68)"/><path d="M227.8,198.83a2.82,2.82,0,0,0,1.46-.34,2.76,2.76,0,0,0,.93-0.9,3.75,3.75,0,0,0,.5-1.27,7.19,7.19,0,0,0,.15-1.47v-5.64h1.77v5.64a8.88,8.88,0,0,1-.26,2.16,5,5,0,0,1-.85,1.77A4.14,4.14,0,0,1,230,200a5.08,5.08,0,0,1-2.2.44,4.93,4.93,0,0,1-2.25-.47,4.06,4.06,0,0,1-1.48-1.23,4.91,4.91,0,0,1-.81-1.78,8.49,8.49,0,0,1-.26-2.09v-5.64h1.76v5.64a7.14,7.14,0,0,0,.15,1.48,3.88,3.88,0,0,0,.5,1.27,2.79,2.79,0,0,0,.94.9A2.93,2.93,0,0,0,227.8,198.83Z" transform="translate(-45.17 -53.68)"/><path d="M243.11,190.76h-3.7v9.58h-1.77v-9.58h-3.71v-1.55h9.18v1.55Z" transform="translate(-45.17 -53.68)"/><path d="M253.74,189.21v11.13H252v-4.91h-5.61v4.91H244.6V189.21h1.76v4.65H252v-4.65h1.74Z" transform="translate(-45.17 -53.68)"/><path d="M260.87,200.42a4.87,4.87,0,0,1-2.17-.48,5.41,5.41,0,0,1-1.68-1.27,5.65,5.65,0,0,1-1.09-1.81,5.82,5.82,0,0,1-.39-2.09,5.89,5.89,0,0,1,1.53-3.93,5.51,5.51,0,0,1,1.69-1.25,5.11,5.11,0,0,1,2.14-.46,4.84,4.84,0,0,1,2.17.49,5.53,5.53,0,0,1,1.68,1.3,5.81,5.81,0,0,1,1.08,1.81,5.66,5.66,0,0,1,.39,2.06,5.92,5.92,0,0,1-.4,2.13,5.75,5.75,0,0,1-1.12,1.8A5.53,5.53,0,0,1,263,200,4.87,4.87,0,0,1,260.87,200.42Zm-3.54-5.65a4.57,4.57,0,0,0,.25,1.52,4.14,4.14,0,0,0,.71,1.31,3.65,3.65,0,0,0,1.12.9,3.25,3.25,0,0,0,1.48.33,3,3,0,0,0,1.49-.35,3.45,3.45,0,0,0,1.11-.93,4.38,4.38,0,0,0,.69-1.3,4.92,4.92,0,0,0,.23-1.48,4.53,4.53,0,0,0-.25-1.52,3.85,3.85,0,0,0-.71-1.29,3.55,3.55,0,0,0-1.11-.89,3.07,3.07,0,0,0-1.45-.34,3.2,3.2,0,0,0-1.51.35,3.55,3.55,0,0,0-1.11.92,4.24,4.24,0,0,0-.7,1.29A4.73,4.73,0,0,0,257.33,194.77Z" transform="translate(-45.17 -53.68)"/><path d="M268,200.34V189.21h4.85a3,3,0,0,1,1.38.31,3.47,3.47,0,0,1,1.09.83,3.84,3.84,0,0,1,.72,1.16,3.56,3.56,0,0,1,.25,1.32,3.69,3.69,0,0,1-.59,2,3.32,3.32,0,0,1-.69.76,3.07,3.07,0,0,1-.89.48l2.61,4.23h-2l-2.41-3.87h-2.57v3.87Zm1.76-5.43h3.07a1.39,1.39,0,0,0,.68-0.16,1.63,1.63,0,0,0,.53-0.45,2.49,2.49,0,0,0,.34-0.67,2.36,2.36,0,0,0,.13-0.8,2.15,2.15,0,0,0-.15-0.8,2.4,2.4,0,0,0-.39-0.66,1.86,1.86,0,0,0-.57-0.44,1.41,1.41,0,0,0-.66-0.17h-3Z" transform="translate(-45.17 -53.68)"/><path d="M278.39,200.34V189.21h1.76v11.13h-1.76Z" transform="translate(-45.17 -53.68)"/><path d="M281.89,199l6.75-8.23H282v-1.55h8.66v1.35l-6.6,8.23h6.61v1.55h-8.82Z" transform="translate(-45.17 -53.68)"/><path d="M300.15,198.79v1.55h-7.64V189.21H300v1.55h-5.74v3.17h5v1.46h-5v3.4h5.89Z" transform="translate(-45.17 -53.68)"/><path d="M302,200.34V189.21h4a5.9,5.9,0,0,1,2.35.44,4.87,4.87,0,0,1,1.7,1.19,5.06,5.06,0,0,1,1,1.76,6.7,6.7,0,0,1,.35,2.16,6.4,6.4,0,0,1-.39,2.29,5.06,5.06,0,0,1-1.08,1.76,5,5,0,0,1-1.71,1.13,6.16,6.16,0,0,1-2.24.4h-4Zm7.59-5.58a5.2,5.2,0,0,0-.24-1.62,3.41,3.41,0,0,0-.72-1.26,3.27,3.27,0,0,0-1.14-.82,3.73,3.73,0,0,0-1.53-.3h-2.2v8H306a3.79,3.79,0,0,0,1.55-.31,3.17,3.17,0,0,0,1.15-.85,3.65,3.65,0,0,0,.7-1.27,5.47,5.47,0,0,0,.19-1.57h0Z" transform="translate(-45.17 -53.68)"/></g><g id="freepik--police-tape--inject-124"><rect class="cls-4" x="149.49" y="211.55" width="12.87" height="171.16" transform="translate(-209.4 343.96) rotate(-79.74)"/><polygon class="cls-6" points="37.8 223.71 25.86 231.99 27.69 221.88 37.8 223.71"/><polygon class="cls-6" points="56.96 227.18 42.01 237.55 31.77 235.7 46.72 225.33 56.96 227.18"/><polygon class="cls-6" points="76.12 230.65 61.16 241.02 50.92 239.17 65.89 228.8 76.12 230.65"/><polygon class="cls-6" points="95.28 234.12 80.33 244.49 70.09 242.63 85.04 232.26 95.28 234.12"/><polygon class="cls-6" points="114.44 237.59 99.48 247.96 89.25 246.1 104.2 235.73 114.44 237.59"/><polygon class="cls-6" points="133.6 241.06 118.64 251.43 108.41 249.57 123.36 239.2 133.6 241.06"/><polygon class="cls-6" points="152.76 244.52 137.8 254.89 127.57 253.04 142.52 242.67 152.76 244.52"/><polygon class="cls-6" points="171.92 247.99 156.96 258.36 146.73 256.51 161.69 246.14 171.92 247.99"/><polygon class="cls-6" points="191.08 251.46 176.12 261.83 165.89 259.98 180.84 249.61 191.08 251.46"/><polygon class="cls-6" points="195.42 256.26 193.83 265.04 185.04 263.45 195.42 256.26"/><rect class="cls-4" x="70.36" y="290.71" width="171.16" height="12.87" transform="translate(-77.47 -34.35) rotate(-6.43)"/><path class="cls-6" d="M74.3,305.93a0.71,0.71,0,0,1,0,.32,0.66,0.66,0,0,1-.16.28,1,1,0,0,1-.25.21,0.63,0.63,0,0,1-.3.1,0.47,0.47,0,0,1-.4-0.12,0.57,0.57,0,0,1-.2-0.39,0.69,0.69,0,0,1,0-.32,0.85,0.85,0,0,1,.16-0.28,1,1,0,0,1,.24-0.21,0.88,0.88,0,0,1,.3-0.1,0.48,0.48,0,0,1,.41.12A0.57,0.57,0,0,1,74.3,305.93Z" transform="translate(-45.17 -53.68)"/><path class="cls-6" d="M78.32,303.31l1.6-.18a1.81,1.81,0,0,1,.78,0,1.41,1.41,0,0,1,.58.31,1.59,1.59,0,0,1,.37.51,2.14,2.14,0,0,1,.19.68,3.14,3.14,0,0,1-.08,1.11,2.55,2.55,0,0,1-.47.93,2.67,2.67,0,0,1-.78.67,2.76,2.76,0,0,1-1,.32l-1.61.18Zm1.24,3.47a1.18,1.18,0,0,0,.56-0.2,1.34,1.34,0,0,0,.4-0.42,1.54,1.54,0,0,0,.23-0.56,1.77,1.77,0,0,0,0-.65,1.1,1.1,0,0,0-.29-0.69,0.74,0.74,0,0,0-.66-0.2l-0.57.06L79,306.85Z" transform="translate(-45.17 -53.68)"/><path class="cls-6" d="M84.12,307.23a1.63,1.63,0,0,1-.74-0.08,1.44,1.44,0,0,1-.58-0.35,2,2,0,0,1-.39-0.56,2.36,2.36,0,0,1-.19-0.69,2.21,2.21,0,0,1,0-.68,3,3,0,0,1,.22-0.66,2.65,2.65,0,0,1,.36-0.6,2.58,2.58,0,0,1,.5-0.49,2.28,2.28,0,0,1,.6-0.36,2,2,0,0,1,.67-0.18,1.63,1.63,0,0,1,.74.07,1.54,1.54,0,0,1,.57.36,1.87,1.87,0,0,1,.39.56,2.36,2.36,0,0,1,.19.69,2.33,2.33,0,0,1-.11,1,2.82,2.82,0,0,1-.49.92,2.76,2.76,0,0,1-.78.7A2.44,2.44,0,0,1,84.12,307.23Zm0.1-1a1,1,0,0,0,.57-0.22,1.41,1.41,0,0,0,.39-0.45,1.64,1.64,0,0,0,.22-1.16,1.59,1.59,0,0,0-.1-0.39,1,1,0,0,0-.18-0.3,0.72,0.72,0,0,0-.29-0.2,0.93,0.93,0,0,0-.38,0,1.2,1.2,0,0,0-.56.22,1.33,1.33,0,0,0-.4.45,1.82,1.82,0,0,0-.22.56,2,2,0,0,0,0,.59,1.59,1.59,0,0,0,.09.39,1,1,0,0,0,.19.31,0.72,0.72,0,0,0,.29.2,0.68,0.68,0,0,0,.38,0v0Z" transform="translate(-45.17 -53.68)"/><path class="cls-6" d="M88.77,302.13l0.81-.09,1.64,2.48,0.25-2.69,1-.12L92,306.29l-0.82.1L89.61,304l-0.25,2.62-1,.11Z" transform="translate(-45.17 -53.68)"/><path class="cls-6" d="M94.78,306a1.63,1.63,0,0,1-.78,0,1.56,1.56,0,0,1-.58-0.35,1.92,1.92,0,0,1-.39-0.57,2.2,2.2,0,0,1-.19-0.69,2.23,2.23,0,0,1,0-.68,3.79,3.79,0,0,1,.21-0.65,3.13,3.13,0,0,1,.37-0.6,2.84,2.84,0,0,1,.49-0.49,2.51,2.51,0,0,1,.61-0.36,2,2,0,0,1,.67-0.18,1.63,1.63,0,0,1,.74.07,1.54,1.54,0,0,1,.57.36,1.87,1.87,0,0,1,.39.56,2.36,2.36,0,0,1,.19.69,2.33,2.33,0,0,1-.11,1,3,3,0,0,1-.49.92,2.76,2.76,0,0,1-.78.7A2.44,2.44,0,0,1,94.78,306Zm0.1-1a1.1,1.1,0,0,0,.57-0.22,1.41,1.41,0,0,0,.39-0.45,2.32,2.32,0,0,0,.22-0.57,2,2,0,0,0,0-.59,1.59,1.59,0,0,0-.1-0.39,1.05,1.05,0,0,0-.18-0.31,0.81,0.81,0,0,0-.29-0.19,0.78,0.78,0,0,0-.38,0,1.2,1.2,0,0,0-.56.22,1.4,1.4,0,0,0-.4.44,1.9,1.9,0,0,0-.25,1.16,1.59,1.59,0,0,0,.09.39,1,1,0,0,0,.19.31,0.66,0.66,0,0,0,.29.2,0.67,0.67,0,0,0,.41,0v0Z" transform="translate(-45.17 -53.68)"/><path class="cls-6" d="M98.43,302l-1.28.15,0.09-.93,3.58-.41-0.08.93-1.28.15-0.36,3.65-1,.12Z" transform="translate(-45.17 -53.68)"/><path class="cls-6" d="M104.09,305a1.54,1.54,0,0,1-.72-0.08,1.85,1.85,0,0,1-.58-0.37,2.11,2.11,0,0,1-.39-0.58,2.36,2.36,0,0,1-.19-0.69,2.3,2.3,0,0,1,0-.64,2.94,2.94,0,0,1,.19-0.64,3,3,0,0,1,.83-1.09,2.92,2.92,0,0,1,.61-0.37,2.19,2.19,0,0,1,.72-0.19,1.61,1.61,0,0,1,1,.16,1.22,1.22,0,0,1,.59.64l-0.85.66a0.74,0.74,0,0,0-.14-0.28,0.7,0.7,0,0,0-.47-0.24h-0.27a1.1,1.1,0,0,0-.56.22,1.33,1.33,0,0,0-.4.45,1.8,1.8,0,0,0-.21.56,1.85,1.85,0,0,0,0,.57,1.24,1.24,0,0,0,.1.4,1.13,1.13,0,0,0,.19.32,0.84,0.84,0,0,0,.29.2,0.74,0.74,0,0,0,.37,0l0.27-.06a1.74,1.74,0,0,0,.27-0.14,1.27,1.27,0,0,0,.25-0.22,1.08,1.08,0,0,0,.19-0.31l0.8,0.41a1.58,1.58,0,0,1-.33.48,2.5,2.5,0,0,1-.47.39,3.11,3.11,0,0,1-.55.27A2.91,2.91,0,0,1,104.09,305Z" transform="translate(-45.17 -53.68)"/><path class="cls-6" d="M106.41,304.68l0.45-4.59,1.92-.21a1,1,0,0,1,.49,0,1.36,1.36,0,0,1,.38.24,1.7,1.7,0,0,1,.26.38,1.51,1.51,0,0,1,.13.46,1.85,1.85,0,0,1,0,.47,2.51,2.51,0,0,1-.16.46,2.57,2.57,0,0,1-.26.41,1.89,1.89,0,0,1-.37.32l0.77,1.6-1.17.13L108.19,303l-0.58.06-0.14,1.48Zm2.13-2.62a0.36,0.36,0,0,0,.18-0.08,0.65,0.65,0,0,0,.15-0.18,0.74,0.74,0,0,0,.1-0.26,1,1,0,0,0,0-.3,0.55,0.55,0,0,0-.12-0.33,0.28,0.28,0,0,0-.23-0.1l-0.83.1-0.12,1.25Z" transform="translate(-45.17 -53.68)"/><path class="cls-6" d="M112.36,304a1.63,1.63,0,0,1-.74-0.08,1.7,1.7,0,0,1-.58-0.35,1.92,1.92,0,0,1-.39-0.57,2.2,2.2,0,0,1-.19-0.69,2.23,2.23,0,0,1,0-.68,3.79,3.79,0,0,1,.21-0.65,3.13,3.13,0,0,1,.37-0.6,2.9,2.9,0,0,1,.49-0.5,2.84,2.84,0,0,1,.61-0.35,2.23,2.23,0,0,1,.67-0.19,1.63,1.63,0,0,1,.74.08,1.54,1.54,0,0,1,.57.36,1.87,1.87,0,0,1,.39.56,2.31,2.31,0,0,1,.08,1.7,3,3,0,0,1-.49.92,2.76,2.76,0,0,1-.78.7A2.44,2.44,0,0,1,112.36,304Zm0.1-1a1.1,1.1,0,0,0,.57-0.22,1.67,1.67,0,0,0,.39-0.45,2.32,2.32,0,0,0,.22-0.57,2,2,0,0,0,0-.59,1.59,1.59,0,0,0-.1-0.39,1.05,1.05,0,0,0-.18-0.31,0.81,0.81,0,0,0-.29-0.19,0.78,0.78,0,0,0-.38,0,1.1,1.1,0,0,0-.56.22,1.4,1.4,0,0,0-.4.44,1.9,1.9,0,0,0-.25,1.16,1.59,1.59,0,0,0,.09.39,1.08,1.08,0,0,0,.19.31,0.75,0.75,0,0,0,.29.2,0.77,0.77,0,0,0,.41,0h0Z" transform="translate(-45.17 -53.68)"/><path class="cls-6" d="M116.64,303.58a3,3,0,0,1-.94,0,2.36,2.36,0,0,1-.83-0.32l0.54-1a0.55,0.55,0,0,0,.14.1,1.4,1.4,0,0,0,.3.15,2.13,2.13,0,0,0,.42.11,1.55,1.55,0,0,0,.48,0,0.69,0.69,0,0,0,.42-0.16,0.39,0.39,0,0,0,.09-0.3,0.26,0.26,0,0,0-.09-0.17,0.52,0.52,0,0,0-.21-0.11l-0.29-.09-0.36-.07a1.94,1.94,0,0,1-.72-0.31,0.79,0.79,0,0,1-.29-0.57,1.63,1.63,0,0,1,.08-0.74,1.69,1.69,0,0,1,.37-0.59,1.82,1.82,0,0,1,.58-0.4,2.09,2.09,0,0,1,.7-0.2,2.17,2.17,0,0,1,.44,0l0.4,0.07,0.36,0.12,0.3,0.15-0.54.93a0.39,0.39,0,0,0-.11-0.09l-0.25-.12-0.35-.09a1.59,1.59,0,0,0-.38,0,0.7,0.7,0,0,0-.4.17,0.41,0.41,0,0,0-.11.34,0.3,0.3,0,0,0,.23.25,3.29,3.29,0,0,0,.58.14l0.45,0.12a1.59,1.59,0,0,1,.37.18,0.92,0.92,0,0,1,.25.27,1.11,1.11,0,0,1,.12.4,1.51,1.51,0,0,1-.08.78,1.45,1.45,0,0,1-.39.55,1.81,1.81,0,0,1-.6.36A3.22,3.22,0,0,1,116.64,303.58Z" transform="translate(-45.17 -53.68)"/><path class="cls-6" d="M120.38,303.15a2.7,2.7,0,0,1-.94,0,2.36,2.36,0,0,1-.83-0.32l0.54-1a0.55,0.55,0,0,0,.14.1,1.4,1.4,0,0,0,.3.15,3.16,3.16,0,0,0,.42.11,1.52,1.52,0,0,0,.48,0,0.75,0.75,0,0,0,.42-0.16,0.39,0.39,0,0,0,.09-0.3,0.26,0.26,0,0,0-.09-0.17,0.68,0.68,0,0,0-.21-0.12l-0.29-.08-0.36-.07a1.87,1.87,0,0,1-.72-0.31,0.79,0.79,0,0,1-.29-0.57,1.5,1.5,0,0,1,.08-0.74,1.56,1.56,0,0,1,.37-0.59,1.82,1.82,0,0,1,.58-0.4,2.09,2.09,0,0,1,.7-0.2,2.16,2.16,0,0,1,.44,0l0.4,0.07,0.36,0.12,0.3,0.15-0.54.93a0.39,0.39,0,0,0-.11-0.09l-0.25-.12-0.35-.09a1.2,1.2,0,0,0-.38,0,0.67,0.67,0,0,0-.4.17,0.41,0.41,0,0,0-.11.34,0.3,0.3,0,0,0,.23.25,4.52,4.52,0,0,0,.58.14l0.45,0.12a1.82,1.82,0,0,1,.37.18,0.81,0.81,0,0,1,.25.27,1.11,1.11,0,0,1,.12.4,1.62,1.62,0,0,1-.08.78,1.45,1.45,0,0,1-.39.55,1.81,1.81,0,0,1-.6.36A2.69,2.69,0,0,1,120.38,303.15Z" transform="translate(-45.17 -53.68)"/><path class="cls-6" d="M125.65,300.14a0.85,0.85,0,0,1,0,.32,1,1,0,0,1-.16.28,0.82,0.82,0,0,1-.25.21,0.71,0.71,0,0,1-.3.1,0.49,0.49,0,0,1-.41-0.12,0.56,0.56,0,0,1-.19-0.39,0.7,0.7,0,0,1,0-.32,0.88,0.88,0,0,1,.71-0.59,0.53,0.53,0,0,1,.41.12A0.61,0.61,0,0,1,125.65,300.14Z" transform="translate(-45.17 -53.68)"/><path class="cls-6" d="M129.67,297.52l1.61-.18a2.13,2.13,0,0,1,.77,0,1.54,1.54,0,0,1,.58.31,1.56,1.56,0,0,1,.38.52,2.36,2.36,0,0,1,.18.67,3.19,3.19,0,0,1-.08,1.12,2.55,2.55,0,0,1-.47.93,2.5,2.5,0,0,1-.78.66,2.71,2.71,0,0,1-1,.33l-1.6.18Zm1.24,3.48a1.3,1.3,0,0,0,.56-0.2,1.37,1.37,0,0,0,.41-0.42,2,2,0,0,0,.25-1.22,1.15,1.15,0,0,0-.29-0.69,0.77,0.77,0,0,0-.66-0.2l-0.57.07-0.26,2.72Z" transform="translate(-45.17 -53.68)"/><path class="cls-6" d="M135.5,301.44a1.78,1.78,0,0,1-.74-0.07,1.58,1.58,0,0,1-.58-0.36,2,2,0,0,1-.39-0.56,2.36,2.36,0,0,1-.19-0.69,1.94,1.94,0,0,1,0-.68,2.54,2.54,0,0,1,.21-0.66,2.65,2.65,0,0,1,.36-0.6,2.58,2.58,0,0,1,.5-0.49,2.28,2.28,0,0,1,.6-0.36,2,2,0,0,1,.67-0.18,1.63,1.63,0,0,1,.74.07,1.54,1.54,0,0,1,.57.36,1.87,1.87,0,0,1,.39.56,2.36,2.36,0,0,1,.19.69,2.33,2.33,0,0,1-.11,1,2.82,2.82,0,0,1-.49.92,2.76,2.76,0,0,1-.78.7A2.44,2.44,0,0,1,135.5,301.44Zm0.1-1a1,1,0,0,0,.57-0.22,1.41,1.41,0,0,0,.39-0.45,1.64,1.64,0,0,0,.22-1.16,1.59,1.59,0,0,0-.1-0.39,1,1,0,0,0-.18-0.3,0.72,0.72,0,0,0-.29-0.2,0.93,0.93,0,0,0-.38,0,1.2,1.2,0,0,0-.56.22,1.33,1.33,0,0,0-.4.45,2.11,2.11,0,0,0-.22.56,2,2,0,0,0,0,.59,2.23,2.23,0,0,0,.09.39,1,1,0,0,0,.19.31,0.72,0.72,0,0,0,.29.2A0.68,0.68,0,0,0,135.6,300.49Z" transform="translate(-45.17 -53.68)"/><path class="cls-6" d="M140.14,296.34l0.81-.09,1.64,2.48,0.25-2.69,1-.12-0.45,4.59-0.82.09L141,298.19l-0.25,2.62-1,.12Z" transform="translate(-45.17 -53.68)"/><path class="cls-6" d="M146.16,300.24a1.83,1.83,0,0,1-.75-0.07,1.54,1.54,0,0,1-.57-0.36,1.85,1.85,0,0,1-.4-0.56,2.34,2.34,0,0,1-.18-0.69,2.21,2.21,0,0,1,0-.68,2.54,2.54,0,0,1,.21-0.66,3.13,3.13,0,0,1,.37-0.6,2.84,2.84,0,0,1,.49-0.49,2.65,2.65,0,0,1,.6-0.36,2,2,0,0,1,.68-0.18,1.59,1.59,0,0,1,.73.07,1.5,1.5,0,0,1,.58.36,1.87,1.87,0,0,1,.39.56,2.36,2.36,0,0,1,.19.69,2.5,2.5,0,0,1-.11,1,3,3,0,0,1-.49.92,3.06,3.06,0,0,1-.78.7A2.44,2.44,0,0,1,146.16,300.24Zm0.09-1a1,1,0,0,0,.57-0.22,1.58,1.58,0,0,0,.4-0.45,1.77,1.77,0,0,0,.21-0.57,1.48,1.48,0,0,0,0-.59,1.24,1.24,0,0,0-.09-0.39,1,1,0,0,0-.19-0.3,0.69,0.69,0,0,0-.28-0.2,0.93,0.93,0,0,0-.38,0,1.2,1.2,0,0,0-.57.22,1.58,1.58,0,0,0-.4.45,1.8,1.8,0,0,0-.21.56,1.71,1.71,0,0,0,0,.59,1.24,1.24,0,0,0,.09.39,1,1,0,0,0,.19.31,0.69,0.69,0,0,0,.28.2,0.68,0.68,0,0,0,.38,0h0Z" transform="translate(-45.17 -53.68)"/><path class="cls-6" d="M149.82,296.17l-1.28.15,0.09-.93,3.59-.41-0.09.93-1.27.15-0.36,3.65-1,.12Z" transform="translate(-45.17 -53.68)"/><path class="cls-6" d="M155.47,299.19a1.59,1.59,0,0,1-.73-0.08,1.93,1.93,0,0,1-.57-0.37,2.11,2.11,0,0,1-.39-0.58,2.36,2.36,0,0,1-.19-0.69,2.3,2.3,0,0,1,0-.64,2.94,2.94,0,0,1,.19-0.64,2.78,2.78,0,0,1,.35-0.59,3.24,3.24,0,0,1,.48-0.5,2.92,2.92,0,0,1,.61-0.37,2.13,2.13,0,0,1,.72-0.19,1.61,1.61,0,0,1,1,.16,1.27,1.27,0,0,1,.59.64l-0.85.66a0.74,0.74,0,0,0-.14-0.28,0.87,0.87,0,0,0-.22-0.17,0.72,0.72,0,0,0-.25-0.07H155.8a1.24,1.24,0,0,0-.57.22,1.41,1.41,0,0,0-.39.45,1.8,1.8,0,0,0-.21.56,1.59,1.59,0,0,0,0,.57,1.24,1.24,0,0,0,.09.4,1.16,1.16,0,0,0,.2.32,0.84,0.84,0,0,0,.29.2,0.74,0.74,0,0,0,.37,0l0.27-.06a1.74,1.74,0,0,0,.27-0.14,1.27,1.27,0,0,0,.25-0.22,1.08,1.08,0,0,0,.19-0.31l0.8,0.41a1.76,1.76,0,0,1-.33.49,3,3,0,0,1-.48.38,2.73,2.73,0,0,1-.54.27A2.91,2.91,0,0,1,155.47,299.19Z" transform="translate(-45.17 -53.68)"/><path class="cls-6" d="M157.77,298.89l0.45-4.58,1.92-.22a1.12,1.12,0,0,1,.49,0,1.05,1.05,0,0,1,.37.25,1.31,1.31,0,0,1,.27.38,1.39,1.39,0,0,1,.1.92,1.9,1.9,0,0,1-.15.46,2.07,2.07,0,0,1-.27.41,1.63,1.63,0,0,1-.36.33l0.76,1.6-1.16.13-0.66-1.39-0.58.06-0.14,1.48Zm2.13-2.62a0.29,0.29,0,0,0,.18-0.08,0.45,0.45,0,0,0,.15-0.18,0.67,0.67,0,0,0,.1-0.26,1,1,0,0,0,0-.3,0.58,0.58,0,0,0-.12-0.32A0.26,0.26,0,0,0,160,295l-0.83.09L159,296.37Z" transform="translate(-45.17 -53.68)"/><path class="cls-6" d="M163.76,298.25a1.63,1.63,0,0,1-.74-0.07,1.66,1.66,0,0,1-.58-0.36,1.76,1.76,0,0,1-.39-0.56,2.2,2.2,0,0,1-.19-0.69,2.55,2.55,0,0,1,.24-1.33,3.29,3.29,0,0,1,.36-0.6,2.88,2.88,0,0,1,1.1-.86,2.52,2.52,0,0,1,.68-0.18,1.6,1.6,0,0,1,.73.08,1.66,1.66,0,0,1,.58.36,1.73,1.73,0,0,1,.38.56,2.09,2.09,0,0,1,.19.69,2.34,2.34,0,0,1-.1,1,3.26,3.26,0,0,1-.49.92,3,3,0,0,1-.78.69A2.34,2.34,0,0,1,163.76,298.25Zm0.1-.94a1.1,1.1,0,0,0,.57-0.22,1.67,1.67,0,0,0,.39-0.45,1.9,1.9,0,0,0,.25-1.16,1.59,1.59,0,0,0-.09-0.39,1.08,1.08,0,0,0-.19-0.31,0.77,0.77,0,0,0-.28-0.19,0.83,0.83,0,0,0-.39,0,1.1,1.1,0,0,0-.56.22,1.53,1.53,0,0,0-.4.44,2.18,2.18,0,0,0-.22.57,2,2,0,0,0,0,.59,1.59,1.59,0,0,0,.1.39,0.89,0.89,0,0,0,.19.31,0.72,0.72,0,0,0,.28.2A0.78,0.78,0,0,0,163.86,297.31Z" transform="translate(-45.17 -53.68)"/><path class="cls-6" d="M168,297.79a3.3,3.3,0,0,1-.94,0,2.45,2.45,0,0,1-.83-0.33l0.54-1a0.49,0.49,0,0,0,.14.11,2.12,2.12,0,0,0,.72.25,1.55,1.55,0,0,0,.48,0,0.69,0.69,0,0,0,.42-0.16,0.39,0.39,0,0,0,.09-0.3,0.26,0.26,0,0,0-.09-0.17,0.52,0.52,0,0,0-.21-0.11L168,296l-0.36-.07a2,2,0,0,1-.72-0.31,0.79,0.79,0,0,1-.29-0.57,1.63,1.63,0,0,1,.08-0.74,1.79,1.79,0,0,1,.37-0.59,2.21,2.21,0,0,1,1.28-.6,1.62,1.62,0,0,1,.44,0,2.4,2.4,0,0,1,.4.06l0.36,0.12,0.3,0.15-0.54.93a0.28,0.28,0,0,0-.11-0.09l-0.25-.11a1.79,1.79,0,0,0-.35-0.1,1.15,1.15,0,0,0-.37,0,0.64,0.64,0,0,0-.4.16,0.41,0.41,0,0,0-.12.34,0.3,0.3,0,0,0,.23.25,4.27,4.27,0,0,0,.58.15l0.46,0.11a1.51,1.51,0,0,1,.36.18,1.06,1.06,0,0,1,.25.27,0.82,0.82,0,0,1,.12.4,1.51,1.51,0,0,1-.08.78,1.49,1.49,0,0,1-.39.56,1.85,1.85,0,0,1-.59.35A3.48,3.48,0,0,1,168,297.79Z" transform="translate(-45.17 -53.68)"/><path class="cls-6" d="M171.78,297.36a3,3,0,0,1-.95,0A2.44,2.44,0,0,1,170,297l0.55-1a0.42,0.42,0,0,0,.13.1,1.8,1.8,0,0,0,.31.15l0.41,0.11a1.93,1.93,0,0,0,.48,0,0.69,0.69,0,0,0,.42-0.16,0.38,0.38,0,0,0,.1-0.3,0.28,0.28,0,0,0-.09-0.18,1,1,0,0,0-.21-0.11l-0.3-.08-0.36-.08a1.86,1.86,0,0,1-.72-0.3,0.83,0.83,0,0,1-.29-0.57,1.56,1.56,0,0,1,.09-0.75,1.48,1.48,0,0,1,.37-0.58,2,2,0,0,1,.57-0.41,2.21,2.21,0,0,1,.7-0.19,2.17,2.17,0,0,1,.44,0l0.41,0.07a2.06,2.06,0,0,1,.35.12l0.3,0.15-0.53.92-0.12-.08-0.25-.12a1.69,1.69,0,0,0-.34-0.09,1.22,1.22,0,0,0-.38,0,0.65,0.65,0,0,0-.4.17,0.38,0.38,0,0,0-.11.34,0.3,0.3,0,0,0,.22.25,4.52,4.52,0,0,0,.58.14,2.8,2.8,0,0,1,.46.12,1.51,1.51,0,0,1,.36.18,0.84,0.84,0,0,1,.26.27,1.11,1.11,0,0,1,.12.4,1.59,1.59,0,0,1-.09.77,1.41,1.41,0,0,1-.39.56,2.08,2.08,0,0,1-.59.36A2.8,2.8,0,0,1,171.78,297.36Z" transform="translate(-45.17 -53.68)"/><path class="cls-6" d="M177.05,294.35a0.69,0.69,0,0,1,0,.32,0.78,0.78,0,0,1-.16.28,0.72,0.72,0,0,1-.25.21,0.71,0.71,0,0,1-.3.1,0.49,0.49,0,0,1-.41-0.12,0.61,0.61,0,0,1-.19-0.39,0.69,0.69,0,0,1,0-.32,0.78,0.78,0,0,1,.16-0.28,1.21,1.21,0,0,1,.24-0.21,0.76,0.76,0,0,1,.3-0.1,0.49,0.49,0,0,1,.41.12A0.62,0.62,0,0,1,177.05,294.35Z" transform="translate(-45.17 -53.68)"/><path class="cls-6" d="M181.07,291.73l1.6-.18a2.19,2.19,0,0,1,.78,0,1.49,1.49,0,0,1,.57.31,1.43,1.43,0,0,1,.38.52,2.27,2.27,0,0,1,.18.67,2.78,2.78,0,0,1-.08,1.12,2.61,2.61,0,0,1-.46.93,2.5,2.5,0,0,1-.78.66,2.76,2.76,0,0,1-1,.33l-1.6.18Zm1.24,3.48a1.3,1.3,0,0,0,.56-0.2,1.46,1.46,0,0,0,.4-0.42,1.8,1.8,0,0,0,.23-0.57,2.35,2.35,0,0,0,0-.65,1.21,1.21,0,0,0-.29-0.69,0.78,0.78,0,0,0-.66-0.2l-0.57.07-0.27,2.72Z" transform="translate(-45.17 -53.68)"/><path class="cls-6" d="M186.86,295.65a1.66,1.66,0,0,1-.75-0.07,1.54,1.54,0,0,1-.57-0.36,1.63,1.63,0,0,1-.4-0.56A2.72,2.72,0,0,1,185,294a2.59,2.59,0,0,1,0-.68,2.67,2.67,0,0,1,.21-0.66,3.58,3.58,0,0,1,.36-0.59,3,3,0,0,1,.5-0.5,3.67,3.67,0,0,1,.6-0.36,2.62,2.62,0,0,1,.68-0.18,1.59,1.59,0,0,1,.73.08,1.61,1.61,0,0,1,.58.35,1.92,1.92,0,0,1,.39.57,2.36,2.36,0,0,1,.19.69,2.45,2.45,0,0,1-.11,1,2.81,2.81,0,0,1-.49.92,3.06,3.06,0,0,1-.78.7A2.3,2.3,0,0,1,186.86,295.65Zm0.09-.94a1.2,1.2,0,0,0,.57-0.22,1.9,1.9,0,0,0,.4-0.45,2,2,0,0,0,.21-0.57,1.76,1.76,0,0,0,0-.6,1.24,1.24,0,0,0-.09-0.38,1.08,1.08,0,0,0-.19-0.31,0.67,0.67,0,0,0-.28-0.19,0.68,0.68,0,0,0-.38,0,1,1,0,0,0-.57.22,1.68,1.68,0,0,0-.4.44,1.77,1.77,0,0,0-.21.57,1.7,1.7,0,0,0,0,.59,1.59,1.59,0,0,0,.1.39,1.08,1.08,0,0,0,.19.31,0.8,0.8,0,0,0,.28.2,0.78,0.78,0,0,0,.42,0h-0.05Z" transform="translate(-45.17 -53.68)"/><path class="cls-6" d="M191.51,290.55l0.81-.09,1.64,2.48,0.26-2.69,1-.12-0.44,4.59-0.82.09-1.64-2.41L192.1,295l-1,.12Z" transform="translate(-45.17 -53.68)"/><path class="cls-6" d="M197.54,294.45a1.63,1.63,0,0,1-.74-0.08,1.56,1.56,0,0,1-.58-0.35,2,2,0,0,1-.39-0.56,2.36,2.36,0,0,1-.19-0.69,2,2,0,0,1,0-.69,2.6,2.6,0,0,1,.21-0.65,3.08,3.08,0,0,1,.36-0.6,2.9,2.9,0,0,1,.5-0.49,2.28,2.28,0,0,1,.6-0.36,2,2,0,0,1,.67-0.18,1.63,1.63,0,0,1,.74.07,1.54,1.54,0,0,1,.57.36,1.87,1.87,0,0,1,.39.56,2.36,2.36,0,0,1,.19.69,2.49,2.49,0,0,1-.1,1,3.26,3.26,0,0,1-.49.92,3,3,0,0,1-.79.7A2.44,2.44,0,0,1,197.54,294.45Zm0.1-1a1.1,1.1,0,0,0,.57-0.22,1.41,1.41,0,0,0,.39-0.45,1.9,1.9,0,0,0,.25-1.16,2.23,2.23,0,0,0-.09-0.39,1,1,0,0,0-.19-0.3,0.66,0.66,0,0,0-.29-0.2,0.91,0.91,0,0,0-.38,0,1.2,1.2,0,0,0-.56.22,1.33,1.33,0,0,0-.4.45,2.11,2.11,0,0,0-.22.56,2,2,0,0,0,0,.59,1.59,1.59,0,0,0,.1.39,0.94,0.94,0,0,0,.18.31,0.72,0.72,0,0,0,.29.2A0.68,0.68,0,0,0,197.64,293.5Z" transform="translate(-45.17 -53.68)"/><path class="cls-6" d="M201.19,290.38l-1.28.15,0.09-.93,3.59-.41-0.09.93-1.27.15-0.36,3.65-1,.12Z" transform="translate(-45.17 -53.68)"/><path class="cls-6" d="M206.86,293.4a1.59,1.59,0,0,1-.73-0.08,1.7,1.7,0,0,1-.57-0.37,2.11,2.11,0,0,1-.39-0.58,2.08,2.08,0,0,1-.19-0.7,1.92,1.92,0,0,1,0-.63,2.47,2.47,0,0,1,.19-0.64,2.91,2.91,0,0,1,.34-0.59,3.31,3.31,0,0,1,.49-0.5,2.68,2.68,0,0,1,.61-0.37,2.4,2.4,0,0,1,.72-0.2,1.75,1.75,0,0,1,1,.16,1.33,1.33,0,0,1,.59.65l-0.85.66a0.92,0.92,0,0,0-.15-0.28,0.68,0.68,0,0,0-.21-0.17,0.77,0.77,0,0,0-.26-0.07h-0.26a1.1,1.1,0,0,0-.57.22,1.41,1.41,0,0,0-.39.45,2.11,2.11,0,0,0-.22.56,1.85,1.85,0,0,0,0,.57,1.56,1.56,0,0,0,.1.4,1.16,1.16,0,0,0,.2.32,0.8,0.8,0,0,0,.28.2,0.77,0.77,0,0,0,.37,0,1.31,1.31,0,0,0,.27-0.06,1.47,1.47,0,0,0,.28-0.14,1.64,1.64,0,0,0,.25-0.22,1.35,1.35,0,0,0,.19-0.31l0.8,0.41a1.61,1.61,0,0,1-.34.48,2.5,2.5,0,0,1-.47.39,2.73,2.73,0,0,1-.54.27A3.1,3.1,0,0,1,206.86,293.4Z" transform="translate(-45.17 -53.68)"/><path class="cls-6" d="M209.17,293.1l0.45-4.59,1.92-.21a1.06,1.06,0,0,1,.48,0,1.09,1.09,0,0,1,.38.25,1.26,1.26,0,0,1,.27.37,1.49,1.49,0,0,1,.12.46,1.47,1.47,0,0,1,0,.47,1.9,1.9,0,0,1-.15.46,2.07,2.07,0,0,1-.27.41,1.59,1.59,0,0,1-.36.32l0.76,1.6-1.16.14-0.66-1.39-0.58.06L210.23,293Zm2.13-2.62a0.29,0.29,0,0,0,.18-0.08,0.65,0.65,0,0,0,.15-0.18,0.79,0.79,0,0,0,.1-0.56,0.56,0.56,0,0,0-.13-0.32,0.24,0.24,0,0,0-.22-0.11l-0.83.1-0.12,1.25Z" transform="translate(-45.17 -53.68)"/><path class="cls-6" d="M215.12,292.47a1.65,1.65,0,0,1-1.32-.43,1.92,1.92,0,0,1-.39-0.57,2.2,2.2,0,0,1-.19-0.69,2.55,2.55,0,0,1,.24-1.33,3.67,3.67,0,0,1,.36-0.6,2.9,2.9,0,0,1,.5-0.49,2.28,2.28,0,0,1,.6-0.36,2,2,0,0,1,.68-0.18,1.6,1.6,0,0,1,.73.07,1.66,1.66,0,0,1,.58.36,1.85,1.85,0,0,1,.38.56,2.09,2.09,0,0,1,.19.69,2.33,2.33,0,0,1-.1,1,3.26,3.26,0,0,1-.49.92,3.06,3.06,0,0,1-.78.7A2.48,2.48,0,0,1,215.12,292.47Zm0.1-1a1.1,1.1,0,0,0,.57-0.22,1.67,1.67,0,0,0,.39-0.45,1.9,1.9,0,0,0,.25-1.16,1.59,1.59,0,0,0-.09-0.39,1.08,1.08,0,0,0-.19-0.31,0.77,0.77,0,0,0-.28-0.19,0.83,0.83,0,0,0-.39,0,1.1,1.1,0,0,0-.56.22,1.53,1.53,0,0,0-.4.44,2.32,2.32,0,0,0-.22.57,2,2,0,0,0,0,.59,1.59,1.59,0,0,0,.1.39,0.81,0.81,0,0,0,.19.31,0.72,0.72,0,0,0,.28.2,0.78,0.78,0,0,0,.35,0v0Z" transform="translate(-45.17 -53.68)"/><path class="cls-6" d="M219.4,292a3.37,3.37,0,0,1-1,0,2.32,2.32,0,0,1-.82-0.33l0.54-1a0.39,0.39,0,0,0,.13.11l0.31,0.14a2.13,2.13,0,0,0,.42.11,1.52,1.52,0,0,0,.48,0,0.63,0.63,0,0,0,.41-0.16,0.36,0.36,0,0,0,.1-0.3,0.26,0.26,0,0,0-.09-0.17,0.52,0.52,0,0,0-.21-0.11l-0.3-.08-0.35-.08a1.87,1.87,0,0,1-.72-0.31,0.8,0.8,0,0,1-.3-0.57,1.5,1.5,0,0,1,.09-0.74,1.64,1.64,0,0,1,.37-0.59,1.87,1.87,0,0,1,.58-0.4,2.1,2.1,0,0,1,.69-0.2,1.69,1.69,0,0,1,.45,0,2.57,2.57,0,0,1,.4.06l0.35,0.12,0.3,0.15-0.53.93a0.39,0.39,0,0,0-.11-0.09l-0.26-.11a1.52,1.52,0,0,0-.34-0.1,1.21,1.21,0,0,0-.38,0,0.67,0.67,0,0,0-.4.16,0.38,0.38,0,0,0-.11.34,0.28,0.28,0,0,0,.23.25,4.07,4.07,0,0,0,.57.15l0.46,0.11a1.82,1.82,0,0,1,.37.18,1.27,1.27,0,0,1,.25.27,1.11,1.11,0,0,1,.12.4,1.62,1.62,0,0,1-.09.78,1.49,1.49,0,0,1-.39.56,1.74,1.74,0,0,1-.59.35A2.71,2.71,0,0,1,219.4,292Z" transform="translate(-45.17 -53.68)"/><path class="cls-6" d="M223.13,291.58a3.3,3.3,0,0,1-.94,0,2.45,2.45,0,0,1-.83-0.33l0.54-1a0.49,0.49,0,0,0,.14.11l0.3,0.14a2.58,2.58,0,0,0,.42.11,1.55,1.55,0,0,0,.48,0,0.69,0.69,0,0,0,.42-0.16,0.35,0.35,0,0,0,.09-0.3,0.26,0.26,0,0,0-.09-0.17,0.55,0.55,0,0,0-.2-0.11l-0.3-.09-0.36-.07a2,2,0,0,1-.72-0.31,0.83,0.83,0,0,1-.29-0.57,1.63,1.63,0,0,1,.08-0.74,1.79,1.79,0,0,1,.37-0.59,2.21,2.21,0,0,1,1.28-.6,1.62,1.62,0,0,1,.44,0,2.4,2.4,0,0,1,.4.06l0.36,0.12,0.3,0.15-0.53.93a0.35,0.35,0,0,0-.12-0.09l-0.25-.11a1.69,1.69,0,0,0-.34-0.1,1.22,1.22,0,0,0-.38,0,0.64,0.64,0,0,0-.4.16,0.38,0.38,0,0,0-.11.34,0.29,0.29,0,0,0,.22.25,3.29,3.29,0,0,0,.58.14l0.46,0.12a1.51,1.51,0,0,1,.36.18,0.91,0.91,0,0,1,.25.27,0.82,0.82,0,0,1,.12.4,1.51,1.51,0,0,1-.08.78,1.49,1.49,0,0,1-.39.56,1.85,1.85,0,0,1-.59.35A3.48,3.48,0,0,1,223.13,291.58Z" transform="translate(-45.17 -53.68)"/><path class="cls-6" d="M228.41,288.56a0.69,0.69,0,0,1,0,.32,0.85,0.85,0,0,1-.16.28,0.72,0.72,0,0,1-.25.21,0.91,0.91,0,0,1-.3.11,0.54,0.54,0,0,1-.41-0.13,0.61,0.61,0,0,1-.19-0.39,0.7,0.7,0,0,1,0-.32,1.56,1.56,0,0,1,.16-0.28,1,1,0,0,1,.25-0.2,0.63,0.63,0,0,1,.3-0.1,0.53,0.53,0,0,1,.41.11A0.56,0.56,0,0,1,228.41,288.56Z" transform="translate(-45.17 -53.68)"/><path class="cls-6" d="M232.44,285.94l1.6-.18a2.11,2.11,0,0,1,.77,0,1.54,1.54,0,0,1,.58.31,1.43,1.43,0,0,1,.38.52,2.36,2.36,0,0,1,.18.67,3,3,0,0,1-.08,1.12,2.51,2.51,0,0,1-1.25,1.59,2.71,2.71,0,0,1-1,.33l-1.6.18Zm1.24,3.48a1.34,1.34,0,0,0,.56-0.2,1.46,1.46,0,0,0,.4-0.42,1.8,1.8,0,0,0,.23-0.57,2.35,2.35,0,0,0,0-.65,1.16,1.16,0,0,0-.3-0.69,0.76,0.76,0,0,0-.65-0.2l-0.57.07-0.27,2.72Z" transform="translate(-45.17 -53.68)"/><path class="cls-6" d="M238.24,289.86a1.63,1.63,0,0,1-.74-0.07,1.54,1.54,0,0,1-.57-0.36,1.74,1.74,0,0,1-.4-0.56,2.36,2.36,0,0,1-.19-0.69,2.59,2.59,0,0,1,0-.68,2.67,2.67,0,0,1,.21-0.66,3.21,3.21,0,0,1,.36-0.59,3,3,0,0,1,.5-0.5,3.67,3.67,0,0,1,.6-0.36,2.62,2.62,0,0,1,.68-0.18,1.6,1.6,0,0,1,.73.08,1.7,1.7,0,0,1,.58.35,1.92,1.92,0,0,1,.39.57,2.36,2.36,0,0,1,.18.68,2.31,2.31,0,0,1-.1,1,2.81,2.81,0,0,1-.49.92,3.06,3.06,0,0,1-.78.7A2.29,2.29,0,0,1,238.24,289.86Zm0.1-.94a1.11,1.11,0,0,0,.57-0.23,1.41,1.41,0,0,0,.39-0.45,1.58,1.58,0,0,0,.22-0.57,2,2,0,0,0,0-.59,1.18,1.18,0,0,0-.09-0.38,1.08,1.08,0,0,0-.19-0.31,0.67,0.67,0,0,0-.28-0.19,0.68,0.68,0,0,0-.38,0,1,1,0,0,0-.57.22,1.53,1.53,0,0,0-.4.44,1.77,1.77,0,0,0-.21.57,1.7,1.7,0,0,0,0,.59,1.59,1.59,0,0,0,.1.39,1.08,1.08,0,0,0,.19.31,0.7,0.7,0,0,0,.28.19,0.78,0.78,0,0,0,.37,0h0Z" transform="translate(-45.17 -53.68)"/><rect class="cls-7" x="22.33" y="219.23" width="6.23" height="146.46"/><polygon class="cls-7" points="50.75 370.41 0.14 370.41 22.32 365.69 28.56 365.69 50.75 370.41"/><rect class="cls-7" x="191.81" y="219.23" width="6.23" height="146.46"/><polygon class="cls-7" points="220.23 370.41 169.62 370.41 191.81 365.69 198.05 365.69 220.23 370.41"/></g><g id="freepik--Floor--inject-124"><polygon class="cls-6" points="0 370.4 51.2 370.16 102.41 370.07 204.83 369.9 307.25 370.07 358.46 370.16 409.66 370.4 358.46 370.64 307.25 370.73 204.83 370.9 102.41 370.73 51.2 370.64 0 370.4"/></g><g id="freepik--Light--inject-124"><circle class="cls-8" cx="362.3" cy="245.03" r="105.23" transform="translate(-112.32 274.28) rotate(-45)"/></g><g id="freepik--Lightings--inject-124"><polygon class="cls-9" points="361.54 101.65 370.55 88.74 374.98 93.25 383.1 83.52 387.74 88.38 374.57 96.86 371.04 92.46 361.54 101.65"/><polygon class="cls-9" points="358.67 108.83 371.1 106.05 371.1 110.02 380.13 110.63 380.21 114.87 368.1 112.67 369.06 108.8 358.67 108.83"/><polygon class="cls-9" points="354.51 101.64 353.59 89.69 357.85 90.21 357.76 80.46 362.5 79.95 359.81 92.57 356.02 91.86 354.51 101.64"/></g><g id="freepik--Grid--inject-4"><g class="cls-10"><line class="cls-11" x1="150.94" y1="119.41" x2="150.94" y2="394.97"/><line class="cls-11" x1="174.61" y1="119.41" x2="174.61" y2="394.97"/><line class="cls-11" x1="198.29" y1="119.41" x2="198.29" y2="394.97"/><line class="cls-11" x1="221.96" y1="119.41" x2="221.96" y2="394.97"/><line class="cls-11" x1="245.63" y1="119.41" x2="245.63" y2="394.97"/><line class="cls-11" x1="269.31" y1="119.41" x2="269.31" y2="394.97"/><line class="cls-11" x1="292.99" y1="119.41" x2="292.99" y2="394.97"/><line class="cls-11" x1="316.66" y1="119.41" x2="316.66" y2="394.97"/><line class="cls-11" x1="340.33" y1="119.41" x2="340.33" y2="394.97"/><line class="cls-11" x1="364.01" y1="119.41" x2="364.01" y2="394.97"/><line class="cls-11" x1="387.69" y1="119.41" x2="387.69" y2="394.97"/><line class="cls-11" x1="411.36" y1="119.41" x2="411.36" y2="394.97"/><line class="cls-11" x1="435.03" y1="119.41" x2="435.03" y2="394.97"/><line class="cls-11" x1="458.72" y1="119.41" x2="458.72" y2="394.97"/><line class="cls-11" x1="482.39" y1="119.41" x2="482.39" y2="394.97"/><line class="cls-11" x1="142.41" y1="136.63" x2="491.86" y2="136.63"/><line class="cls-11" x1="142.41" y1="156.58" x2="491.86" y2="156.58"/><line class="cls-11" x1="142.41" y1="176.52" x2="491.86" y2="176.52"/><line class="cls-11" x1="142.41" y1="196.46" x2="491.86" y2="196.46"/><line class="cls-11" x1="142.41" y1="216.41" x2="491.86" y2="216.41"/><line class="cls-11" x1="142.41" y1="236.34" x2="491.86" y2="236.34"/><line class="cls-11" x1="142.41" y1="256.29" x2="491.86" y2="256.29"/><line class="cls-11" x1="142.41" y1="276.23" x2="491.86" y2="276.23"/><line class="cls-11" x1="142.41" y1="296.17" x2="491.86" y2="296.17"/><line class="cls-11" x1="142.41" y1="316.12" x2="491.86" y2="316.12"/><line class="cls-11" x1="142.41" y1="336.06" x2="491.86" y2="336.06"/><line class="cls-11" x1="142.41" y1="355.99" x2="491.86" y2="355.99"/><line class="cls-11" x1="142.41" y1="375.94" x2="491.86" y2="375.94"/></g></g><g id="freepik--Bear--inject-4"><path class="cls-12" d="M417.11,421.45c2.24-4.86,18.72-19.09,23.58-34.8s5.63-28.43,2.27-47.16-13.84-31.44-20.58-39.3-26.2-23.58-30.32-27.72-9.36-7.86-22.46-21-18.06-20.25-38.27-16.88-38.74,19.86-40.26,25.47-3.07,10.15-3.82,17.26-6.37,21.34-6.37,21.34-0.37,18.71.75,24S283.49,338,283.49,338s-13.1,38.92-9.38,47.16a39.66,39.66,0,0,0,9,12.73l2.25-2.62,3.36,7.11,2.62-1.5s-0.38,1.13,6,10.48,9.74,17.6,9.74,19.09v4.86L304.8,442c-1.49,2.69-11,7.22-10.55,10.85a30,30,0,0,0,.91,5h27.19a12.19,12.19,0,0,0,6.8-1.36c3.18-1.81,3.36-8.6,3.72-11.1a1.58,1.58,0,0,0,0-.49V432.68c0-4.12,3.36-16.84,3.36-16.84s5.61,9.36,6.37,11.23,0.37,9.73.37,11.22-0.75,6.37-.75,6.37a13.34,13.34,0,0,0-5.38,5.5c-2.27,4.08,2.27,6.8,2.27,6.8h24.47a5.82,5.82,0,0,0,5.44-4.53c0.63-2.52-.06-5.88-0.54-7.75a52.08,52.08,0,0,1,4-11.62c3-6,8.44.89,8.44,0.89s0.17-4.64,1.29-.89,5.26,10.85,5.26,10.85,2.47,3-.35,3.53c-10.92,1.95-7.28,8.66-7.28,8.66h34.44s5-5,5.88-8.21-1.36-7.7-1.81-9.06a49.29,49.29,0,0,0-2.65-5.11C415.62,430.54,415.55,424.83,417.11,421.45Z" transform="translate(-45.17 -53.68)"/><path class="cls-13" d="M399,386.78a11.31,11.31,0,0,1-.84,2.81" transform="translate(-45.17 -53.68)"/><path class="cls-13" d="M439.28,356.08s0.1,2,.23,4.51" transform="translate(-45.17 -53.68)"/><path class="cls-13" d="M408.26,349l-0.28,4.8a25.3,25.3,0,0,1,.56,4.51q-0.13,3-.56,5.88l-2,4.2-0.29-1.68-0.28,3.36-1.13,2.52-1.13,2.82-1.41-2.52-0.28,4.2-3.06-1,0.56,6.76V384" transform="translate(-45.17 -53.68)"/><path class="cls-13" d="M439.7,365.11c0.08,1.74.13,3.24,0.13,3.94v6.2l-2.52,6.49-1.13-2s-1.68,5.92-2.25,7-1.68,3.66-1.68,3.66a3.17,3.17,0,0,1-1.13,2.82,42.61,42.61,0,0,0-3.66,3.66" transform="translate(-45.17 -53.68)"/><path class="cls-14" d="M436.58,394.13c-3,3.36-7.49,8.23-11.23,9.73s1.13-6.72,1.13-6.72-7.12,3.75-10.08,4.87a74.71,74.71,0,0,1-9,2.24s4.49-9.73,5.24-12.35,1.13-13.44,1.5-15a71,71,0,0,1,2.25-7.85,24.07,24.07,0,0,0,.75-10.08l-2.58-1.85a54.6,54.6,0,0,1,0,8.59c-0.75,7.86-5.24,10.85-6.72,18.34-0.25,1.24-.41,2.11-0.52,2.7-2.52,5.77-13.44,30.85-17.07,35.48-2.44,3.1-5.78,7-8.12,9.63l-0.16.13a5.88,5.88,0,0,1,.41,1.1c1.08,3.7,5.17,10.8,5.17,10.8s2.47,3-.35,3.53c-10.92,1.95-7.28,8.66-7.28,8.66h34.44s5-5,5.88-8.21-1.36-7.7-1.81-9.06a49.29,49.29,0,0,0-2.65-5.11c0-.51-0.06-1.09-0.08-1.68h0v-2.6h0a10.61,10.61,0,0,1,.05-1.26V428a12,12,0,0,1,.1-1.24v-0.2c0-.42.1-0.84,0.16-1.24v0c0.06-.4.14-0.84,0.23-1.19l0.05-.22c0.08-.38.18-0.74,0.29-1.09a1.68,1.68,0,0,1,.07-0.18,9.41,9.41,0,0,1,.39-1c0.07-.14.15-0.29,0.24-0.46l0.11-.17,0.21-.34,0.14-.21,0.24-.34,0.18-.25,0.27-.36,0.2-.27,0.31-.39,0.21-.27,0.37-.45,0.21-.26,0.44-.53,0.18-.22,0.56-.66,0.24-.13c1.33-1.55,2.89-3.36,4.55-5.28l0.13-.15c0.22-.26.45-0.54,0.68-0.84l0.19-.23,0.66-.79,0.23-.28,0.64-.79,0.24-.29,0.65-.84,0.22-.28,0.67-.84,0.13-.18c1-1.34,2.08-2.74,3.08-4.2l0.22-.31L434,400l0.29-.42,0.52-.8,0.3-.48,0.5-.79,0.3-.5,0.47-.79,0.3-.52c0.15-.26.3-0.53,0.45-0.8l0.29-.52,0.43-.84c0.09-.17.18-0.34,0.26-0.51s0.28-.55.41-0.84,0.15-.31.22-0.47l0.41-.89h0A30.63,30.63,0,0,1,436.58,394.13Z" transform="translate(-45.17 -53.68)"/><path class="cls-14" d="M332.91,445.41a1.58,1.58,0,0,0,0-.49V432.68c0-4.12,3.36-16.84,3.36-16.84s5.61,9.36,6.37,11.23,0.37,9.73.37,11.22v0.45a0.64,0.64,0,0,1,0,.13v0.54h0a6.58,6.58,0,0,1-.07.66v0.13l-0.08.69h0c-0.23,1.81-.52,3.74-0.52,3.74a13.34,13.34,0,0,0-5.38,5.5c-2.27,4.08,2.27,6.8,2.27,6.8h24.47a5.82,5.82,0,0,0,5.44-4.53c0.63-2.52-.06-5.88-0.54-7.75a53,53,0,0,1,2.44-8v-0.06c0.22-.57.46-1.14,0.71-1.73a0.3,0.3,0,0,0,0-.08c0.26-.59.54-1.18,0.84-1.77s0.54-1.06.84-1.62l-1.62-.94c-4.12-2.62-12.36-1.5-12.36-1.5s0.76-2.25,2.25-7.49-1.13-13.84-2.25-22.82-1.5-7.12-1.5-7.12a82.67,82.67,0,0,1-5.23-14.6c-1.5-6.74,0-15,0-15s5.23-11.22,6.72-13.44l-8.23,9,4.12-12.73,6-15.72-9.73,7.49,4.12-16.1s-10.85,4.86-12.73,10.48a14.17,14.17,0,0,1-6.36,7.86l3.74-10.48-4.12,4.49,3-12.35-25.83-1.13,3.36,10.08a63.23,63.23,0,0,1,1.5,7.49l-16.84-11.22,8.62,8.18-9.63-5.17s0.27,7.79,1,9.28,3,5.24,3.36,7.49,1.86,5.24,4.49,9.36,9,15.35,9,15.35l-13.85-11.61-13.84-15s7.11,14.6,8.6,18.34,6.72,19.46,6.72,19.46-6.72-1.13-7.85-.37-6.72,14.59-2.62,23.2a54.18,54.18,0,0,1,3.24,9.19,98,98,0,0,1,5,8.69v0.06c0.19,0.38.37,0.74,0.55,1.1l0.1,0.2,0.45,0.94a1,1,0,0,0,.13.28c0.13,0.28.26,0.55,0.38,0.84a1,1,0,0,0,.13.32c0,0.11.21,0.47,0.3,0.69s0.09,0.24.14,0.34l0.24,0.58,0.13,0.36c0,0.12.13,0.32,0.18,0.47s0.08,0.24.13,0.35,0.08,0.26.13,0.37,0.07,0.23.1,0.34,0.06,0.19.08,0.27,0.05,0.22.08,0.31a0.4,0.4,0,0,1,0,.18,2,2,0,0,1,0,.34v4.86l-2.24,6.72c-1.49,2.69-11,7.22-10.55,10.85a30,30,0,0,0,.91,5h27.19a12.19,12.19,0,0,0,6.8-1.36C332.35,454.7,332.54,447.91,332.91,445.41Z" transform="translate(-45.17 -53.68)"/><path class="cls-14" d="M381.14,432.57l-0.79.64c0.41,0.44.66,0.75,0.66,0.75A13.53,13.53,0,0,1,381.14,432.57Z" transform="translate(-45.17 -53.68)"/><path class="cls-13" d="M413.23,347.07c0.23,1.15.43,2.32,0.6,3.48,0.34,2.22.57,4.43,0.71,6.55" transform="translate(-45.17 -53.68)"/><path class="cls-13" d="M393.11,302.82c0.75,1.37,1.51,3,2.3,4.86,3,7.12,10.85,20.58,14.59,28.82a44.21,44.21,0,0,1,2.58,7.68" transform="translate(-45.17 -53.68)"/><path class="cls-13" d="M387.17,296.82c1.31,0.18,2.62,1.13,4,2.9" transform="translate(-45.17 -53.68)"/><path class="cls-12" d="M345.13,328.48l1.33-2.66s7.32-2.76,10-6.72S362,306.37,362,306.37l2.1,3.19,3.21-5.88-0.44-7.56v5.31s4-3.1,4.43-5.31,1.33-14.62-.89-19-11.06-15-11.06-15l0.44-1.77s4.43-7.08,3.1-12.4-8.4-4.86-10.62-3.54-8.85,7.08-8.85,7.08-10.19-4-24.8-2.22-21.25,4.43-21.25,4.43-6.2-5.31-11.07-4-8.85,6.64-7.56,11.51,8,9.34,8,9.34-6.2,7.56-8,15.49,0.89,12.84.89,12.84L281,296.6s-0.45,7.08-.45,8.4,3.1,9.29,3.1,9.29l2.65-4.86s2.66,7.08,3.55,8.4-1.33,2.65,5.31,5.31a70.84,70.84,0,0,1,13.28,7.56,31.54,31.54,0,0,0,5.58,4.78c3,1.89,10.81,5.95,10.81,5.95l1.35-2.44,4.6,4.87s3-4.33,3.79-5.14,4.6-6.22,4.6-6.22l-0.55,4.6Z" transform="translate(-45.17 -53.68)"/><path class="cls-14" d="M309.48,312s4.39,9.53,4.95,10.66,3.92,6.72,3.92,6.72l-2.81-2a68.73,68.73,0,0,0,4.2,6.72c1.4,1.66,10.64,10.63,10.64,10.63l4.12-6.07,3.17,1,2.8-6.16,1.68-10.08h1.4l-0.06-14-0.78-1.64Z" transform="translate(-45.17 -53.68)"/><polyline class="cls-13" points="314.6 248.27 314.6 254.76 312.91 258.98 312.06 260.67 310.65 259.27 310.38 260.67 308.96 263.49 307.28 265.75 306.14 266.88 305.3 265.47 302.76 267.44 301.35 268.57"/><path class="cls-13" d="M289,283.06s-3.1,5.08-3.1,8.46v5l2-1.13s0.56,2.52.84,3.36,2,4.51,2,4.51l1.13,0.84,1.68-.28,1.68,3.36,2.82,2.52,1.68,0.84h1.41" transform="translate(-45.17 -53.68)"/><path class="cls-14" d="M295.3,257.31a12,12,0,0,0-6.59-3.07c-3.95-.44-7.46,3.95-7,5.27s1.32,4,3.07,4.39l1.76,0.44,2.64,0.84Z" transform="translate(-45.17 -53.68)"/><path class="cls-14" d="M348.44,252.92a7.5,7.5,0,0,1,4.83-5.7c4.39-1.76,7.46-1.32,7.46,3.07s-3.51,11.42-3.51,11.42Z" transform="translate(-45.17 -53.68)"/><path class="cls-15" d="M316.8,276.73s-4.77,2.23-5.09,5.4-4.13,24.16-2.23,29.88,14,22.88,17.17,23.52,5.72-.95,7.94-5.4,8.27-15.89,8.9-20.67-5.4-25.11-7-29.24-6.36-6-9.24-6S316.8,276.73,316.8,276.73Z" transform="translate(-45.17 -53.68)"/><path class="cls-14" d="M330.78,277.57c0,1.93-3.13,6.36-7,6.36s-7-4.43-7-6.36,3.13-3.49,7-3.49S330.78,275.66,330.78,277.57Z" transform="translate(-45.17 -53.68)"/><path class="cls-14" d="M332.77,289.09c-3.21-2.28-7.7-2.38-11.85-1a10.41,10.41,0,0,0-7.31,10.27c0,4.45-2.23,8.27-1.27,11.76s7.31,14.63,9.53,17.8,5.72,6,9.24,4.13,9.53-21,9.85-22.88-4.62-15.17-4.7-15.37A9.73,9.73,0,0,0,332.77,289.09Z" transform="translate(-45.17 -53.68)"/><path class="cls-15" d="M332.77,289.09c-3.21-2.28-7.7-2.38-11.85-1a10.34,10.34,0,0,0-5.58,4.2l0.1,0.29,3,4.77,1.73-6.72a16.49,16.49,0,0,1,3.26-.65c1.08,0,5.42.43,5.42,0.43l1.74,5.88,3.87-5.5A9.17,9.17,0,0,0,332.77,289.09Z" transform="translate(-45.17 -53.68)"/><path class="cls-16" d="M329.12,299.93c-4.55-.84-8.9.43-12.15,7.16a14.06,14.06,0,0,0,.22,12.6l-0.08.29c1.85,3.31,3.75,6.47,4.77,7.93,2.23,3.18,5.72,6,9.24,4.13,1.5-.84,3.48-4.81,5.27-9.24a109.92,109.92,0,0,0,.78-12.43C336.93,306.65,333.68,300.79,329.12,299.93Z" transform="translate(-45.17 -53.68)"/><path class="cls-15" d="M332.16,323.36l-1.3,5.46h-5.43l-2.6-4.12-1,3.21h0c2.23,3.18,5.72,6,9.24,4.13,0.84-.47,1.86-2,2.9-4Z" transform="translate(-45.17 -53.68)"/><path class="cls-14" d="M336.38,274.6a1.51,1.51,0,1,1-1.52-1.5h0A1.51,1.51,0,0,1,336.38,274.6Z" transform="translate(-45.17 -53.68)"/><path class="cls-14" d="M313.76,276.73a1.51,1.51,0,1,1-1.51-1.51h0a1.5,1.5,0,0,1,1.5,1.5h0Z" transform="translate(-45.17 -53.68)"/><path class="cls-6" d="M317.13,276.06l-1.68.24a11.12,11.12,0,0,0-2.31-1.68,16.89,16.89,0,0,0-2.64-.34c-1.15,0-4.29.17-4.29,0.17l4.89,1.61a24.14,24.14,0,0,0,3.36.84h2.69Z" transform="translate(-45.17 -53.68)"/><path class="cls-6" d="M330,275.05l1.68-.07a10.1,10.1,0,0,1,2-2,17.93,17.93,0,0,1,2.52-.84c1.14-.2,4.25-0.6,4.25-0.6L335.9,274a24.36,24.36,0,0,1-3.16,1.44l-2.65.45Z" transform="translate(-45.17 -53.68)"/><path class="cls-14" d="M381.93,436.8s-3.36-8.23-11.6-10.08-12.73-.37-16.1,3.36-3.75,6.37-1.87,7.86a11.41,11.41,0,0,0,3,1.87l3-2.62a3.72,3.72,0,0,0,1.87,3c1.86,1.13,3.36,1.87,3.36,1.87l5.23-2.62,1.5,3.36,4.49-.75,3.36-1.5s-3.74,1.5,0,1.86S381.93,436.8,381.93,436.8Z" transform="translate(-45.17 -53.68)"/></g></svg>