<svg id="Layer_1" data-name="Layer 1" xmlns="http://www.w3.org/2000/svg" viewBox="0 0 412.48 441.37"><defs><style>.cls-1{fill:#ebebeb;}.cls-2{fill:#dbdbdb;}.cls-3{fill:#37474f;}.cls-16,.cls-4{fill:#fff;}.cls-5{fill:#ffc727;}.cls-6{fill:#c7c7c7;}.cls-15,.cls-7{fill:#263238;}.cls-8{fill:#455a64;}.cls-9{opacity:0.1;}.cls-11,.cls-15,.cls-16,.cls-9{isolation:isolate;}.cls-10{fill:#a6a6a6;}.cls-11,.cls-12,.cls-15,.cls-16{opacity:0.2;}.cls-13{fill:#ad6359;}.cls-14{fill:#ff98b9;}</style></defs><title>403 Error with animal</title><g id="freepik--background-complete--inject-143"><rect class="cls-1" x="363.59" y="264.75" width="26.48" height="11.19"/><rect class="cls-1" x="348.82" y="278.86" width="26.48" height="11.19"/><rect class="cls-1" x="378.36" y="278.86" width="26.48" height="11.19"/><rect class="cls-1" x="22.77" y="264.75" width="26.48" height="11.19"/><rect class="cls-2" x="7.99" y="278.86" width="26.48" height="11.19"/><rect class="cls-1" x="190.67" y="175.49" width="26.48" height="11.19"/><rect class="cls-2" x="175.89" y="189.6" width="26.48" height="11.19"/><rect class="cls-2" x="303.82" y="62.66" width="26.48" height="11.19"/><rect class="cls-1" x="205.44" y="189.6" width="26.48" height="11.19"/><rect class="cls-1" x="362.06" y="2.91" width="26.48" height="11.19"/><rect class="cls-2" x="376.83" y="17.02" width="26.48" height="11.19"/><rect class="cls-1" x="7.99" y="2.92" width="26.48" height="11.19"/></g><g id="freepik--Plants--inject-143"><path class="cls-3" d="M68.69,378.15c-4.38.15-9.26,0.4-12.88-2.44-3.35-2.62-6.34-6.52-5.89-11,0.13-1.28.42-2.07,1.79-1.53,2.09,0.84,3.69,3.14,5.14,4.75a44.08,44.08,0,0,0,6.07,5.76c1.56,1.2,3.23,2.23,4.82,3.38l0.6,0.45,0.22,0.17h0.13a0.23,0.23,0,0,1,.18.09v0.08a0.23,0.23,0,0,1-.16.28h0Z" transform="translate(-43.58 -52.27)"/><path class="cls-4" d="M68.9,377.86c-3.84-.07-8,0.11-11.07-2.5A17.84,17.84,0,0,1,54.25,371c-0.44-.72-1.77-2.88-1.22-3.74,1-1.55,5.58,4.78,6.22,5.39a18.7,18.7,0,0,0,8.49,4.41l0.6,0.45A21.31,21.31,0,0,1,62,375.07c-2.73-1.63-4.25-4-6.39-6.29-0.46-.49-1.85-2.12-2.38-1.1-0.34.67,1,2.78,1.22,3.23A17.72,17.72,0,0,0,57.79,375c3.07,2.68,7.2,2.58,11.08,2.74C68.88,377.81,68.9,377.83,68.9,377.86Z" transform="translate(-43.58 -52.27)"/><path class="cls-3" d="M71.1,380.82a2.37,2.37,0,0,1-.11.5h0a0.11,0.11,0,0,1-.08.09,0.19,0.19,0,0,1-.23-0.09,0.11,0.11,0,0,1,0-.11,0.14,0.14,0,0,1,0-.06V381h0a0.07,0.07,0,0,1,0,0c-0.78-2.89-1.08-5.9-1.9-8.8s-1.75-5.48-2.31-8.3c-0.35-1.78-1.59-10.71,2.34-9.59,1.75,0.49,2.94,3,3.6,4.52a18.24,18.24,0,0,1,1.45,6.42C74.2,370.64,72.2,375.6,71.1,380.82Z" transform="translate(-43.58 -52.27)"/><path class="cls-4" d="M72.36,369.7a21.29,21.29,0,0,0-.63-6.06c-0.18-.68-1-4-2.14-3.89-0.72,0-.85,1.47-0.91,1.94-0.25,2,.4,4,0.78,6a81.17,81.17,0,0,1,1.45,11.92c0,0.25-.08.51-0.1,0.76s-0.06.42-.09,0.63a0.44,0.44,0,0,0,0,.22,0.88,0.88,0,0,0,0,.17,0.19,0.19,0,0,0,.23.09,1.17,1.17,0,0,1,.07-0.49v0.4h0a0.77,0.77,0,0,1,.08-0.42,0.29,0.29,0,0,1,0-.09v-0.67A87.94,87.94,0,0,0,72.36,369.7Zm-1.33,9c-0.11-2.34-.34-4.67-0.67-7-0.27-1.87-.62-3.72-1-5.57a17.77,17.77,0,0,1-.5-3.16c0-.81.08-3.83,1.63-2,1.12,1.36,1.39,4.24,1.53,5.9a31.06,31.06,0,0,1-.11,5.54c-0.22,2.15-.57,4.23-0.91,6.3h0Z" transform="translate(-43.58 -52.27)"/><path class="cls-3" d="M73.46,392.82H73.3c-4-.2-9.33.18-12.66-2.47-2.46-2-4.87-5.82-4.09-9.1,0.88-3.69,5.87.74,7.19,1.81a121.75,121.75,0,0,1,9.81,9.54,0.18,0.18,0,0,0,0,.07h0C73.63,392.77,73.55,392.8,73.46,392.82Z" transform="translate(-43.58 -52.27)"/><path class="cls-4" d="M73.59,392.71l-0.69-.44Q69,389.8,65.24,387c-0.62-.48-5.12-4.49-5.8-3.06-0.41.87,1.08,2.63,1.55,3.23a12.5,12.5,0,0,0,3,2.72c2.67,1.66,5.9,2,8.92,2.82a2.47,2.47,0,0,1,.43.11h0.07C73.55,392.8,73.63,392.77,73.59,392.71Zm-7.91-2.28a12.43,12.43,0,0,1-3.46-2.34c-0.67-.63-3-3-2.4-4,0.33-.52.61-0.25,1.24,0.07a6.47,6.47,0,0,1,.85.49c0.67,0.44,1.29,1,1.92,1.45,1.09,0.88,2.21,1.73,3.35,2.55q2.79,2,5.72,3.85C70.5,391.75,68,391.46,65.68,390.43Z" transform="translate(-43.58 -52.27)"/><path class="cls-3" d="M80.77,384.58a23.69,23.69,0,0,1-6.86,12H73.83a0.17,0.17,0,0,1-.2-0.07,0.16,0.16,0,0,1,0-.23h0l0.2-.21c0.66-5.44,1.39-10.85,2-16.3,0.13-1.29,1.14-9.47,3.66-8.14,1.55,0.83,1.65,4.18,1.78,5.69A23.82,23.82,0,0,1,80.77,384.58Z" transform="translate(-43.58 -52.27)"/><path class="cls-4" d="M79.31,377.29c-0.13-.46-0.37-0.92-0.88-0.6-1,.61-1.36,4.45-1.53,5.52-0.67,4.39-1.71,8.61-2.76,12.9l-0.27,1.09-0.24.33a0.18,0.18,0,0,0,.2.07v-0.11s0.22-.29.32-0.44h0a28.1,28.1,0,0,0,4-7.72A26.09,26.09,0,0,0,79.32,383C79.51,381.26,79.82,378.94,79.31,377.29Zm-5.13,18.46L74,396a1.84,1.84,0,0,1,.13-0.44,77.85,77.85,0,0,0,2.45-10c0.29-1.71.48-3.44,0.83-5.14,0.15-.72.5-2.78,1.1-3.11s0.58,0.47.64,0.93a8.63,8.63,0,0,1,0,1.25A27.57,27.57,0,0,1,74.18,395.75Z" transform="translate(-43.58 -52.27)"/><path class="cls-3" d="M74.57,408.29h-0.8v-2.11c-0.09-2.84-.21-5.68-0.38-8.53-0.09-1.62-.21-3.23-0.38-4.82v-0.56a1.24,1.24,0,0,0-.05-0.42,34.61,34.61,0,0,0-2.75-10.44c-0.51-1.11-1.06-2.19-1.65-3.26a0.77,0.77,0,0,0-.17-0.3,0.2,0.2,0,0,0,0-.09l-0.17-.32-0.14-.23c-1.85-3.26-4-6.37-6-9.51-0.58-.89-1.16-1.79-1.72-2.7a0.86,0.86,0,0,1-.1-0.16,1.37,1.37,0,0,1-.13-0.2c-2.52-4-5-8-7.62-11.9-0.11-.14.13-0.27,0.23-0.13,1.77,2.59,3.6,5.14,5.42,7.71l0.72,1c0.48,0.68,1,1.35,1.43,2,1,1.36,1.89,2.71,2.8,4.09a113,113,0,0,1,7.37,11.92c0.16,0.31.31,0.62,0.46,0.94s0.19,0.39.27,0.59,0.21,0.46.31,0.69a36.66,36.66,0,0,1,2.69,12.6l0.06,0.91v0.42a1.64,1.64,0,0,0,0,.22V396h0v1c0.12,2.84.19,5.68,0.25,8.52C74.5,406.47,74.54,407.38,74.57,408.29Z" transform="translate(-43.58 -52.27)"/><path class="cls-3" d="M50.69,356.8c-2.19-3-5-9-1.77-12.18a3.42,3.42,0,0,1,4.57-.34c1.71,1.23,2.47,3.56,3,5.49,1.48,5.16,2.46,10.41,4.3,15.46a5.63,5.63,0,0,1,.21.54c0,0.11-.13.15-0.17,0s-0.12-.33-0.19-0.49C57.19,362.79,53.28,360.29,50.69,356.8Z" transform="translate(-43.58 -52.27)"/><path class="cls-4" d="M60.85,365.24l0-.09a34.93,34.93,0,0,1-2-3.81,74.88,74.88,0,0,1-3.15-8.44c-0.35-1.1-1.92-6.52-3.86-4.36-0.81.91-.69,2.52-0.57,3.63a13.63,13.63,0,0,0,1.69,5.07,24.64,24.64,0,0,0,7.27,7.6l0.39,0.29,0.08,0.14a0.41,0.41,0,0,0,0,.09h0a0.13,0.13,0,0,0,.17-0.07h0A0.07,0.07,0,0,0,60.85,365.24Zm-0.85-.6a28.93,28.93,0,0,1-6.17-6.18,15.29,15.29,0,0,1-2-4.1,12,12,0,0,1-.44-2,8.51,8.51,0,0,1-.09-1.52c0-1.11.5-2.32,1.16-2.44s1.08,0.33,1.62,1.26a9.85,9.85,0,0,1,.48,1,26,26,0,0,1,.91,2.56c0.45,1.44.91,2.86,1.43,4.27,0.35,1,.72,1.91,1.13,2.84a36.64,36.64,0,0,0,2.4,4.66,4.58,4.58,0,0,1-.43-0.35h0Z" transform="translate(-43.58 -52.27)"/><path class="cls-3" d="M431.69,365c-0.36,2.92-.92,5.82-1.51,8.7-0.34,1.63-.69,3.26-1,4.9-0.36,1.8-.9,3.64-0.41,5.46h0a1.14,1.14,0,0,1,0,.25h0a0.22,0.22,0,0,1-.38-0.06v-0.13h0a6.75,6.75,0,0,1-.63-1.52,38.89,38.89,0,0,1-1.45-4.22,36.65,36.65,0,0,1-1.42-9,30.78,30.78,0,0,1,.85-8.11c0.52-2.12,1.26-5.28,2.84-6.9s2.62,0.88,3,2.07C432.48,359.16,432,362.27,431.69,365Z" transform="translate(-43.58 -52.27)"/><path class="cls-4" d="M429.07,358.84c-1.06,0-1.84,3.44-2.22,4.92a29.84,29.84,0,0,0-.9,7.17,38.32,38.32,0,0,0,2.2,12.72c0,0.16.11,0.33,0.17,0.5h0v0.11a0.22,0.22,0,0,0,.38.07c-0.07-.36-0.12-0.71-0.16-1.07s-0.08-.65-0.1-1a51,51,0,0,1,.65-10.54C429.67,367.73,430.48,358.84,429.07,358.84ZM428.31,383c0,0.48.13,0.94,0.21,1.41-0.11-.34-0.21-0.68-0.32-1a42.88,42.88,0,0,1-2-11.23,28.9,28.9,0,0,1,1.29-9.77c0.15-.47.92-3.34,1.58-3.2,0.46,0.1.57,2.69,0.58,2.75v1.56c0,1.07-.09,2.14-0.18,3.21-0.2,2.31-.53,4.62-0.81,6.92A40.3,40.3,0,0,0,428.31,383Z" transform="translate(-43.58 -52.27)"/><path class="cls-3" d="M448.46,373.1c-2,3.81-5.25,6.73-8.65,9.24-1.83,1.34-3.71,2.59-5.56,3.89a29.8,29.8,0,0,0-4.8,3.69l-0.19.2a7.68,7.68,0,0,0-1,1.37,0.12,0.12,0,0,1-.09.06,0.1,0.1,0,1,1-.07,0h0a0.13,0.13,0,0,1,0-.15v-0.25c0.56-4.46,3.67-9,6.31-12.39a23.68,23.68,0,0,1,10-8c1-.39,3.35-1.47,4.39-0.64S448.87,372.29,448.46,373.1Z" transform="translate(-43.58 -52.27)"/><path class="cls-4" d="M445.43,373.12c-0.92-.93-3.66,1.36-4.34,1.9a44.58,44.58,0,0,0-5.66,5.5A40.79,40.79,0,0,0,428.2,391h0l-0.09.12v0.25a0.12,0.12,0,0,0,0,.15l0.14-.16c0.34-.42.7-0.82,1.06-1.22a1.8,1.8,0,0,1,.19-0.2,87.36,87.36,0,0,1,8.46-7.47,42.79,42.79,0,0,0,5.63-5.47C444,376.46,446.21,373.9,445.43,373.12Zm-0.85,2c-2.31,3.82-6.3,6.62-9.69,9.41a46,46,0,0,0-6.44,6.11,43.23,43.23,0,0,1,6.68-9.4,58.58,58.58,0,0,1,4.59-4.73,25,25,0,0,1,2.79-2.23,9,9,0,0,1,1.89-1c1.29-.36.6,1.22,0.18,1.88v0Z" transform="translate(-43.58 -52.27)"/><path class="cls-3" d="M427.65,400.57a0.23,0.23,0,0,1-.2.11l0,0.07a0.07,0.07,0,0,1,0,.1h0a0.08,0.08,0,0,1-.1,0c-3.61-3.68-7.09-8.15-8.89-13a20.1,20.1,0,0,1-1.29-6.41c0-1.5-.12-4.52,1.16-5.61,2.58-2.2,4.94,7.12,5.29,8.53,0.64,2.56,1.06,5.17,1.65,7.74,0.65,2.82,1.5,5.58,2.34,8.34A0.19,0.19,0,0,1,427.65,400.57Z" transform="translate(-43.58 -52.27)"/><path class="cls-4" d="M427.65,400.57c-0.14-.24-0.28-0.48-0.41-0.72a43.54,43.54,0,0,1-4.65-12.52,39.62,39.62,0,0,0-1.72-6.52c-0.21-.52-0.85-2.5-1.71-1.5-0.44.52-.07,4.29,0.1,5.26a27.59,27.59,0,0,0,2.1,6.4,45.35,45.35,0,0,0,5.92,9.62l0.21,0.26a0.07,0.07,0,0,0,0-.1h0l0-.07A0.23,0.23,0,0,0,427.65,400.57Zm-5.25-8a32.81,32.81,0,0,1-2.48-6.22,22.79,22.79,0,0,1-.54-2.61,14.6,14.6,0,0,1-.18-2.08c0-1.7.15-2.14,0.44-2.2s0.42,0.15.92,1.16a11.84,11.84,0,0,1,.73,2.07c0.26,1,.49,2,0.71,3,0.44,2,.85,4.07,1.44,6.06A33.87,33.87,0,0,0,427,399.9a52.34,52.34,0,0,1-4.63-7.34h0Z" transform="translate(-43.58 -52.27)"/><path class="cls-3" d="M439.24,391.63a12.82,12.82,0,0,1-2.37,4.93c-2.15,3-4.89,5.43-7.23,8.23-0.35.41-.69,0.84-1,1.28a4.34,4.34,0,0,1-.3.61l0.11-.64h0c0.37-2,1.61-7.88,3.14-10.91a26.68,26.68,0,0,1,3.43-5.36c0.66-.75,2.22-2.37,3.39-2S439.42,390.69,439.24,391.63Z" transform="translate(-43.58 -52.27)"/><path class="cls-4" d="M437.33,390.44c-1.26-.78-4.49,5-4.93,5.74a37.21,37.21,0,0,0-3.69,8.81c-0.1.35-.19,0.69-0.27,1l-0.13.64s0.27-.56.31-0.62l0.17-.22a10.85,10.85,0,0,1,.85-1c1.4-2.1,2.84-4.19,4.21-6.32a34.33,34.33,0,0,0,2.61-4.81C436.62,393.28,437.88,390.77,437.33,390.44ZM437,392.06c-1.79,5-5.43,9-8.21,13.45l-0.13.22a1.43,1.43,0,0,1,.11-0.39,42,42,0,0,1,3-7.34,39.4,39.4,0,0,1,2.48-4.14,20.57,20.57,0,0,1,1.55-2.15,2.74,2.74,0,0,1,1.25-.91c0.25,0.09.11,0.93,0,1.26h0Z" transform="translate(-43.58 -52.27)"/><path class="cls-3" d="M451.84,350.15c-3.73,8.56-13.52,12.55-17.76,20.81h0c-0.13.25-.25,0.51-0.37,0.77a0.17,0.17,0,0,1-.22.09l-0.06,0a0.16,0.16,0,0,1,0-.15l0.09-.18a44.64,44.64,0,0,1,5.24-15c2.14-4,5.07-7.64,9.14-9.72,1-.52,3-1.6,4.07-0.75S452.3,349.09,451.84,350.15Z" transform="translate(-43.58 -52.27)"/><path class="cls-4" d="M448.48,350.51c-0.47-.35-1.19.08-1.6,0.29a14.44,14.44,0,0,0-2.83,1.93,23.49,23.49,0,0,0-4.51,5.37,48.5,48.5,0,0,0-5.32,10.78c-0.28.86-.53,1.73-0.74,2.61a1.65,1.65,0,0,1-.07.32,0.17,0.17,0,0,0,.24,0l0,0c0.11-.25.23-0.49,0.36-0.74V371a28.18,28.18,0,0,1,2.66-4.88,65.34,65.34,0,0,1,5.58-6.62C443.08,358.61,450.12,351.72,448.48,350.51Zm-0.6,2a32.3,32.3,0,0,1-4.42,5.36c-1.55,1.73-3.11,3.44-4.63,5.19a32.75,32.75,0,0,0-3.27,4.46,25.46,25.46,0,0,0-2,4.12,36.11,36.11,0,0,1,1.46-4.29h0a64.67,64.67,0,0,1,3.61-7.21,0.26,0.26,0,0,0,0-.09,29.62,29.62,0,0,1,4.13-5.75,16.28,16.28,0,0,1,2.93-2.5c1.23-.79,2.3-1.31,2.61-0.92s-0.13,1-.47,1.62h0Z" transform="translate(-43.58 -52.27)"/><path class="cls-3" d="M438.81,360.19c-1.12,2.41-2.19,4.86-3.25,7.32-0.5,1.15-1,2.3-1.48,3.45V371l-0.54,1.25a76.31,76.31,0,0,0-4.38,11.58,35.29,35.29,0,0,0-.89,6.44V391h0v0.36a1.48,1.48,0,0,0,0,.21c-0.07,1.88,0,3.76,0,5.59,0,2.56.27,5.1,0.51,7.63a1.64,1.64,0,0,0,0,.22v0.85c0.08,0.81.15,1.63,0.22,2.45h-0.78a51.28,51.28,0,0,1-.94-7.54,0.92,0.92,0,0,1,0-.16v-1.65c0-.73,0-1.46-0.06-2.18a53.5,53.5,0,0,1,.9-12.63,0.55,0.55,0,0,1,.08-0.34,0.89,0.89,0,0,1,0-.14,2,2,0,0,1,0-.24l0.11-.39c0.06-.23.13-0.46,0.19-0.68l0.06-.21a83.69,83.69,0,0,1,4.31-10.4l0.86-1.83,0.49-1,0.76-1.54h0c1.19-2.41,2.43-4.79,3.61-7.21A0.09,0.09,0,1,1,438.81,360.19Z" transform="translate(-43.58 -52.27)"/></g><g id="freepik--Fence--inject-143"><rect class="cls-5" x="83.38" y="303.54" width="177.6" height="23.52"/><polygon class="cls-1" points="119.88 303.54 106.99 327.06 84.06 327.06 96.95 303.54 119.88 303.54"/><polygon class="cls-1" points="166.9 303.54 154.01 327.06 131.07 327.06 143.95 303.54 166.9 303.54"/><polygon class="cls-1" points="213.91 303.54 201.02 327.06 178.08 327.06 190.97 303.54 213.91 303.54"/><polygon class="cls-1" points="260.92 303.54 248.03 327.06 225.09 327.06 237.98 303.54 260.92 303.54"/><polygon class="cls-1" points="226.81 356.91 251.24 356.91 233.14 245.94 208.72 245.94 226.81 356.91"/><polygon class="cls-1" points="96.54 356.91 120.97 356.91 102.88 245.94 78.45 245.94 96.54 356.91"/><polygon class="cls-6" points="236.81 356.91 261.24 356.91 243.14 245.94 218.72 245.94 236.81 356.91"/><polygon class="cls-6" points="96.54 356.91 120.97 356.91 102.88 245.94 78.45 245.94 96.54 356.91"/><polygon class="cls-1" points="93.22 245.95 91.7 255.29 90.07 265.33 75.13 356.91 50.71 356.91 65.64 265.33 67.28 255.29 68.8 245.95 93.22 245.95"/><path class="cls-6" d="M133.27,298.22c-1.29,9.27-2.67,18.53-4.07,27.79l-4.31,27.76-4.51,27.72L118,395.34l-2.43,13.84,2-13.9,2.08-13.9,4.3-27.75,4.51-27.73C130.05,316.67,131.61,307.43,133.27,298.22Z" transform="translate(-43.58 -52.27)"/><polygon class="cls-6" points="91.7 255.29 90.07 265.33 65.64 265.33 67.28 255.29 91.7 255.29"/><polygon class="cls-1" points="233.49 245.95 231.97 255.29 230.33 265.33 215.4 356.91 190.97 356.91 205.91 265.33 207.55 255.29 209.07 245.95 233.49 245.95"/><path class="cls-6" d="M273.46,298.22c-1.29,9.27-2.67,18.53-4.07,27.79l-4.31,27.76-4.51,27.72-2.33,13.85-2.43,13.84,2-13.9,2.08-13.9,4.31-27.75,4.51-27.73C270.24,316.67,271.8,307.43,273.46,298.22Z" transform="translate(-43.58 -52.27)"/><polygon class="cls-6" points="231.97 255.29 207.55 255.29 205.91 265.33 230.33 265.33 231.97 255.29"/><rect class="cls-5" x="53.12" y="307.76" width="177.6" height="23.52"/><polygon class="cls-1" points="89.62 307.76 76.73 331.28 53.8 331.28 66.69 307.76 89.62 307.76"/><polygon class="cls-1" points="136.64 307.76 123.75 331.28 100.81 331.28 113.7 307.76 136.64 307.76"/><polygon class="cls-1" points="183.65 307.76 170.76 331.28 147.82 331.28 160.71 307.76 183.65 307.76"/><polygon class="cls-1" points="230.66 307.76 217.77 331.28 194.83 331.28 207.72 307.76 230.66 307.76"/><rect class="cls-5" x="53.12" y="213.23" width="209.5" height="42.07"/><polygon class="cls-1" points="96.18 213.23 80.98 255.29 53.92 255.29 69.13 213.23 96.18 213.23"/><polygon class="cls-1" points="151.64 213.23 136.44 255.29 109.37 255.29 124.58 213.23 151.64 213.23"/><polygon class="cls-1" points="207.09 213.23 191.89 255.29 164.83 255.29 180.04 213.23 207.09 213.23"/><polygon class="cls-1" points="262.55 213.23 247.35 255.29 220.28 255.29 235.49 213.23 262.55 213.23"/></g><g id="freepik--Floor--inject-143"><polygon class="cls-7" points="0.36 356.7 51.87 356.46 103.39 356.37 206.42 356.2 309.45 356.37 360.97 356.46 412.48 356.7 360.97 356.95 309.45 357.04 206.42 357.2 103.39 357.03 51.87 356.95 0.36 356.7"/></g><g id="freepik--Sign--inject-143"><rect class="cls-5" x="29.58" width="151.44" height="180.05"/><circle class="cls-8" cx="148.88" cy="92.57" r="25.76" transform="translate(-67.48 10.63) rotate(-22.13)"/><path class="cls-4" d="M148.88,115.21a22.65,22.65,0,1,1,22.65-22.65h0A22.67,22.67,0,0,1,148.88,115.21Zm0-43.53a20.88,20.88,0,1,0,20.88,20.88A20.88,20.88,0,0,0,148.88,71.68Z" transform="translate(-43.58 -52.27)"/><g id="freepik--evN0z7--inject-143"><path class="cls-4" d="M141.89,95.24h0l-0.06-.08c-0.61-.84-1.21-1.68-1.84-2.5A2.88,2.88,0,0,0,139.3,92a1.89,1.89,0,0,0-2.91,1.13,2.11,2.11,0,0,0,.33,1.72l4.8,7.28a7.63,7.63,0,0,0,3.48,3,11.52,11.52,0,0,0,7.72.43,6.15,6.15,0,0,0,4.09-3.55,7.87,7.87,0,0,0,.69-3.27V84.93a1.62,1.62,0,0,0-.61-1.33,1.55,1.55,0,0,0-1.73-.21,1.53,1.53,0,0,0-.94,1.48v6.5a0.46,0.46,0,0,1-.42.57c-0.27,0-.41-0.2-0.41-0.57V82a2.68,2.68,0,0,0,0-.4,1.63,1.63,0,0,0-3.25.22v8.49a1.93,1.93,0,0,1,0,.24,0.41,0.41,0,0,1-.39.36,0.39,0.39,0,0,1-.41-0.33,1.1,1.1,0,0,1,0-.26V80.91a2.35,2.35,0,0,0,0-.26,1.56,1.56,0,0,0-.79-1.29A1.62,1.62,0,0,0,146,80.77v9.55a1.61,1.61,0,0,1,0,.22,0.42,0.42,0,0,1-.41.37,0.41,0.41,0,0,1-.41-0.35,1.55,1.55,0,0,1,0-.22V82.79a1.63,1.63,0,1,0-3.26.05h0v12.4h0Z" transform="translate(-43.58 -52.27)"/><path class="cls-4" d="M141.89,95.24V82.87a1.63,1.63,0,1,1,3.26-.05v7.55a1.55,1.55,0,0,0,0,.22,0.41,0.41,0,0,0,.41.35,0.42,0.42,0,0,0,.41-0.37,1.61,1.61,0,0,0,0-.22V80.8a1.62,1.62,0,0,1,2.46-1.41,1.56,1.56,0,0,1,.79,1.29,2.35,2.35,0,0,1,0,.26v9.41a1.1,1.1,0,0,0,0,.26,0.39,0.39,0,0,0,.41.33,0.41,0.41,0,0,0,.39-0.36,1.93,1.93,0,0,0,0-.24V81.82a1.63,1.63,0,0,1,3.25-.22,2.68,2.68,0,0,1,0,.4v9.37c0,0.37.14,0.57,0.41,0.57a0.46,0.46,0,0,0,.42-0.57v-6.5a1.53,1.53,0,0,1,.94-1.48,1.55,1.55,0,0,1,1.73.21,1.62,1.62,0,0,1,.61,1.33V98.71a7.87,7.87,0,0,1-.69,3.27,6.15,6.15,0,0,1-4.09,3.55,11.52,11.52,0,0,1-7.72-.43,7.63,7.63,0,0,1-3.48-2.95l-4.8-7.28a2.11,2.11,0,0,1-.33-1.72,1.89,1.89,0,0,1,3-1.15,2.88,2.88,0,0,1,.69.66c0.63,0.82,1.23,1.66,1.84,2.5l0.06,0.08h0.05Z" transform="translate(-43.58 -52.27)"/></g><circle class="cls-4" cx="34.35" cy="4.67" r="1.68"/><circle class="cls-4" cx="176.26" cy="4.67" r="1.68"/><circle class="cls-4" cx="34.35" cy="175.39" r="1.68"/><circle class="cls-4" cx="176.26" cy="175.39" r="1.68"/></g><g id="freepik--Texts--inject-143"><path class="cls-7" d="M110.15,184.44V174H89.68v-8.34l23.48-30.14h6.38v30.07h6.17V174h-6.17v10.44h-9.39ZM99.07,165.59H111.2V149.75Z" transform="translate(-43.58 -52.27)"/><path class="cls-7" d="M167.91,155a25.55,25.55,0,0,1-1.37,8.52,21,21,0,0,1-3.78,6.73,16.86,16.86,0,0,1-25.87,0,21,21,0,0,1-3.78-6.73,27.15,27.15,0,0,1,0-17,20.9,20.9,0,0,1,3.78-6.73,17.6,17.6,0,0,1,5.71-4.45,16.83,16.83,0,0,1,14.41,0,17.44,17.44,0,0,1,5.75,4.45,20.9,20.9,0,0,1,3.78,6.73A25.53,25.53,0,0,1,167.91,155Zm-9.46,0a19.91,19.91,0,0,0-.63-5.15,13.07,13.07,0,0,0-1.79-4,8.42,8.42,0,0,0-2.74-2.59,6.76,6.76,0,0,0-3.47-.91,7,7,0,0,0-3.54.91,8.49,8.49,0,0,0-2.73,2.59,13.07,13.07,0,0,0-1.79,4,19.91,19.91,0,0,0-.63,5.15,19.46,19.46,0,0,0,.63,5.12,13.11,13.11,0,0,0,1.79,4,8.49,8.49,0,0,0,2.73,2.59,7,7,0,0,0,3.54.91,6.76,6.76,0,0,0,3.47-.91,8.42,8.42,0,0,0,2.74-2.59,13.11,13.11,0,0,0,1.79-4A19.46,19.46,0,0,0,158.45,155Z" transform="translate(-43.58 -52.27)"/><path class="cls-7" d="M198.05,159a11.17,11.17,0,0,1,7,4.17,13,13,0,0,1,2.7,8.31,13.54,13.54,0,0,1-1.3,6A13,13,0,0,1,202.8,182a17.2,17.2,0,0,1-5.71,2.87,26.06,26.06,0,0,1-7.57,1,24.36,24.36,0,0,1-9.43-1.72,17.63,17.63,0,0,1-6.83-5l5.32-6.66A12.83,12.83,0,0,0,183,176a14.07,14.07,0,0,0,6.31,1.27,10.76,10.76,0,0,0,6.52-1.69,6.07,6.07,0,0,0,2.24-5.18,6.61,6.61,0,0,0-2.59-5.61q-2.6-2-7.85-2h-2v-7h2.18a10.49,10.49,0,0,0,6.73-1.93,6.07,6.07,0,0,0,2.38-4.94,4.91,4.91,0,0,0-2-4.28,8.66,8.66,0,0,0-5.12-1.4,11.37,11.37,0,0,0-5.78,1.47,11.49,11.49,0,0,0-4.17,4.14L174,142.32a11.15,11.15,0,0,1,2.8-2.91,19.43,19.43,0,0,1,4-2.25,24.9,24.9,0,0,1,4.8-1.47,26.84,26.84,0,0,1,5.33-.52,21.86,21.86,0,0,1,6.52.91,16.54,16.54,0,0,1,5.08,2.52,10.82,10.82,0,0,1,4.45,9,12.55,12.55,0,0,1-.63,4,11.3,11.3,0,0,1-1.85,3.4,11,11,0,0,1-2.84,2.6A9.82,9.82,0,0,1,198.05,159Z" transform="translate(-43.58 -52.27)"/><path class="cls-7" d="M96.08,200.06v1.56H89.73l-0.06-9.15h6.24V194H91.45v2.2h3.86v1.44H91.46V200Z" transform="translate(-43.58 -52.27)"/><path class="cls-7" d="M97.48,201.61v-9.15h4a2.57,2.57,0,0,1,1.17.25,3.17,3.17,0,0,1,.92.69,3.33,3.33,0,0,1,.62,1,3.09,3.09,0,0,1-.21,2.72,2.61,2.61,0,0,1-1.2,1.06l2.11,3.42h-2L101,198.52H99.24v3.07ZM99.23,197h2.23a0.93,0.93,0,0,0,.46-0.12,1.1,1.1,0,0,0,.36-0.32,1.6,1.6,0,0,0,.24-0.47,1.81,1.81,0,0,0,.09-0.58,1.63,1.63,0,0,0-.11-0.59,1.47,1.47,0,0,0-.28-0.47,1.2,1.2,0,0,0-.4-0.31,0.93,0.93,0,0,0-.46-0.1H99.21Z" transform="translate(-43.58 -52.27)"/><path class="cls-7" d="M106.05,201.56L106,192.41H110a2.71,2.71,0,0,1,1.17.26,3,3,0,0,1,.92.69,3.11,3.11,0,0,1,.61,1,2.86,2.86,0,0,1,.23,1.1,3.12,3.12,0,0,1-.43,1.62,2.59,2.59,0,0,1-1.2,1.05l2.11,3.43h-2l-1.89-3.05h-1.75v3.07Zm1.75-4.64H110a1.09,1.09,0,0,0,.46-0.12,1.22,1.22,0,0,0,.36-0.32,1.6,1.6,0,0,0,.24-0.47,1.85,1.85,0,0,0,.09-0.58,1.64,1.64,0,0,0-.11-0.6,1.53,1.53,0,0,0-.28-0.46,1.16,1.16,0,0,0-.86-0.42h-2.15Z" transform="translate(-43.58 -52.27)"/><path class="cls-7" d="M118.52,201.54a4,4,0,0,1-1.82-.38,4.43,4.43,0,0,1-1.41-1,4.66,4.66,0,0,1-.92-1.49A4.56,4.56,0,0,1,114,197a4.36,4.36,0,0,1,.33-1.75,4.68,4.68,0,0,1,.93-1.49,4.43,4.43,0,0,1,1.42-1,4.07,4.07,0,0,1,1.78-.39,3.92,3.92,0,0,1,1.82.39,4.59,4.59,0,0,1,1.4,1.06,4.81,4.81,0,0,1,.91,1.49A4.76,4.76,0,0,1,123,197a4.69,4.69,0,0,1-.33,1.75,4.79,4.79,0,0,1-.92,1.48,4.4,4.4,0,0,1-1.41,1A4.11,4.11,0,0,1,118.52,201.54Zm-2.68-4.62a3.7,3.7,0,0,0,.19,1.15,2.94,2.94,0,0,0,.53,1,2.43,2.43,0,0,0,.84.68,2.61,2.61,0,0,0,2.27,0,2.68,2.68,0,0,0,.83-0.71,3.32,3.32,0,0,0,.51-1,3.47,3.47,0,0,0,.16-1.11,3.43,3.43,0,0,0-.19-1.15,3.25,3.25,0,0,0-.53-1,2.44,2.44,0,0,0-.85-0.67,2.59,2.59,0,0,0-2.26,0,2.56,2.56,0,0,0-.83.7,3.08,3.08,0,0,0-.5,1A3.48,3.48,0,0,0,115.84,196.92Z" transform="translate(-43.58 -52.27)"/><path class="cls-7" d="M124.36,201.44l-0.06-9.14h4a2.57,2.57,0,0,1,1.17.26,3,3,0,0,1,.92.69,3.06,3.06,0,0,1,.61,1,2.89,2.89,0,0,1,.23,1.1,3.07,3.07,0,0,1-.43,1.62,2.61,2.61,0,0,1-1.2,1.06l2.11,3.43h-2l-1.89-3h-1.75v3.06Zm1.75-4.63h2.23a1.07,1.07,0,0,0,.46-0.11,1.22,1.22,0,0,0,.36-0.32,1.73,1.73,0,0,0,.24-0.47,1.92,1.92,0,0,0,.09-0.59,1.63,1.63,0,0,0-.11-0.59,1.58,1.58,0,0,0-.28-0.47,1.17,1.17,0,0,0-.4-0.3,1,1,0,0,0-.46-0.11h-2.15Z" transform="translate(-43.58 -52.27)"/><path class="cls-7" d="M136,201.37l-0.06-9.15h6.15v1.56h-4.37v2.36h3.63v1.44h-3.63v3.79H136Z" transform="translate(-43.58 -52.27)"/><path class="cls-7" d="M147.11,201.37a4.18,4.18,0,0,1-1.82-.38,4.46,4.46,0,0,1-1.41-1,4.79,4.79,0,0,1-1.25-3.19A4.41,4.41,0,0,1,143,195a4.64,4.64,0,0,1,.93-1.48,4.33,4.33,0,0,1,3.21-1.43,4,4,0,0,1,1.81.4,4.3,4.3,0,0,1,1.4,1,4.74,4.74,0,0,1,.91,1.49,4.81,4.81,0,0,1,.34,1.7,4.73,4.73,0,0,1-.33,1.75,4.68,4.68,0,0,1-.92,1.47,4.33,4.33,0,0,1-3.2,1.42Zm-2.68-4.62a3.68,3.68,0,0,0,.19,1.14,3,3,0,0,0,.53,1,2.65,2.65,0,0,0,.84.68,2.44,2.44,0,0,0,1.13.25,2.59,2.59,0,0,0,1.14-.27,2.7,2.7,0,0,0,.83-0.71,3,3,0,0,0,.51-1,3.9,3.9,0,0,0,.17-1.12,3.69,3.69,0,0,0-.2-1.14,3,3,0,0,0-.53-1,2.62,2.62,0,0,0-.84-0.67,2.45,2.45,0,0,0-1.12-.24,2.34,2.34,0,0,0-1.14.27,2.5,2.5,0,0,0-.84.7,3,3,0,0,0-.5,1,3.58,3.58,0,0,0-.17,1.11h0Z" transform="translate(-43.58 -52.27)"/><path class="cls-7" d="M153,201.27v-9.15h4a2.57,2.57,0,0,1,1.17.25,3.17,3.17,0,0,1,.92.69,3.33,3.33,0,0,1,.62,1,3.09,3.09,0,0,1-.21,2.72,2.61,2.61,0,0,1-1.2,1.06l2.11,3.42h-2l-1.89-3.06h-1.75v3.07H153Zm1.75-4.64H157a0.93,0.93,0,0,0,.46-0.12,1.1,1.1,0,0,0,.36-0.32,1.39,1.39,0,0,0,.24-0.47,1.81,1.81,0,0,0,.09-0.58,1.59,1.59,0,0,0-.11-0.59,1.47,1.47,0,0,0-.28-0.47,1.2,1.2,0,0,0-.4-0.31,1.07,1.07,0,0,0-.46-0.11h-2.15Z" transform="translate(-43.58 -52.27)"/><path class="cls-7" d="M168.88,198.81a2.19,2.19,0,0,1-.23,1,2.13,2.13,0,0,1-.63.74,3.17,3.17,0,0,1-.94.46,4.24,4.24,0,0,1-1.14.16h-4.42L161.46,192h4.9a1.73,1.73,0,0,1,.86.2,2,2,0,0,1,.66.53,2.39,2.39,0,0,1,.43.74,2.54,2.54,0,0,1-.18,2.11,2,2,0,0,1-1,.87,2.28,2.28,0,0,1,1.72,2.32Zm-5.63-5.23v2.3h2.38a1,1,0,0,0,.76-0.32,1.13,1.13,0,0,0,.31-0.85,1.16,1.16,0,0,0-.29-0.83,1,1,0,0,0-.72-0.31h-2.44Zm3.83,4.91a1.24,1.24,0,0,0-.65-1.13,1,1,0,0,0-.42-0.09h-2.74v2.41h2.64a1.18,1.18,0,0,0,.46-0.09A1.68,1.68,0,0,0,167,199,1.18,1.18,0,0,0,167.08,198.49Z" transform="translate(-43.58 -52.27)"/><path class="cls-7" d="M170.28,201.16L170.23,192H172l0.06,9.15h-1.78Z" transform="translate(-43.58 -52.27)"/><path class="cls-7" d="M174,201.14L173.94,192h3.32a5,5,0,0,1,2,.35,4,4,0,0,1,2.28,2.41,5.47,5.47,0,0,1,.29,1.77,5.36,5.36,0,0,1-.3,1.89,4,4,0,0,1-.9,1.45,4.1,4.1,0,0,1-1.42.94,5.18,5.18,0,0,1-1.86.34H174Zm6-4.62a3.57,3.57,0,0,0-.19-1.21,2.8,2.8,0,0,0-.53-1,2.44,2.44,0,0,0-.86-0.61,3,3,0,0,0-1.16-.21H175.7v6h1.54a2.72,2.72,0,0,0,1.17-.24,2.44,2.44,0,0,0,.84-0.64,2.83,2.83,0,0,0,.52-1A3.85,3.85,0,0,0,180,196.52Z" transform="translate(-43.58 -52.27)"/><path class="cls-7" d="M183.19,201.08l-0.05-9.14h3.32a5.21,5.21,0,0,1,2,.35,4.08,4.08,0,0,1,1.41,1,4,4,0,0,1,.86,1.45,5.64,5.64,0,0,1,0,3.66,3.94,3.94,0,0,1-.9,1.45,4,4,0,0,1-1.41.93,5,5,0,0,1-1.86.34Zm6-4.62a4.2,4.2,0,0,0-.19-1.21,2.66,2.66,0,0,0-.53-0.95,2.47,2.47,0,0,0-.87-0.62,3,3,0,0,0-1.15-.21H184.9v6h1.55a2.67,2.67,0,0,0,1.16-.24,2.36,2.36,0,0,0,.85-0.64,2.76,2.76,0,0,0,.51-1,3.87,3.87,0,0,0,.24-1.13h0Z" transform="translate(-43.58 -52.27)"/><path class="cls-7" d="M198.76,199.43V201h-6.35l-0.06-9.15h6.24v1.56h-4.46v2.2H198v1.44h-3.85v2.39h4.62Z" transform="translate(-43.58 -52.27)"/><path class="cls-7" d="M201.9,195.1V201h-1.78l-0.06-9.15h1.38l4.81,6v-6H208l0.06,9.14h-1.45Z" transform="translate(-43.58 -52.27)"/></g><g id="freepik--Cones--inject-143"><path class="cls-5" d="M88,405.76H50.67l13.87-48.24a5.08,5.08,0,0,1,9.55,0Z" transform="translate(-43.58 -52.27)"/><polygon class="cls-1" points="35.03 321 16.43 321 19.35 310.83 32.12 310.83 35.03 321"/><polygon class="cls-1" points="39.89 337.88 11.58 337.88 14.5 327.7 36.96 327.7 39.89 337.88"/><path class="cls-9" d="M88,405.76H50.67l13.2-45.93c-1.13,29.72,17.41,39,22.69,41.1Z" transform="translate(-43.58 -52.27)"/><rect class="cls-5" y="353.49" width="51.46" height="3.21"/><path class="cls-5" d="M438.53,405.76H401.24l13.87-48.24a5.08,5.08,0,0,1,9.55,0Z" transform="translate(-43.58 -52.27)"/><polygon class="cls-1" points="385.61 321 367 321 369.92 310.83 382.69 310.83 385.61 321"/><polygon class="cls-1" points="390.46 337.88 362.15 337.88 365.07 327.7 387.53 327.7 390.46 337.88"/><path class="cls-9" d="M438.52,405.76H401.24l13.2-45.93c-1.13,29.72,17.41,39,22.69,41.1Z" transform="translate(-43.58 -52.27)"/><rect class="cls-5" x="350.57" y="353.49" width="51.46" height="3.21"/></g><g id="freepik--background-complete--inject-4"><path class="cls-1" d="M137.18,238.25h66.7s-3.32-4.34-7-4.88c0,0-7.11-21.29-19-21.44-11.07-.14-15.51,13.09-15.51,13.09s-5.12-5.94-10-3.22-7.68,10.47-7.68,10.47S139.15,235.26,137.18,238.25Z" transform="translate(-43.58 -52.27)"/><path class="cls-1" d="M442.21,219.9H357.83s0-5.41,11.63-6.48c0,0,10.61-23.69,26.81-20.5,10.13,2,15.25,15.9,15.25,15.9s7.65-11,13.72-8.81S435,213.8,435,213.8,441.26,216.84,442.21,219.9Z" transform="translate(-43.58 -52.27)"/><path class="cls-1" d="M379.56,163H322.15s5.41-5.09,7.82-5.09,9.43-17,18.41-16.29S362.14,155,362.14,155,373,151.56,379.56,163Z" transform="translate(-43.58 -52.27)"/><path class="cls-1" d="M279,208.57H230s2.44-3.19,5.13-3.59c0,0,5.23-15.66,14-15.77,8.13-.1,11.37,9.62,11.37,9.62s3.77-4.36,7.38-2.37,5.64,7.71,5.64,7.71S277.53,206.37,279,208.57Z" transform="translate(-43.58 -52.27)"/><path class="cls-1" d="M399.85,327.19s-20.79,46.56,13.24,46.56,12-48.13,12-48.13,7.88-3.49-1.27-29.46-13.22-26-17-26c-4.8,0-9.29,11.24-6,28.51C400.8,298.67,388.83,320.21,399.85,327.19Z" transform="translate(-43.58 -52.27)"/><polygon class="cls-10" points="372.54 352.36 369.25 282.21 365.98 352.36 372.54 352.36"/><polygon class="cls-10" points="370.58 311.63 358.22 297.1 367.92 313.55 370.58 311.63"/><path class="cls-1" d="M293.59,338.9s17.65,39.52-11.23,39.52-10.13-40.86-10.13-40.86-6.69-3,1.06-25,11.23-22.06,14.45-22.06c4.07,0,7.86,9.54,5.07,24.19C292.79,314.7,303,333,293.59,338.9Z" transform="translate(-43.58 -52.27)"/><polygon class="cls-10" points="236.22 352.36 239 292.82 241.79 352.36 236.22 352.36"/><polygon class="cls-10" points="237.87 317.79 248.37 305.46 240.13 319.42 237.87 317.79"/><path class="cls-2" d="M318.89,334.1s9.45-3.78,17,9.33c7.69,13.45-2,22.32-9.6,17,0,0-6,12.66-18,9.65s-14-12.66-14-12.66-10.65.75-11-7.24,7.52-15.07,7.52-15.07,0.46-19.9,13.36-19.76S318.89,334.1,318.89,334.1Z" transform="translate(-43.58 -52.27)"/><polygon class="cls-10" points="266.54 352.36 263.84 293.14 261.14 352.36 266.54 352.36"/><polygon class="cls-10" points="265 314.68 272.93 298.78 262.68 313.28 265 314.68"/></g><g id="freepik--Bench--inject-4"><rect class="cls-10" x="208.37" y="237.17" width="6.59" height="58.63"/><rect class="cls-10" x="88.96" y="237.17" width="6.59" height="58.63"/><rect class="cls-5" x="71.72" y="242.51" width="160.49" height="8.66"/><rect class="cls-11" x="71.72" y="242.51" width="160.49" height="8.66"/><rect class="cls-5" x="71.72" y="255.87" width="160.49" height="8.66"/><rect class="cls-11" x="71.72" y="255.87" width="160.49" height="8.66"/><rect class="cls-5" x="71.72" y="269.21" width="160.49" height="8.66"/><rect class="cls-11" x="71.72" y="269.21" width="160.49" height="8.66"/><rect class="cls-5" x="71.72" y="282.57" width="160.49" height="8.66"/><rect class="cls-11" x="71.72" y="282.57" width="160.49" height="8.66"/><rect class="cls-5" x="55.29" y="295.8" width="191.04" height="12.91"/><rect class="cls-11" x="55.29" y="295.8" width="191.04" height="12.91"/><rect class="cls-10" x="229.03" y="308.71" width="6.59" height="43.64"/><rect class="cls-10" x="66" y="308.71" width="6.59" height="43.64"/><g class="cls-12"><ellipse cx="211.66" cy="246.84" rx="0.81" ry="0.81"/><ellipse cx="211.66" cy="260.19" rx="0.81" ry="0.81"/><ellipse cx="211.66" cy="273.55" rx="0.81" ry="0.81"/><ellipse cx="211.66" cy="286.9" rx="0.81" ry="0.81"/><ellipse cx="92.26" cy="246.84" rx="0.81" ry="0.81"/><ellipse cx="92.26" cy="260.19" rx="0.81" ry="0.81"/><ellipse cx="92.26" cy="273.55" rx="0.81" ry="0.81"/><ellipse cx="92.26" cy="286.9" rx="0.81" ry="0.81"/></g></g><g id="freepik--fire-hydrant--inject-4"><rect class="cls-5" x="366.67" y="303.27" width="26.29" height="49.09"/><rect class="cls-5" x="364.92" y="301.33" width="29.79" height="1.93"/><rect class="cls-5" x="364.92" y="298.15" width="29.79" height="1.93"/><rect class="cls-5" x="366.67" y="300.09" width="26.29" height="1.25"/><rect class="cls-9" x="366.67" y="300.09" width="26.29" height="1.25"/><path class="cls-5" d="M410.26,350.42h26.25A13.14,13.14,0,0,0,410.26,350.42Z" transform="translate(-43.58 -52.27)"/><path class="cls-9" d="M410.26,350.42h26.25a10.69,10.69,0,0,0-.19-1.65l-25.46-1.7A13,13,0,0,0,410.26,350.42Z" transform="translate(-43.58 -52.27)"/><polygon class="cls-9" points="366.66 303.27 366.66 306.17 392.95 307.41 392.95 303.27 366.66 303.27"/><rect class="cls-9" x="387.77" y="309.81" width="2.26" height="39.53"/><rect class="cls-9" x="383.22" y="309.81" width="2.26" height="39.53"/><rect class="cls-9" x="378.67" y="309.81" width="2.26" height="39.53"/><rect class="cls-9" x="374.13" y="309.81" width="2.26" height="39.53"/><rect class="cls-9" x="369.59" y="309.81" width="2.26" height="39.53"/><rect class="cls-5" x="392.96" y="312.6" width="4.64" height="12.12"/><rect class="cls-5" x="397.6" y="313.63" width="1.77" height="10.38"/><rect class="cls-9" x="397.6" y="313.63" width="1.77" height="10.38"/><path class="cls-5" d="M443,368v5.78A2.89,2.89,0,0,0,443,368Z" transform="translate(-43.58 -52.27)"/><polygon class="cls-9" points="392.95 312.6 392.95 324.72 394.03 324.72 395.94 312.6 392.95 312.6"/><rect class="cls-5" x="362.01" y="312.6" width="4.64" height="12.12"/><rect class="cls-5" x="360.24" y="313.62" width="1.77" height="10.38"/><rect class="cls-9" x="360.24" y="313.62" width="1.77" height="10.38"/><path class="cls-5" d="M403.82,368v5.78A2.89,2.89,0,0,1,403.82,368Z" transform="translate(-43.58 -52.27)"/><polygon class="cls-9" points="366.66 312.6 366.66 324.72 365.58 324.72 363.68 312.6 366.66 312.6"/><path class="cls-5" d="M426.82,362.46a9.12,9.12,0,1,0,4.95,11.92A9.07,9.07,0,0,0,426.82,362.46Z" transform="translate(-43.58 -52.27)"/><path class="cls-9" d="M417.15,370.93a6.23,6.23,0,1,0,6.24-6.27,6.25,6.25,0,0,0-6.24,6.27S417.15,370.92,417.15,370.93Z" transform="translate(-43.58 -52.27)"/><rect class="cls-5" x="374.65" y="284.94" width="10.33" height="1.78"/><rect class="cls-9" x="374.65" y="284.94" width="10.33" height="1.78"/><path class="cls-5" d="M420.35,337.21h5.75A2.88,2.88,0,0,0,420.35,337.21Z" transform="translate(-43.58 -52.27)"/></g><g id="freepik--Shadow--inject-4"><ellipse class="cls-1" cx="224.46" cy="426.71" rx="158.81" ry="14.66"/></g><g id="freepik--Trees--inject-4"><path class="cls-3" d="M383.63,404.69h34.89s-0.08-5.22-3.5-6.61a4.65,4.65,0,0,0-5.47,1.37s-1.4-9.6-7.79-9.6-9.45,8.27-9.45,8.27a4.89,4.89,0,0,0-5-2C383.77,396.51,383.63,404.69,383.63,404.69Z" transform="translate(-43.58 -52.27)"/><path class="cls-3" d="M238,404.69s1.07-5,3.21-5.8,3.44,1.49,3.44,1.49,0.5-4.79,3.53-6.23,5.3,1.5,5.3,1.5,2.32-6.08,6.48-6.08,6.25,8.9,6.25,8.9,2.45-2.66,5-1.15,2.53,7.37,2.53,7.37H238Z" transform="translate(-43.58 -52.27)"/><path class="cls-3" d="M91.65,404.69s1.07-5,3.21-5.8,3.44,1.49,3.44,1.49,0.5-4.79,3.53-6.23,5.3,1.5,5.3,1.5,2.32-6.08,6.48-6.08,6.25,8.9,6.25,8.9,2.45-2.66,5-1.15,2.53,7.37,2.53,7.37H91.65Z" transform="translate(-43.58 -52.27)"/><path class="cls-8" d="M412.26,404.69h32.17s-1.06-4.57-3.19-4.89a3.14,3.14,0,0,0-3.12,1.79s0.09-6.36-3.89-7.43-7.33,4.53-7.33,4.53-2.49-3.21-5.91-3-4.22,5.49-4.22,5.49S413.63,399.35,412.26,404.69Z" transform="translate(-43.58 -52.27)"/><path class="cls-8" d="M213.6,404.69h32.17s-1.06-4.57-3.19-4.89a3.14,3.14,0,0,0-3.12,1.79s0.1-6.36-3.88-7.43-7.33,4.53-7.33,4.53-2.53-3.21-5.91-3-4.27,5.49-4.27,5.49S215,399.35,213.6,404.69Z" transform="translate(-43.58 -52.27)"/><path class="cls-8" d="M271.42,404.69h19.73s0-3-2-3.74a2.63,2.63,0,0,0-3.1.75s-0.79-5.44-4.41-5.44-5.35,4.69-5.35,4.69a2.77,2.77,0,0,0-2.82-1.15C271.42,400.06,271.42,404.69,271.42,404.69Z" transform="translate(-43.58 -52.27)"/><path class="cls-8" d="M116.07,404.69h19.78s-0.05-3-2-3.74a2.63,2.63,0,0,0-3.1.75s-0.79-5.44-4.41-5.44-5.36,4.69-5.36,4.69a2.77,2.77,0,0,0-2.82-1.15C116.16,400.06,116.07,404.69,116.07,404.69Z" transform="translate(-43.58 -52.27)"/></g><g id="freepik--Floor--inject-4"><polygon class="cls-7" points="405.27 357.56 360.06 357.35 314.86 357.29 224.46 357.14 134.07 357.28 88.86 357.35 43.66 357.56 88.86 357.77 134.07 357.85 224.46 357.99 314.86 357.85 360.06 357.77 405.27 357.56"/><rect class="cls-6" x="45.42" y="352.41" width="358.08" height="5.1"/><path class="cls-7" d="M422,404.68a7.77,7.77,0,0,0,0,5.09,7.08,7.08,0,0,0,.42-2.55A7.26,7.26,0,0,0,422,404.68Z" transform="translate(-43.58 -52.27)"/><path class="cls-7" d="M394,404.68a7.77,7.77,0,0,0,0,5.09A7.91,7.91,0,0,0,394,404.68Z" transform="translate(-43.58 -52.27)"/><path class="cls-7" d="M366,404.68a7.77,7.77,0,0,0,0,5.09,7.08,7.08,0,0,0,.42-2.55A7.26,7.26,0,0,0,366,404.68Z" transform="translate(-43.58 -52.27)"/><path class="cls-7" d="M338,404.68a7.77,7.77,0,0,0,0,5.09A7.91,7.91,0,0,0,338,404.68Z" transform="translate(-43.58 -52.27)"/><path class="cls-7" d="M310,404.68a7.77,7.77,0,0,0,0,5.09A7.91,7.91,0,0,0,310,404.68Z" transform="translate(-43.58 -52.27)"/><path class="cls-7" d="M282,404.68a7.91,7.91,0,0,0,0,5.09A7.77,7.77,0,0,0,282,404.68Z" transform="translate(-43.58 -52.27)"/><path class="cls-7" d="M254,404.68a7.91,7.91,0,0,0,0,5.09A7.77,7.77,0,0,0,254,404.68Z" transform="translate(-43.58 -52.27)"/><path class="cls-7" d="M226.06,404.68a7.91,7.91,0,0,0,0,5.09A7.77,7.77,0,0,0,226.06,404.68Z" transform="translate(-43.58 -52.27)"/><path class="cls-7" d="M198.07,404.68a7.91,7.91,0,0,0,0,5.09A7.77,7.77,0,0,0,198.07,404.68Z" transform="translate(-43.58 -52.27)"/><path class="cls-7" d="M170.11,404.68a7.26,7.26,0,0,0-.42,2.55,7.08,7.08,0,0,0,.42,2.55A7.77,7.77,0,0,0,170.11,404.68Z" transform="translate(-43.58 -52.27)"/><path class="cls-7" d="M142.09,404.68a7.26,7.26,0,0,0-.42,2.55,7.08,7.08,0,0,0,.42,2.55A7.77,7.77,0,0,0,142.09,404.68Z" transform="translate(-43.58 -52.27)"/><path class="cls-7" d="M114.1,404.68a7.26,7.26,0,0,0-.42,2.55,7.08,7.08,0,0,0,.42,2.55A7.77,7.77,0,0,0,114.1,404.68Z" transform="translate(-43.58 -52.27)"/></g><g id="freepik--Character--inject-4"><path class="cls-13" d="M339.81,426.93s2.53,35,2.53,35c0,6.87-.06,12.88-0.4,16a0.05,0.05,0,0,1,0,.05,4.76,4.76,0,0,1-.5,2.12v0c-2,1.39-56.57,3.27-58.48,2.69s-0.44-6.14,1.62-7.91,22.63-11.88,22.63-11.88l-2.18-35Z" transform="translate(-43.58 -52.27)"/><path class="cls-4" d="M342.34,454.61V462c0,6.87-.06,12.88-0.4,16a0.05,0.05,0,0,1,0,.05,9.37,9.37,0,0,1-.5,2.12v0c-2,1.39-56.57,3.27-58.48,2.69s-0.44-6.14,1.62-7.91,22.63-11.88,22.63-11.88l-0.1-7.48Z" transform="translate(-43.58 -52.27)"/><path class="cls-5" d="M282.94,482.87c1.92,0.58,56.46-1.3,58.48-2.69,0.78-.52,1-8.49.93-18.2v-0.3l-35.19.85v0.59S286.6,473.23,284.53,475,281,482.3,282.94,482.87Z" transform="translate(-43.58 -52.27)"/><path class="cls-7" d="M283.48,480.72c9.19-.54,46.28-1.86,55.4-1.7,0.08,0,.08.05,0,0.06-9.09.74-46.2,1.76-55.39,1.79C283.29,480.92,283.24,480.74,283.48,480.72Z" transform="translate(-43.58 -52.27)"/><path class="cls-7" d="M304.23,463.3c3.6-.81,8-0.4,10.89,2.1,0.11,0.1,0,.25-0.15.22a50.25,50.25,0,0,0-10.71-1.86A0.23,0.23,0,0,1,304.23,463.3Z" transform="translate(-43.58 -52.27)"/><path class="cls-7" d="M301.67,465c3.6-.81,8-0.4,10.89,2.1a0.13,0.13,0,0,1-.14.22,50.42,50.42,0,0,0-10.71-1.86,0.23,0.23,0,0,1,0-.46h0Z" transform="translate(-43.58 -52.27)"/><path class="cls-7" d="M299.11,466.64c3.6-.81,8-0.4,10.89,2.1a0.13,0.13,0,0,1-.14.22,50.42,50.42,0,0,0-10.71-1.86,0.23,0.23,0,0,1,0-.46h0Z" transform="translate(-43.58 -52.27)"/><path class="cls-8" d="M344.45,463.49l-38.18-.77s-4.65-69-3.78-92.06c0.94-25,11.63-99.41,11.63-99.41h32.23s-8.24,74.68-8.44,99.71C337.77,394.15,344.45,463.49,344.45,463.49Z" transform="translate(-43.58 -52.27)"/><path class="cls-7" d="M320.45,271.3l19.36,67.3c2.29-31.87,6.53-67.34,6.53-67.34Z" transform="translate(-43.58 -52.27)"/><path class="cls-7" d="M340.24,274.93l-2.05,22.2-1.89,22.23c-1.22,14.82-2.37,29.64-3.25,44.49-0.21,3.71-.35,7.44-0.29,11.18s0.23,7.43.41,11.15q0.57,11.15,1.43,22.27t1.79,22.23l2.06,22.24-1.69-22.24q-0.84-11.12-1.55-22.24c-0.46-7.42-1-14.83-1.31-22.25-0.17-3.72-.3-7.43-0.37-11.13s0.1-7.41.33-11.12c0.8-14.83,2-29.7,3-44.48Z" transform="translate(-43.58 -52.27)"/><path class="cls-7" d="M307.87,456.31c6-.05,4.22-0.12,10.21-0.11,2.92,0,22.09.08,24.81,0.56,0.06,0,.06.12,0,0.13-2.73.42-21.89,0-24.81-.05-6-.13-4.22-0.15-10.21-0.35A0.09,0.09,0,1,1,307.87,456.31Z" transform="translate(-43.58 -52.27)"/><path class="cls-13" d="M401.89,408.14s18.41,30.08,18.42,30.1c3,6.17,5.5,11.63,6.54,14.57a0.12,0.12,0,0,1,0,.05,4.76,4.76,0,0,1,.47,2.13V455c-1.22,2.14-49.55,27.6-51.5,27.92s-3-5.34-2-7.83,15.23-20.52,15.23-20.52L371,424.39Z" transform="translate(-43.58 -52.27)"/><path class="cls-4" d="M427.34,455a0.11,0.11,0,0,1,0,.05c-1.23,2.11-49.53,27.57-51.55,27.92s-3-5.34-2-7.83,15.27-20.52,15.27-20.52l-3.23-5.4c7.9-4.24,22.26-11.66,31.18-16.27,1.94,3.17,3.26,5.33,3.26,5.34,3,6.17,5.51,11.63,6.54,14.57a0.12,0.12,0,0,1,0,.05A4.58,4.58,0,0,1,427.34,455Z" transform="translate(-43.58 -52.27)"/><path class="cls-5" d="M375.79,483c2-.31,50.31-25.77,51.5-27.92,0.48-.81-2.8-8.1-7-16.8l-0.14-.27L388.78,454l0.29,0.52s-14.16,18.07-15.26,20.57S373.81,483.28,375.79,483Z" transform="translate(-43.58 -52.27)"/><path class="cls-7" d="M375.35,480.79c8-4.49,40.9-21.85,49.19-25.68,0.07,0,.09,0,0,0.06-7.87,4.63-40.87,21.72-49.15,25.76C375.27,481,375.18,480.92,375.35,480.79Z" transform="translate(-43.58 -52.27)"/><path class="cls-7" d="M386.54,456c2.89-2.29,7.07-3.86,10.71-2.85,0.14,0,.08.24,0,0.26a50.6,50.6,0,0,0-10.46,3,0.23,0.23,0,0,1-.33-0.07A0.24,0.24,0,0,1,386.54,456Z" transform="translate(-43.58 -52.27)"/><path class="cls-7" d="M385,458.66c2.9-2.29,7.08-3.86,10.71-2.85,0.14,0,.08.24,0,0.25a51.08,51.08,0,0,0-10.45,3,0.24,0.24,0,0,1-.33-0.07A0.24,0.24,0,0,1,385,458.66Z" transform="translate(-43.58 -52.27)"/><path class="cls-7" d="M383.36,461.29c2.9-2.29,7.08-3.86,10.72-2.86a0.14,0.14,0,0,1,0,.26,50.63,50.63,0,0,0-10.46,3,0.24,0.24,0,0,1-.33-0.07,0.24,0.24,0,0,1,.07-0.33h0Z" transform="translate(-43.58 -52.27)"/><path class="cls-8" d="M317.42,271.23h0c0.14,0.66,2.39,11.18,4.73,20.21,1.69,6.6,3.44,12.4,4.45,13s6.67,3.14,8.53,3.91c0,0,12.45,62.48,19,81.84,6.06,17.88,31.16,65.66,31.16,65.66l36.39-18.46s-28.44-48.49-31.43-57.19c-4.64-13.49-22-79.35-22-79.35s0.14-20.61-6.75-29.62h-44.1Z" transform="translate(-43.58 -52.27)"/><path class="cls-7" d="M385.86,448.75c5.2-2.93,3.67-2.16,8.91-5,2.53-1.4,19.42-10.59,22-11.48,0.06,0,.11.08,0.06,0.11-2.2,1.7-19.19,10.58-21.78,11.93-5.29,2.77-3.8,1.91-9.12,4.62a0.09,0.09,0,0,1-.12,0,0.09,0.09,0,0,1,0-.12h0Z" transform="translate(-43.58 -52.27)"/><path class="cls-7" d="M359,295.12c-1-.26-2.07-0.34-3.08-0.5-0.84-.14-1.64-0.28-2.46-0.46a10.71,10.71,0,0,1-4.32-1.83,10.31,10.31,0,0,1-2.8-4.38c-0.41-1-.84-1.9-1.25-2.85-0.2-.46-0.41-0.92-0.62-1.37a16.21,16.21,0,0,1-.77-1.65c0-.08-0.15,0-0.12,0a11.28,11.28,0,0,1,.35,1.19c0.14,0.46.26,0.92,0.41,1.37,0.25,0.85.5,1.65,0.77,2.46a19.06,19.06,0,0,0,1.74,4.3c1.5,2.41,4.22,3.39,6.87,3.72,0.78,0.1,1.55.15,2.32,0.2a17,17,0,0,0,2.94,0A0.12,0.12,0,0,0,359,295.12Z" transform="translate(-43.58 -52.27)"/><path class="cls-7" d="M323.66,303a72.81,72.81,0,0,1,11.41,5.34,0.13,0.13,0,0,1-.11.24c-3.84-1.65-7.76-3.25-11.51-5.09A0.26,0.26,0,0,1,323.66,303Z" transform="translate(-43.58 -52.27)"/><path class="cls-7" d="M322.5,276.52c0-.14.24-0.16,0.24,0,0,4.58.26,8.62,0.64,12.91,0.18,2,1.77,13,5.21,12.19a1.57,1.57,0,0,0,1-1.57,13.64,13.64,0,0,0-.46-3.39c-0.38-2.3-.68-4.61-0.84-6.93a63.28,63.28,0,0,1,.14-13,0.11,0.11,0,0,1,.22,0,120.42,120.42,0,0,0,1,18c0.43,2.87,1.87,7.17-1.11,7.64s-5-6.79-5.36-8.74A66.45,66.45,0,0,1,322.5,276.52Z" transform="translate(-43.58 -52.27)"/><path class="cls-7" d="M328.5,301.9a18.12,18.12,0,0,1,.77,2.28,5,5,0,0,1,.32,1.88c0,0.12-.17.13-0.24,0.05a6.65,6.65,0,0,1-.79-1.82c-0.26-.7-0.54-1.41-0.78-2.12a0.38,0.38,0,1,1,.72-0.26h0Z" transform="translate(-43.58 -52.27)"/><path class="cls-7" d="M411.91,431.32c-5.18-9.81-10.53-19.52-15.9-29.24-2.64-4.79-5.39-9.52-7.92-14.38a87.2,87.2,0,0,1-5.77-15q-4.81-15.72-9.11-31.58t-8.08-31.87c-0.63-2.66-1.33-5.33-1.84-8a24.67,24.67,0,0,1,0-8.22,26.67,26.67,0,0,0,.06-7.64,51.48,51.48,0,0,0-1.78-7.48c-0.41-1.29-.84-2.55-1.28-3.84a0.12,0.12,0,1,0-.22.07c1.57,5.16,3.17,10.38,2.84,15.85-0.16,2.62-.84,5.2-0.84,7.85a37.45,37.45,0,0,0,1.33,7.76q3.71,16.12,8,32t9,31.76a126.72,126.72,0,0,0,5.18,15.22c2.2,4.89,5,9.53,7.6,14.21,5.41,9.67,10.87,19.32,16.44,28.9l2.14,3.63C411.83,431.47,411.94,431.4,411.91,431.32Z" transform="translate(-43.58 -52.27)"/><path class="cls-5" d="M334.65,211.58c4.48-2.42,16.82-3.48,21.79-.13,6.27,4.24,12,28.73,9.49,30.19-4.57,2.59-20.37-11.65-23.82-17.49S334.65,211.58,334.65,211.58Z" transform="translate(-43.58 -52.27)"/><path class="cls-9" d="M334.65,211.58s4,6.72,7.46,12.56,19.25,20.09,23.82,17.5c1.39-.8.3-8.49-2-16L339.68,210A18.65,18.65,0,0,0,334.65,211.58Z" transform="translate(-43.58 -52.27)"/><path class="cls-13" d="M333.44,229.15c-2.17,9.75-11,38.88-20.26,42.55-6.05,2.4-32.22,5.82-35.1,3.88-2.43-1.65-4.22-24.71-.71-24.54s26.88-1.5,29.26-2.65,14.07-23.57,20.19-30.1C337.39,207,334.61,223.9,333.44,229.15Z" transform="translate(-43.58 -52.27)"/><path class="cls-13" d="M266.27,276.87c5.12,1.43,16.73.24,19.42-1.13s1.33-21.28-1.24-23-20.19-5.21-25.17-3.06S261,275.39,266.27,276.87Z" transform="translate(-43.58 -52.27)"/><path class="cls-7" d="M155.81,428.36c0.32,0,32.47-4.29,54.72-38.19,6.21-9.39,11.87-35.7,17.83-63.58,8.09-37.52,17.24-80,28.46-80.21,7.89-.12,14.43,7.64,16.19,11.2,2,4,5.72,10.13,5.77,10.18l0.72-.44c0-.06-3.78-6.19-5.73-10.13-1.82-3.67-8.55-11.67-16.77-11.67h-0.19c-11.89.18-20.72,41.21-29.26,80.88-6,27.78-11.63,54-17.73,63.32-22,33.54-53.78,37.72-54.1,37.79Z" transform="translate(-43.58 -52.27)"/><polygon class="cls-5" points="238.83 216.07 228.72 198.72 224.35 201.3 234.45 218.64 238.83 216.07"/><path class="cls-13" d="M267.61,247.92c1.93,2.06-1.59,3.17-1.59,3.17s5.45-.36,6.63,2.55-3.18,4-3.49,4.07c0.29,0,5.31-.23,6.19,2.81s-3.61,3.6-3.9,3.63c0.28,0.07,3.93,1.05,4.08,3.51,0.25,4.24-9.15,2-12,3.87,0,0,2.68,5.19,2.72,5.35,0,0-9-2-11.35-5.94a3,3,0,0,1,.46-3.67s-3-.31-3.74-2.68c-0.39-1.21,1.2-2.93,1.2-2.93a3.69,3.69,0,0,1-2.92-2.49c-0.45-1.7,1.22-3.17,1.22-3.17s-2.12-1.4-2-3.29C249.33,248.85,263.48,243.51,267.61,247.92Z" transform="translate(-43.58 -52.27)"/><path class="cls-7" d="M251.36,255.71a26.14,26.14,0,0,1,14.89-4.63,0.16,0.16,0,0,1,0,.31A53.45,53.45,0,0,0,251.36,255.71Z" transform="translate(-43.58 -52.27)"/><path class="cls-7" d="M252.75,261.64a0.06,0.06,0,0,1,0-.1,24.48,24.48,0,0,1,16.56-4c0.2,0,.36.26,0.13,0.25C265.42,257.46,257.16,259.53,252.75,261.64Z" transform="translate(-43.58 -52.27)"/><path class="cls-7" d="M271.85,264.34c-5.7-.62-11,0.67-16.29,2.78a0.06,0.06,0,0,1-.05-0.11c2.3-1.74,5.8-2.73,8.59-3.27a15,15,0,0,1,7.77.4C272,264.17,272,264.35,271.85,264.34Z" transform="translate(-43.58 -52.27)"/><path class="cls-7" d="M266,251.08a16.63,16.63,0,0,1,3.12.37,5.74,5.74,0,0,1,2.74,1.26,1.92,1.92,0,0,1,.6,1.23,2.86,2.86,0,0,1-.25,1.38A3.38,3.38,0,0,1,270,257l-2.24.59,2.3,0.23a9.38,9.38,0,0,1,3,.77,3.39,3.39,0,0,1,2,2,1.94,1.94,0,0,1-.77,2.32,5.89,5.89,0,0,1-2.8.85l-2.73.2,2.63,0.7a9,9,0,0,1,2.1.85,3.69,3.69,0,0,1,1.52,1.47,1.76,1.76,0,0,1-.17,1.88,3.79,3.79,0,0,1-1.89,1,30.13,30.13,0,0,1-4.69.72c-0.79.08-1.6,0.17-2.39,0.3a5.67,5.67,0,0,0-2.29.73,6.16,6.16,0,0,1,2.31-.51c0.79-.07,1.59-0.09,2.39-0.12a25.94,25.94,0,0,0,4.86-.45,4.48,4.48,0,0,0,2.3-1.17,2.49,2.49,0,0,0,.34-2.7,4.5,4.5,0,0,0-1.83-1.88,9.92,9.92,0,0,0-2.33-1l-0.09.91a6.64,6.64,0,0,0,3.32-1,2.84,2.84,0,0,0,1.15-1.51,3.18,3.18,0,0,0,0-1.88,4.23,4.23,0,0,0-2.48-2.48,10.42,10.42,0,0,0-3.28-.8l0.07,0.85a4,4,0,0,0,2.63-2.16,3.41,3.41,0,0,0,.23-1.7,2.47,2.47,0,0,0-.84-1.54,5.94,5.94,0,0,0-3-1.17A14.2,14.2,0,0,0,266,251.08Z" transform="translate(-43.58 -52.27)"/><path class="cls-13" d="M281.55,251.61s-17.59-14.18-19.74-4.55c-0.63,2.86.14,15.37,2.65,15.28,3.23-.14,3.88-5.43,3.76-8.81,0,0,5.31,5.67,10.33,3.12A5.61,5.61,0,0,0,281.55,251.61Z" transform="translate(-43.58 -52.27)"/><path class="cls-7" d="M262,246.27a11.8,11.8,0,0,0-.65,3.39,23.81,23.81,0,0,0,0,3.47,39.85,39.85,0,0,0,.92,6.89,6.75,6.75,0,0,0,.66,1.7,2.54,2.54,0,0,0,.7.78,1.63,1.63,0,0,0,.52.25,2,2,0,0,0,.57.07,2.9,2.9,0,0,0,1.84-.85,5.32,5.32,0,0,0,1.08-1.54,10.83,10.83,0,0,0,.84-3.47,24.33,24.33,0,0,0,.08-3.5l-0.69.28a13.84,13.84,0,0,0,2.05,1.7,12.64,12.64,0,0,0,2.3,1.25,8.84,8.84,0,0,0,2.53.63,6.86,6.86,0,0,0,2.53-.25,7.69,7.69,0,0,1-2.53,0,9.07,9.07,0,0,1-2.38-.81,12.65,12.65,0,0,1-2.14-1.32,13.43,13.43,0,0,1-1.83-1.7l-0.68-.77v1.05a26.25,26.25,0,0,1-.19,3.39,10.36,10.36,0,0,1-.84,3.17,2.85,2.85,0,0,1-2.09,1.82c-0.89,0-1.25-1.08-1.54-2.11a32.39,32.39,0,0,1-.7-3.31c-0.2-1.13-.38-2.25-0.51-3.39A22.18,22.18,0,0,1,262,246.27Z" transform="translate(-43.58 -52.27)"/><path class="cls-5" d="M283.52,249l3.65,28.54s24.36-.46,35.05-8.49c4.41-3.32,11.39-33.72,12.82-44.31s-2.66-16.9-11.3-3.32S307,246.81,305.89,246.92,283.52,249,283.52,249Z" transform="translate(-43.58 -52.27)"/><path class="cls-4" d="M331.37,233.72a11.89,11.89,0,0,1,1.55,2.55,0.85,0.85,0,0,1,.07.15l-0.08-.08a12.78,12.78,0,0,1-2.09-2.24,12.27,12.27,0,0,1-1.6-2.73A13.31,13.31,0,0,1,331.37,233.72Zm-34.62,30.34a12.43,12.43,0,0,1,1.6,2.74,12.47,12.47,0,0,1-2.18-2.3,12,12,0,0,1-1.6-2.75A12.79,12.79,0,0,1,296.75,264.06Zm20.93,5a13.2,13.2,0,0,1,2.73-1.63,11.94,11.94,0,0,1-2.29,2.2,12.89,12.89,0,0,1-2.72,1.62,12.69,12.69,0,0,1,2.31-2.19h0ZM290.3,251a11.63,11.63,0,0,1,3.07.79,12.68,12.68,0,0,1-3.16-.08,13.29,13.29,0,0,1-3.07-.78,11.59,11.59,0,0,1,3.19.07h0Zm35.29,0a11.86,11.86,0,0,1,3.07.78,12.74,12.74,0,0,1-3.17-.08,13.12,13.12,0,0,1-3.06-.78,11.53,11.53,0,0,1,3.19.08h0Zm-17.42,1.52a12.94,12.94,0,0,1,.84-3.08,14.87,14.87,0,0,1-.84,6.27,13.89,13.89,0,0,1,0-3.19h0Z" transform="translate(-43.58 -52.27)"/><path class="cls-7" d="M290,250.48c0.52,1.94.75,4,1.07,5.94s0.61,4.14.84,6.21S293,273,293.24,275.12c0,0.09-.13.11-0.14,0-0.34-2.07-1.69-10.26-1.94-12.3s-0.54-4.07-.75-6.12a62.06,62.06,0,0,1-.53-6.25S290,250.43,290,250.48Z" transform="translate(-43.58 -52.27)"/><path class="cls-9" d="M300.47,276.31c7.46-1.1,16.35-3.23,21.75-7.29,4.41-3.31,11.39-33.72,12.83-44.31,0.62-4.58.2-8.35-1.17-10.07Z" transform="translate(-43.58 -52.27)"/><path class="cls-5" d="M368.51,289.78c-0.15.14-57-3.57-57.5-4.24-0.32-.42,15.11-63,20.38-70.64,2.41-3.53,11.58-4.33,15.36-.75,9.48,9,16,37.93,17.46,46.61C366.52,275.08,369,289.25,368.51,289.78Z" transform="translate(-43.58 -52.27)"/><path class="cls-4" d="M331.92,280.41a13.1,13.1,0,0,1,.79-3.09,13.4,13.4,0,0,1-.08,3.19,11.86,11.86,0,0,1-.8,3.07A13.76,13.76,0,0,1,331.92,280.41Zm12.66-36.25a12.71,12.71,0,0,1,.79-3.08,12.09,12.09,0,0,1-.08,3.17,12.87,12.87,0,0,1-.79,3.09,12.9,12.9,0,0,1,.05-3.19h0ZM325.65,251a11.86,11.86,0,0,1,3.07.78,12.74,12.74,0,0,1-3.17-.08,13.12,13.12,0,0,1-3.06-.78,11.53,11.53,0,0,1,3.13.08h0Zm21.28-22.91a12,12,0,0,1,3,.79,12.42,12.42,0,0,1-3.17-.08,12.89,12.89,0,0,1-3.06-.77,11.27,11.27,0,0,1,3.21,0Zm6.64,30.58a12.33,12.33,0,0,1,3.06.78,12,12,0,0,1-3.17-.07,12.84,12.84,0,0,1-3.06-.79A11.94,11.94,0,0,1,353.57,258.66Zm2.09,28.43a12.7,12.7,0,0,1,3.06.78,11.64,11.64,0,0,1-3.17-.07,12.44,12.44,0,0,1-3.06-.79A12.31,12.31,0,0,1,355.66,287.09Zm-38-18.07a13.2,13.2,0,0,1,2.73-1.63,11.94,11.94,0,0,1-2.29,2.2,12.89,12.89,0,0,1-2.72,1.62A12.69,12.69,0,0,1,317.71,269Zm42-27.6c0.08,0.25.14,0.49,0.21,0.74a12.18,12.18,0,0,1-2.53,1.45A12.17,12.17,0,0,1,359.7,241.42Zm-9,33.84a12.74,12.74,0,0,1,2.73-1.62,11.75,11.75,0,0,1-2.29,2.21,13.49,13.49,0,0,1-2.73,1.62A12,12,0,0,1,350.73,275.27Zm-9.49-62.69c0.24-.19.5-0.36,0.75-0.53a3.22,3.22,0,0,1,.79.16c-0.36.33-.74,0.64-1.12,0.94a12.65,12.65,0,0,1-2.73,1.62A12.47,12.47,0,0,1,341.24,212.58Zm-3.77,50.16a12.74,12.74,0,0,1,1.6,2.73,13.91,13.91,0,0,1-3.79-5.09A12.7,12.7,0,0,1,337.47,262.74Zm30.31,20c0.07,0.48.14,0.94,0.2,1.37L367.9,284a11.89,11.89,0,0,1-1.6-2.74,12.12,12.12,0,0,1,1.49,1.46h0Zm-36.41-49a12,12,0,0,1,1.61,2.74,13.09,13.09,0,0,1-2.18-2.32,12.27,12.27,0,0,1-1.6-2.73A13.31,13.31,0,0,1,331.37,233.72Z" transform="translate(-43.58 -52.27)"/><path class="cls-13" d="M334,222.49c3,0.31,8.11-5.32,9.64-9.25a62,62,0,0,0-1.35-6.08c-0.43-1.94-.84-4.12-1.13-6.14L329,205.72a32.22,32.22,0,0,1,2.2,7.59,4.63,4.63,0,0,1,0,.85,0.85,0.85,0,0,0,0,.14C331.14,215.89,331.05,222.18,334,222.49Z" transform="translate(-43.58 -52.27)"/><path class="cls-7" d="M331.2,214.15v0.13a7.88,7.88,0,0,0,1.3-.08c7.25-1.11,7.83-10.29,7.83-12.85l-3.06,1.22-8.32,3.2a32.37,32.37,0,0,1,2.2,7.59A4.71,4.71,0,0,1,331.2,214.15Z" transform="translate(-43.58 -52.27)"/><path class="cls-13" d="M340,186.27c2,4.4,1.25,17.93-1.61,21.3-4.15,4.88-11.82,6.27-16.12,1.07s-3-22.67.32-25.82C327.37,178.19,337,179.78,340,186.27Z" transform="translate(-43.58 -52.27)"/><path class="cls-7" d="M328.1,196.23a0.14,0.14,0,0,1,.06.08c-0.07.91,0,2,.84,2.31C328,198.48,327.88,197.08,328.1,196.23Z" transform="translate(-43.58 -52.27)"/><path class="cls-7" d="M329,195.31c1.46,0,1.44,2.91.08,2.94S327.73,195.34,329,195.31Z" transform="translate(-43.58 -52.27)"/><path class="cls-7" d="M323,196.1a0.12,0.12,0,0,0-.07.08c0,0.92-.11,2-0.94,2.26v0.05C323.06,198.32,323.21,197,323,196.1Z" transform="translate(-43.58 -52.27)"/><path class="cls-7" d="M322.25,195.13c-1.46-.12-1.6,2.82-0.25,2.94S323.47,195.24,322.25,195.13Z" transform="translate(-43.58 -52.27)"/><path class="cls-7" d="M330.12,194a10,10,0,0,1-1.13-.42,2,2,0,0,1-1.08-.64,0.62,0.62,0,0,1,.11-0.76,1.52,1.52,0,0,1,1.55-.14,2.26,2.26,0,0,1,1.29,1,0.66,0.66,0,0,1-.26.9A0.66,0.66,0,0,1,330.12,194Z" transform="translate(-43.58 -52.27)"/><path class="cls-7" d="M321.12,193.64a10.77,10.77,0,0,0,1.17-.29,2,2,0,0,0,1.13-.53,0.64,0.64,0,0,0,0-.76,1.53,1.53,0,0,0-1.53-.31,2.27,2.27,0,0,0-1.39.85,0.66,0.66,0,0,0,.16.92A0.66,0.66,0,0,0,321.12,193.64Z" transform="translate(-43.58 -52.27)"/><path class="cls-7" d="M329.09,204.52a1.38,1.38,0,0,1-.77.53,2.28,2.28,0,0,1-1-.24h0a1.21,1.21,0,0,0,1.15.51,1,1,0,0,0,.72-0.8S329.12,204.48,329.09,204.52Z" transform="translate(-43.58 -52.27)"/><path class="cls-7" d="M328.16,201.78a3.08,3.08,0,0,1-2.08,1.36,3.5,3.5,0,0,1-1.11,0h-0.41a0.23,0.23,0,0,1-.19-0.2h0a0.35,0.35,0,0,1,0-.09h0v-0.08c0-.7.06-1.77,0.06-1.77-0.25.13-1.56,0.7-1.54,0.34a46.68,46.68,0,0,1,1.29-9.39,0.08,0.08,0,0,1,.16,0c-0.08,2.93-.68,5.81-0.84,8.76a5.58,5.58,0,0,1,1.47-.43c0.09,0-.19,2.06-0.16,2.38h0a4.27,4.27,0,0,0,3.21-1C328.14,201.64,328.22,201.72,328.16,201.78Z" transform="translate(-43.58 -52.27)"/><path class="cls-7" d="M325.36,203a3.6,3.6,0,0,0,1.5,1,1.63,1.63,0,0,0,1,0,1,1,0,0,0,.52-1.43,3.89,3.89,0,0,0-.37-0.85A4.62,4.62,0,0,1,325.36,203Z" transform="translate(-43.58 -52.27)"/><path class="cls-14" d="M326.87,204.08a1.63,1.63,0,0,0,1,0,1,1,0,0,0,.52-1.43A1.69,1.69,0,0,0,326.87,204.08Z" transform="translate(-43.58 -52.27)"/><path class="cls-15" d="M341.13,196.22c-1-.46-2.89-3.52-3.74-4.77s-1-7.55-1-9.43c0.19,0.13.38,0.26,0.57,0.41l0.54,0.44a9.51,9.51,0,0,1,1,1,10.07,10.07,0,0,1,1.33,2.13C340.82,188.06,341.25,192.11,341.13,196.22Z" transform="translate(-43.58 -52.27)"/><path class="cls-7" d="M324.36,187.15a4.8,4.8,0,0,0,4.39,1.7,4.93,4.93,0,0,0,3.82-2.9,4.86,4.86,0,0,1-3.74,3.29,5,5,0,0,1-4.54-2C324.22,187.16,324.31,187.09,324.36,187.15Z" transform="translate(-43.58 -52.27)"/><path class="cls-7" d="M329.49,175.24a7.59,7.59,0,0,1,6.35,3.61,5.45,5.45,0,0,1,.48,3.55c0,0.05-.11,0-0.1,0a6,6,0,0,0-2.74-5.43,7.61,7.61,0,0,0-6.75-.9,4.84,4.84,0,0,0-2.63,2.07c-0.06.1-.27,0-0.22-0.08C324.61,176.31,327,175.15,329.49,175.24Z" transform="translate(-43.58 -52.27)"/><path class="cls-7" d="M313.18,181.14a6.2,6.2,0,0,1,2.67-3.3c1.69-1,3.66-.85,5.59-0.64,0.05,0,0,.08,0,0.08a8.53,8.53,0,0,0-4.83.49,6.1,6.1,0,0,0-2.84,2.93,5.84,5.84,0,0,0,7.09,8c0.06,0,.1.07,0,0.09a6,6,0,0,1-7.69-3.76,6.11,6.11,0,0,1,0-3.88Z" transform="translate(-43.58 -52.27)"/><path class="cls-7" d="M340.83,189.09s2.68-5,.49-7.93c-1.25-1.7-5.42-1.48-5.42-1.48a7.53,7.53,0,0,0-4.78-3.24c-3.5-.85-7.66,1.2-7.66,1.2s-3.31-1.93-6.43-.17c-4.36,2.46-3.86,9.1.49,11.26,3.06,1.52,7.23-1.18,7.23-1.18,0.41,0.06,4.48,2.55,7.6-1.08,0,0,2.53,2.27,4.77.7A3.66,3.66,0,0,0,340.83,189.09Z" transform="translate(-43.58 -52.27)"/><path class="cls-13" d="M338.52,197.42s2.53-4.61,4.57-3.75,0.47,7.32-1.69,8.41a2.32,2.32,0,0,1-3.19-.83l0-.08Z" transform="translate(-43.58 -52.27)"/><path class="cls-7" d="M342.59,195.51s0.05,0,0,.06a6,6,0,0,0-2.63,4,1.29,1.29,0,0,1,1.71-.65l0.17,0.09s0,0.1,0,.09a1.43,1.43,0,0,0-1.51.67,7.17,7.17,0,0,0-.61,1.35c-0.06.15-.33,0.1-0.3-0.07h0C339.16,199,340.43,195.95,342.59,195.51Z" transform="translate(-43.58 -52.27)"/><polygon class="cls-6" points="267.45 188.51 269.68 216.77 285.15 216.77 287.39 188.51 267.45 188.51"/><rect class="cls-8" x="266.11" y="185.96" width="22.74" height="4.12"/><polygon class="cls-3" points="267.67 185.96 287.3 185.96 286.15 181.32 268.81 181.32 267.67 185.96"/><path class="cls-4" d="M315.63,255.18c0,3.67,2.41,6.64,5.37,6.64s5.37-3,5.37-6.64-2.41-6.64-5.37-6.64S315.63,251.49,315.63,255.18Z" transform="translate(-43.58 -52.27)"/><path class="cls-13" d="M352.24,219.34c13.51,16,24.32,44.36,20.41,50.46-4.36,6.79-19.48-11.88-19.31-13.07,0.13-.92-5.28-18.3-8.44-34.16C342,207.92,348.9,215.37,352.24,219.34Z" transform="translate(-43.58 -52.27)"/><path class="cls-5" d="M352.24,219.34c13.51,16,24.32,44.36,20.41,50.46-4.36,6.79-19.48-11.88-19.31-13.07,0.13-.92-5.28-18.3-8.44-34.16C342,207.92,348.9,215.37,352.24,219.34Z" transform="translate(-43.58 -52.27)"/><path class="cls-4" d="M369.75,265.26a12.92,12.92,0,0,1,1.6,2.73,13.78,13.78,0,0,1-3.79-5A12.89,12.89,0,0,1,369.75,265.26Zm-10-23.84a12.77,12.77,0,0,1,2.73-1.63,12,12,0,0,1-2.29,2.2,12.74,12.74,0,0,1-2.73,1.62,12.17,12.17,0,0,1,2.29-2.19h0Zm-3.06,18a9.24,9.24,0,0,1-1.54.07l-0.51-.67A10.09,10.09,0,0,1,356.63,259.42ZM346.91,228a12,12,0,0,1,3,.85,12.42,12.42,0,0,1-3.17-.08l-0.6-.09L346,228Z" transform="translate(-43.58 -52.27)"/><path class="cls-7" d="M351.86,250.81c-0.37-1.89-.84-3.78-1.26-5.66s-0.93-3.74-1.39-5.62l-1.49-5.59c-0.52-1.87-1-3.73-1.59-5.58,0.3,1.91.69,3.8,1.11,5.69s0.89,3.76,1.36,5.63,1,3.73,1.54,5.58S351.24,249,351.86,250.81Z" transform="translate(-43.58 -52.27)"/><path class="cls-7" d="M345.23,230.51a8.85,8.85,0,0,0,.9,2.47,7,7,0,0,0,1.61,2.08l-0.63-1.15-0.61-1.14C346.09,232,345.72,231.26,345.23,230.51Z" transform="translate(-43.58 -52.27)"/><path class="cls-13" d="M372.17,269.61c-2.66,3.08-9.78,7-33.35,4.47-3.27-.36-5.21-24.74-1.69-24.53,4.41,0.25,19,2.55,20.2,2.89C366.34,255.18,374.83,266.56,372.17,269.61Z" transform="translate(-43.58 -52.27)"/><path class="cls-13" d="M308,248.22a3.82,3.82,0,0,0,.9,4.24,5.6,5.6,0,0,0-2.3,3.06c-0.57,2.25,2.68,4.14,2.68,4.14a7,7,0,0,0-1.91,3.62c-0.33,2.21,2.68,4.59,2.68,4.59a6.11,6.11,0,0,0,.32,4.24c1.77,3.49,7.7,4,11.47,4.38s14.78-2.13,16.94-2.39L340,249.79s-15-6.43-19.49-6.24C316.69,243.73,309.27,245.53,308,248.22Z" transform="translate(-43.58 -52.27)"/><path class="cls-7" d="M309.13,252.1c4-1.15,8.08-1.05,12.17-1.19a0.08,0.08,0,0,1,0,.14c-4.07.08-8.08,1-12.14,1.24A0.1,0.1,0,0,1,309.13,252.1Z" transform="translate(-43.58 -52.27)"/><path class="cls-7" d="M309.41,259.36a10.82,10.82,0,0,1,2.82-.14c1,0,2,.05,3,0.1,2,0.1,4,.25,6,0.45a0.07,0.07,0,0,1,0,.14q-3-.15-6-0.18h-3a13,13,0,0,1-2.82-.1A0.14,0.14,0,0,1,309.41,259.36Z" transform="translate(-43.58 -52.27)"/><path class="cls-7" d="M310.18,267.91a7.56,7.56,0,0,1,2.53,0l2.74,0.18c1.82,0.11,3.64.21,5.46,0.26a0.07,0.07,0,1,1,0,.14c-1.85,0-3.71,0-5.56-.09l-2.73-.09a7.06,7.06,0,0,1-2.47-.31,0.05,0.05,0,0,1,0-.07h0Z" transform="translate(-43.58 -52.27)"/><path class="cls-5" d="M341.14,249l-0.9,29.12s29.74-1.41,32.68-8.49-8.33-14.6-13.26-17.07S341.14,249,341.14,249Z" transform="translate(-43.58 -52.27)"/><path class="cls-4" d="M353.57,258.66a12.33,12.33,0,0,1,3.06.78,12,12,0,0,1-3.17-.07,12.84,12.84,0,0,1-3.06-.79A11.94,11.94,0,0,1,353.57,258.66Zm-5.07,18.75a11.92,11.92,0,0,1,2.24-2.15,12.74,12.74,0,0,1,2.73-1.62,11.75,11.75,0,0,1-2.29,2.21,13.5,13.5,0,0,1-2.53,1.54h0l-0.15.07v-0.05Zm21.25-12.15a12.92,12.92,0,0,1,1.6,2.73,13.78,13.78,0,0,1-3.79-5,12.89,12.89,0,0,1,2.19,2.32h0Z" transform="translate(-43.58 -52.27)"/><path class="cls-7" d="M341.23,249c2.05,0.41,4.1.77,6.15,1.15s4.1,0.72,6.14,1.15a26.26,26.26,0,0,1,5.91,1.7,55.24,55.24,0,0,1,5.59,2.78,33,33,0,0,0-5.38-3.25,24.39,24.39,0,0,0-6-1.87c-2.06-.38-4.11-0.73-6.18-1S343.32,249.1,341.23,249Z" transform="translate(-43.58 -52.27)"/><path class="cls-7" d="M366.3,273.93c-2.14.56-4.29,1-6.45,1.47s-4.32.85-6.5,1.14-4.35.64-6.54,0.85l-6.58.62,0.09,0.08,0.05-5-0.22,5v0.08h0.09a85.16,85.16,0,0,0,13.21-1c2.18-.36,4.36-0.76,6.5-1.3A52.06,52.06,0,0,0,366.3,273.93Z" transform="translate(-43.58 -52.27)"/><path class="cls-7" d="M346.65,251a60.56,60.56,0,0,1,.16,6.07c0,2.1,0,4.18-.08,6.28s-0.47,10.46-.58,12.54a0.07,0.07,0,0,1-.14,0c0-2.09-.1-10.4-0.05-12.45s0.08-4.11.19-6.15a62.07,62.07,0,0,1,.42-6.27C346.56,251,346.65,250.94,346.65,251Z" transform="translate(-43.58 -52.27)"/><path class="cls-5" d="M192.31,439.22c3-.54,10.37-2.11,9.68-15,0,0,6.25,14.3-4.61,19.87Z" transform="translate(-43.58 -52.27)"/><path class="cls-5" d="M162.51,451.77c1.87,3.24-2.74,15.28-3,16.58s4.42,5,3.57,6.56-5.4,2.35-7.31,1.57-5.07-5.85-5.39-7.71a17.59,17.59,0,0,1,0-5.2c0.14-.58-6.62-10.62-6.39-12.84S160.24,447.82,162.51,451.77Z" transform="translate(-43.58 -52.27)"/><path class="cls-11" d="M162.51,451.77c1.87,3.24-2.74,15.28-3,16.58s4.42,5,3.57,6.56-5.4,2.35-7.31,1.57-5.07-5.85-5.39-7.71a17.59,17.59,0,0,1,0-5.2c0.14-.58-6.62-10.62-6.39-12.84S160.24,447.82,162.51,451.77Z" transform="translate(-43.58 -52.27)"/><path class="cls-5" d="M196.87,454.12c0.18,1.21-2.18,10.95-3.87,13.76s-8.65,7.88-10.23,8.2-5.59,1.46-6.25.48,0.22-3.39.8-3.8a34.72,34.72,0,0,1,3.27-2.14c0.46-.12,2.53-5.51,2.47-6.18s-6-7.49-4.73-10.86S196.87,454.12,196.87,454.12Z" transform="translate(-43.58 -52.27)"/><path class="cls-11" d="M196.87,454.12c0.18,1.21-2.18,10.95-3.87,13.76s-8.65,7.88-10.23,8.2-5.59,1.46-6.25.48,0.22-3.39.8-3.8a34.72,34.72,0,0,1,3.27-2.14c0.46-.12,2.53-5.51,2.47-6.18s-6-7.49-4.73-10.86S196.87,454.12,196.87,454.12Z" transform="translate(-43.58 -52.27)"/><path class="cls-5" d="M114.34,433.05c5.65,3.13,17.1,3.7,17.2,4.24s1.76,12,7.08,16.4,18.1,8.66,24.48,9.73,16.51-1.93,19.42-2.14a37.23,37.23,0,0,1,7.24.53,75.89,75.89,0,0,1,4.15,6.63c0.65,1.5,6,6.42,6.19,8.13s-1.82,2.55-2.53,3.65,0.63,2.24,1.69,2.66,5.53-1,6.48-2,0.75-15.28.1-18.93-4.89-18.34-8.4-21.33-13.31-2.24-20.33-3.85-18-5.35-20.26-8.66-2.37-9.94-3.51-12.08-8.11-7.49-12.19-8.22c-1.74-.31-11.32,2.69-12.82,4.2s-3.12,6.9-6,8.88c-0.52.36-12,1.13-12.91,1.88S110.3,430.85,114.34,433.05Z" transform="translate(-43.58 -52.27)"/><path class="cls-5" d="M160.95,457.68c-0.62,3.71-10.54,12.56-13.74,14.49s-7.77,5.89-9,6.74-9.29,0-10.22-1.49,0.84-4.06,1.92-4.6,3.38-1.09,4.47-1.88,4.58-6.68,4.36-7.75-3.14-9.93-3.33-14.54S161.58,453.89,160.95,457.68Z" transform="translate(-43.58 -52.27)"/><path class="cls-16" d="M164,438.92c2.32-2.66,12.1-2.41,15.57.94s-2.35,11.84-8.21,12.32S160.76,442.6,164,438.92Z" transform="translate(-43.58 -52.27)"/><path class="cls-16" d="M184.92,441.45c-1.19,1.53,0,5.64,2.8,6.25a4.44,4.44,0,0,0,5.38-3.26,4.49,4.49,0,0,0,.13-1.18C193.13,440.23,187.58,438,184.92,441.45Z" transform="translate(-43.58 -52.27)"/><path class="cls-16" d="M127.49,420.13c-1.85,2.38,0,8.78,4.36,9.74a6.91,6.91,0,0,0,8.38-5.07,7,7,0,0,0,.2-1.85C140.28,418.22,131.63,414.79,127.49,420.13Z" transform="translate(-43.58 -52.27)"/><path class="cls-16" d="M160.61,441a2.35,2.35,0,0,0-3.38-.89,2.27,2.27,0,0,0,0,3.61C158.46,444.65,161.1,443.16,160.61,441Z" transform="translate(-43.58 -52.27)"/><path class="cls-16" d="M182.23,454.71c1.12,0.36,3.21-1.21,2.95-3a2.71,2.71,0,0,0-3.72-2.19C179.76,450.27,179.71,453.93,182.23,454.71Z" transform="translate(-43.58 -52.27)"/><path class="cls-7" d="M130.85,420.81c2.53,0.23,1.92,5-.43,4.79S128.74,420.6,130.85,420.81Z" transform="translate(-43.58 -52.27)"/><path class="cls-7" d="M111.61,426.3c-0.84,0-2.93-2.21-2.9-3.44s7-.74,7.6.11C117.08,424.06,112.9,426.31,111.61,426.3Z" transform="translate(-43.58 -52.27)"/><path class="cls-8" d="M131.55,437.4c1.52-.2,8.3-0.29,13.09-1.94s11-8.56,11.41-9.08,2.29,1.8,2.46,2.38-6.9,8.89-13.05,10.41-13.84,2-14.17,1.59S130.81,437.5,131.55,437.4Z" transform="translate(-43.58 -52.27)"/><path class="cls-5" d="M144.34,409c7.54-.48,28.91,9,30.68,15.28,2.06,7.29-6.28,14.9-12.13,14.18S142.74,417.79,142,415.05,142.05,409.11,144.34,409Z" transform="translate(-43.58 -52.27)"/><path class="cls-11" d="M144.34,409c7.54-.48,28.91,9,30.68,15.28,2.06,7.29-6.28,14.9-12.13,14.18S142.74,417.79,142,415.05,142.05,409.11,144.34,409Z" transform="translate(-43.58 -52.27)"/></g></svg>